{"glyphs":{"0":{"ha":697,"x_min":72,"x_max":701,"o":"m 701 650 q 661 453 701 567 q 558 235 621 340 q 403 58 494 131 q 231 -15 313 -15 q 111 37 150 -15 q 72 165 72 89 q 147 422 72 272 q 342 688 222 572 q 572 804 463 804 q 701 650 701 804 m 427 144 q 477 210 427 144 q 588 433 526 276 q 649 683 649 589 q 574 778 649 778 q 433 697 510 778 q 296 506 356 615 q 196 287 236 397 q 156 117 156 176 q 240 13 156 13 q 427 144 328 13 z "},"1":{"ha":525,"x_min":83,"x_max":592,"o":"m 97 -3 l 85 0 l 83 8 q 279 358 153 132 q 458 678 406 585 q 232 507 346 576 l 226 507 l 221 518 l 224 526 q 463 725 408 667 q 540 786 517 783 l 583 790 q 586 790 585 790 q 592 789 588 790 l 592 782 l 169 7 q 97 -3 163 3 z "},"2":{"ha":678,"x_min":1,"x_max":699,"o":"m 613 522 q 569 472 613 522 q 451 356 526 422 q 343 262 375 289 q 255 189 311 235 q 196 140 199 143 q 388 61 354 61 q 456 85 421 61 q 514 135 490 108 q 543 163 538 161 l 553 154 l 553 149 q 333 -17 417 -17 q 249 7 304 -17 q 158 47 194 31 q 117 65 121 64 l 19 -11 l 1 0 q 67 77 3 7 q 138 150 131 147 q 168 149 158 153 q 601 696 601 535 q 532 757 601 757 q 399 690 463 757 q 306 542 336 622 l 300 536 l 283 536 l 281 544 q 396 723 317 646 q 572 800 475 800 q 663 769 628 800 q 699 681 699 739 q 613 522 699 622 z "},"3":{"ha":636,"x_min":14,"x_max":675,"o":"m 675 717 q 367 454 675 565 q 498 424 442 454 q 554 320 554 394 q 484 164 554 246 q 318 33 414 82 q 141 -15 222 -15 q 14 18 60 -15 l 14 25 l 24 33 l 31 36 q 128 15 75 15 q 348 122 236 15 q 460 338 460 228 q 432 401 460 378 q 370 424 404 424 q 265 404 336 424 l 256 408 l 254 421 l 260 428 q 544 614 472 515 q 579 710 579 661 q 525 758 579 758 q 333 635 443 758 l 326 635 l 317 643 l 317 650 q 569 803 442 803 q 645 782 615 803 q 675 717 675 761 z "},"4":{"ha":644,"x_min":110,"x_max":674,"o":"m 608 490 l 633 492 l 642 488 l 643 479 q 601 393 643 475 q 550 294 560 311 l 583 294 l 592 289 l 585 274 l 575 267 l 535 265 q 406 13 411 18 q 363 -1 400 7 q 315 -10 325 -10 l 308 -8 l 308 -3 q 447 261 308 14 l 110 253 l 110 264 q 214 382 122 289 q 519 731 393 561 q 565 773 547 765 q 592 783 583 781 q 624 788 601 785 q 663 794 647 792 l 672 790 l 674 781 q 489 581 674 754 q 383 483 439 533 q 284 394 326 432 q 204 322 242 356 q 163 285 167 289 l 464 290 l 554 465 q 575 483 561 481 q 608 490 597 490 z "},"5":{"ha":618,"x_min":-17,"x_max":704,"o":"m 379 769 q 441 782 415 782 q 495 778 467 782 q 592 774 524 774 q 699 803 660 774 l 704 800 q 621 711 681 738 q 501 685 561 685 l 360 689 l 207 424 q 393 486 300 486 q 493 456 454 486 q 532 365 532 425 q 456 183 532 274 q 276 37 381 92 q 89 -18 171 -18 q -17 -1 7 -18 l -17 8 l -8 18 l -3 21 q 83 8 31 8 q 319 126 200 8 q 439 361 439 244 q 415 427 439 404 q 355 450 392 450 q 289 439 318 450 q 219 403 260 428 q 165 372 179 379 l 157 375 l 157 383 q 266 585 167 411 q 379 769 365 758 z "},"6":{"ha":585,"x_min":51,"x_max":601,"o":"m 133 103 q 153 41 133 65 q 210 17 174 17 q 334 81 271 17 q 434 227 397 144 q 471 367 471 310 q 424 425 471 425 q 336 383 381 425 q 222 204 268 319 l 217 197 l 203 196 l 200 204 q 297 383 222 297 q 457 468 371 468 q 530 438 504 468 q 556 358 556 407 q 501 194 556 282 q 363 45 447 106 q 206 -15 279 -15 q 92 24 132 -15 q 51 143 51 64 q 106 326 51 222 q 247 522 160 429 q 583 815 408 693 l 592 817 l 601 801 q 598 796 600 800 q 588 783 596 792 q 545 747 581 775 q 500 710 510 718 q 326 518 403 619 q 191 303 249 417 q 133 103 133 190 z "},"7":{"ha":678,"x_min":14,"x_max":803,"o":"m 693 688 l 472 693 q 401 678 431 693 q 358 644 371 663 q 307 593 326 596 l 303 596 l 303 604 q 407 752 361 719 q 573 785 453 785 q 769 775 693 785 q 797 789 788 789 l 803 781 l 800 771 q 569 525 757 722 q 192 88 376 324 q 121 5 129 8 q 24 -7 113 1 l 15 -3 l 14 3 q 556 557 24 44 q 693 688 646 643 z "},"8":{"ha":583,"x_min":19,"x_max":640,"o":"m 513 801 q 604 774 568 801 q 640 701 640 747 q 621 611 640 654 q 564 525 601 568 q 431 394 504 458 q 457 237 457 336 q 369 61 457 138 q 178 -15 281 -15 q 66 20 113 -15 q 19 110 19 56 q 47 216 19 165 q 128 317 75 267 q 303 464 218 401 q 279 575 279 518 q 351 733 279 665 q 513 801 422 801 m 590 696 q 570 753 590 732 q 514 774 550 774 q 413 726 456 774 q 369 620 369 679 q 421 424 369 561 q 539 553 488 479 q 590 696 590 626 m 313 77 q 340 109 313 77 q 368 218 368 140 q 310 438 368 296 q 83 115 83 269 q 108 41 83 68 q 181 14 133 14 q 313 77 257 14 z "},"9":{"ha":604,"x_min":81,"x_max":608,"o":"m 472 801 q 574 752 539 801 q 608 622 608 703 q 558 441 608 542 q 425 253 507 340 q 96 -31 264 79 l 88 -31 l 81 -18 l 86 -10 q 511 576 422 226 q 525 676 525 629 q 449 772 525 772 q 322 717 386 772 q 220 585 258 661 q 182 447 182 508 q 251 369 182 369 q 442 563 361 369 l 447 567 l 463 565 l 464 558 q 355 375 426 461 q 201 289 283 289 q 129 319 156 289 q 103 397 103 350 q 229 660 103 518 q 472 801 356 801 z "}," ":{"ha":360,"x_min":0,"x_max":0,"o":""},"!":{"ha":486,"x_min":165,"x_max":750,"o":"m 697 861 l 740 860 l 747 857 l 750 849 q 516 489 738 815 q 285 149 294 163 l 271 150 l 272 160 l 625 832 q 697 861 640 861 m 257 -3 q 247 -11 257 -3 q 214 -19 238 -19 q 178 -5 190 -19 q 165 21 165 10 q 188 76 165 58 q 233 94 210 94 q 269 80 257 94 q 282 54 282 65 q 279 28 282 43 q 257 -3 276 14 z "},"\"":{"ha":442,"x_min":236,"x_max":461,"o":"m 428 913 q 461 872 461 913 q 438 735 461 829 q 413 638 414 642 l 399 638 l 388 868 q 397 900 386 888 q 428 913 408 913 m 278 913 q 310 865 310 913 q 263 638 310 818 l 249 638 l 236 867 q 247 899 235 885 q 278 913 260 913 z "},"#":{"ha":1036,"x_min":35,"x_max":999,"o":"m 999 646 l 960 579 l 753 579 l 638 383 l 861 383 l 821 318 l 597 318 l 404 0 l 331 0 l 521 318 l 329 318 l 136 0 l 63 0 l 254 318 l 35 318 l 76 383 l 293 383 l 410 579 l 174 579 l 214 646 l 450 646 l 642 967 l 718 967 l 524 646 l 718 646 l 911 967 l 986 967 l 793 646 l 999 646 m 678 579 l 485 579 l 367 383 l 561 383 l 678 579 z "},"$":{"ha":624,"x_min":-93,"x_max":660,"o":"m 557 794 q 635 753 610 786 q 660 679 660 719 q 638 612 660 639 q 587 585 617 585 q 540 603 557 585 q 522 647 522 621 q 540 690 522 672 q 577 707 558 707 q 610 699 596 707 q 628 683 625 692 q 540 767 618 750 l 378 472 q 471 267 471 350 q 413 119 471 183 q 275 26 354 56 q 115 -3 196 -3 l 76 -76 l 29 -85 l 78 0 q -93 74 -57 25 q -68 107 -92 83 l -56 107 q 94 29 1 47 l 301 407 q 218 582 218 510 q 269 706 218 654 q 519 799 363 799 l 558 871 l 603 879 l 557 794 m 506 772 l 486 774 q 363 729 419 774 q 306 619 306 685 q 315 571 306 590 q 340 528 325 551 q 356 503 354 506 l 506 772 m 383 242 q 326 378 383 301 l 131 25 q 305 87 226 25 q 383 242 383 149 z "},"%":{"ha":863,"x_min":-46,"x_max":861,"o":"m 376 1017 q 481 917 481 1017 q 375 653 481 797 q 331 600 351 619 q 389 565 350 565 q 574 661 454 565 q 713 804 608 689 q 824 924 818 919 q 844 928 831 928 q 861 918 858 928 l 7 -117 l -44 -117 l -46 -110 q 386 385 153 99 q 607 657 456 471 q 386 542 472 542 q 304 576 338 542 q 186 529 243 529 q 85 657 85 529 q 115 783 85 717 q 233 948 157 879 q 376 1017 308 1017 m 678 446 q 783 340 783 446 q 697 110 783 235 q 488 -40 593 -40 q 386 88 386 -40 q 417 213 386 146 q 534 378 458 310 q 678 446 610 446 m 213 560 q 289 596 246 560 q 268 664 265 632 q 315 724 268 724 q 345 712 333 724 q 357 686 357 700 q 354 667 357 672 q 406 764 379 701 q 444 907 444 854 q 408 969 444 960 q 392 972 400 972 q 303 923 354 972 q 211 786 253 874 q 163 622 163 685 q 213 560 163 560 m 513 -11 q 565 8 535 -11 q 612 44 596 26 q 658 101 628 63 q 717 221 689 140 q 746 340 746 301 q 694 401 746 401 q 605 353 656 401 q 513 217 554 304 q 464 51 464 114 q 513 -11 464 -11 z "},"&":{"ha":842,"x_min":14,"x_max":1035,"o":"m 465 553 l 558 556 q 636 531 617 556 q 646 508 646 519 q 639 489 646 497 q 576 468 622 468 q 436 529 497 468 q 200 364 281 506 q 149 185 149 272 q 164 89 149 136 q 363 -44 210 -44 q 599 47 499 -44 q 699 229 699 139 q 662 301 699 272 q 584 334 625 329 q 515 339 543 339 q 441 333 486 339 q 351 296 396 326 q 299 200 299 260 q 392 92 299 140 q 403 70 406 83 q 392 63 401 57 q 268 169 304 110 q 243 235 243 208 q 250 278 243 261 q 333 360 267 326 q 503 393 400 393 l 749 393 q 926 442 821 393 q 1001 497 978 465 q 1013 533 1013 514 q 1004 565 1013 551 q 997 585 996 579 q 1005 590 999 590 q 1015 583 1011 590 q 1035 520 1035 550 q 1017 465 1035 490 q 899 381 982 413 q 726 349 815 349 q 719 349 724 349 q 772 239 772 306 q 664 47 772 146 q 532 -32 613 -1 q 363 -62 451 -62 q 58 63 147 -62 q 14 183 14 125 q 32 292 14 242 q 228 496 81 424 q 418 549 313 538 q 380 685 379 603 q 451 839 381 767 q 615 944 522 911 q 794 976 707 976 q 917 947 867 976 q 968 854 968 918 q 943 783 968 814 q 887 751 918 751 q 837 770 856 751 q 818 817 818 789 q 837 863 818 844 q 881 881 856 881 q 913 873 897 881 q 931 856 928 865 q 932 872 932 864 q 907 919 932 903 q 828 939 881 939 q 704 910 775 939 q 571 828 633 882 q 472 694 508 774 q 453 615 453 650 q 465 553 453 581 m 622 510 q 519 535 622 535 q 476 533 499 535 q 566 492 510 492 q 622 510 622 492 z "},"'":{"ha":219,"x_min":107,"x_max":261,"o":"m 107 542 q 118 554 107 550 q 190 600 160 569 q 225 675 219 631 q 183 661 204 661 q 149 676 161 661 q 136 703 136 692 q 139 728 136 714 q 161 760 142 743 q 206 776 181 776 q 247 753 232 776 q 261 700 261 731 q 219 598 261 639 q 122 539 176 557 q 113 538 118 538 q 107 542 107 538 z "},"(":{"ha":486,"x_min":33,"x_max":722,"o":"m 689 1049 q 711 1051 701 1051 q 721 1043 721 1051 q 689 1019 719 1029 q 517 944 599 996 q 377 834 435 893 q 272 704 319 775 q 115 235 115 472 q 203 -18 115 56 q 303 -53 244 -53 q 335 -51 315 -53 q 356 -61 354 -49 q 283 -83 357 -83 q 140 -20 210 -83 q 44 165 69 43 q 35 283 35 214 q 57 450 35 353 q 135 619 78 528 q 273 795 192 710 q 465 950 354 881 q 689 1049 575 1019 z "},")":{"ha":719,"x_min":18,"x_max":707,"o":"m 51 -71 q 29 -74 39 -74 q 19 -65 19 -74 q 53 -42 19 -50 q 261 56 164 -12 q 422 210 358 125 q 625 743 625 479 q 538 994 625 922 q 436 1031 494 1031 q 406 1028 425 1031 q 385 1039 388 1026 q 457 1061 383 1061 q 601 998 531 1061 q 696 813 671 935 q 706 694 706 764 q 683 528 706 625 q 569 301 656 422 q 343 74 483 181 q 51 -71 203 -32 z "},"*":{"ha":599,"x_min":21,"x_max":567,"o":"m 22 513 q 51 540 22 540 l 253 540 q 174 714 214 629 q 179 744 161 740 q 186 746 183 746 q 221 715 206 746 l 303 556 l 464 718 q 492 721 485 739 q 494 703 494 715 q 474 668 494 690 l 356 540 l 544 540 q 567 526 567 540 q 532 497 567 506 l 518 496 l 335 489 q 408 343 374 410 q 406 314 414 332 q 380 292 393 292 q 356 310 367 292 l 286 465 l 135 300 q 108 295 125 290 q 84 313 90 300 q 94 344 78 325 l 233 485 l 50 478 q 30 490 38 478 q 22 513 22 503 z "},"+":{"ha":636,"x_min":188,"x_max":665,"o":"m 221 336 l 414 332 q 428 392 418 349 q 460 525 451 490 q 492 563 471 563 q 501 538 507 563 q 460 332 494 513 q 549 331 486 331 l 640 331 q 660 324 656 331 q 665 311 665 317 q 636 293 665 293 q 451 285 571 293 q 439 217 447 260 q 419 94 421 114 q 386 72 417 79 q 371 71 378 71 q 351 88 351 71 q 400 282 351 96 q 295 275 367 279 q 204 269 224 271 q 189 296 189 268 q 221 336 193 332 z "},",":{"ha":213,"x_min":-1,"x_max":158,"o":"m 158 28 q 113 -79 158 -35 q 14 -142 68 -124 q 4 -144 8 -144 q 0 -137 0 -144 q 11 -126 0 -131 q 82 -81 53 -112 q 117 -6 111 -50 q 76 -19 99 -19 q 40 -3 54 -19 q 31 38 26 14 q 53 78 33 61 q 100 94 74 94 q 142 76 126 94 q 158 28 158 57 z "},"-":{"ha":564,"x_min":204,"x_max":563,"o":"m 204 307 q 228 336 204 336 q 533 331 318 336 q 563 313 557 329 q 539 293 560 296 q 328 281 431 293 q 226 269 226 269 q 211 283 218 269 q 204 307 204 296 z "},".":{"ha":289,"x_min":142,"x_max":258,"o":"m 233 -3 q 224 -11 233 -3 q 190 -19 214 -19 q 154 -5 167 -19 q 142 21 142 10 q 164 76 142 58 q 210 94 186 94 q 246 80 233 94 q 258 54 258 65 q 256 28 258 43 q 233 -3 253 14 z "},"/":{"ha":761,"x_min":22,"x_max":1049,"o":"m 322 221 q 33 -57 85 -57 q 22 -47 22 -57 q 44 -17 22 -36 q 110 49 67 1 q 217 172 154 97 q 340 319 281 247 q 488 503 399 390 q 640 694 576 615 q 807 906 703 772 q 969 1111 911 1039 q 1017 1133 986 1133 q 1049 1114 1049 1133 q 1039 1094 1049 1104 q 738 725 967 1011 q 322 221 508 439 z "},":":{"ha":356,"x_min":85,"x_max":354,"o":"m 329 308 q 319 300 329 308 q 286 292 310 292 q 249 308 263 292 q 239 349 235 325 q 262 389 242 372 q 306 406 282 406 q 342 391 329 406 q 354 365 354 376 q 351 340 354 354 q 329 308 349 325 m 179 -1 q 168 -10 179 -1 q 133 -19 157 -19 q 97 -5 110 -19 q 85 21 85 10 q 88 47 85 32 q 110 78 90 61 q 153 94 129 94 q 189 80 176 94 q 201 54 201 65 q 179 -1 201 17 z "},";":{"ha":354,"x_min":56,"x_max":354,"o":"m 329 308 q 319 300 329 308 q 286 292 310 292 q 249 308 263 292 q 239 349 235 325 q 262 389 242 372 q 306 406 282 406 q 342 391 329 406 q 354 365 354 376 q 351 340 354 354 q 329 308 349 325 m 210 19 q 167 -83 210 -43 q 71 -142 125 -124 q 60 -144 65 -144 q 56 -137 56 -144 q 67 -126 56 -131 q 138 -81 108 -112 q 174 -6 168 -50 q 131 -19 153 -19 q 96 -3 110 -19 q 86 38 82 14 q 110 78 90 61 q 155 94 129 94 q 195 72 181 94 q 210 19 210 50 z "},"<":{"ha":457,"x_min":156,"x_max":463,"o":"m 463 413 q 303 281 440 375 q 238 236 240 239 l 236 47 l 229 33 l 219 29 q 208 33 213 29 q 175 155 189 83 q 156 249 161 226 q 238 300 161 251 q 451 426 436 426 l 461 422 l 463 413 z "},"=":{"ha":636,"x_min":204,"x_max":568,"o":"m 568 447 q 544 432 568 432 q 339 422 400 432 q 235 408 253 408 q 204 449 204 408 q 228 475 204 475 l 432 475 q 568 447 568 475 m 568 308 q 544 293 568 293 q 339 283 400 293 q 235 269 253 269 q 204 310 204 269 q 228 336 204 336 l 432 336 q 568 308 568 336 z "},">":{"ha":457,"x_min":38,"x_max":344,"o":"m 344 208 l 60 31 l 50 29 q 39 32 44 29 l 38 38 q 69 76 38 51 q 124 119 101 101 q 172 156 147 138 q 215 187 196 174 q 249 210 235 200 l 263 219 l 264 408 q 267 415 265 410 q 271 421 269 419 l 282 426 l 294 421 q 328 297 315 365 q 344 208 340 229 z "},"?":{"ha":531,"x_min":165,"x_max":681,"o":"m 531 651 q 581 767 581 715 q 533 831 581 808 q 494 839 513 839 q 453 837 476 839 q 393 817 429 835 q 335 773 357 799 q 313 726 313 747 q 313 719 313 722 q 361 769 319 746 q 400 781 385 781 q 425 775 415 781 q 449 728 449 763 q 418 669 449 693 q 357 646 388 646 q 294 685 310 646 q 288 718 288 699 q 297 765 288 738 q 386 849 317 808 q 550 901 476 901 q 671 839 635 901 q 681 799 681 821 q 589 617 681 721 q 479 505 557 581 q 356 368 401 429 q 278 222 310 307 q 260 214 272 210 q 251 232 249 218 q 299 343 263 281 q 360 440 335 406 q 453 556 385 474 q 531 651 521 639 m 257 -3 q 247 -11 257 -3 q 214 -19 238 -19 q 178 -5 190 -19 q 165 21 165 10 q 188 76 165 58 q 233 94 210 94 q 269 80 257 94 q 282 54 282 65 q 279 28 282 43 q 257 -3 276 14 z "},"@":{"ha":1328,"x_min":103,"x_max":1311,"o":"m 468 161 q 514 103 468 103 q 632 179 565 103 q 762 376 703 264 q 843 513 821 489 q 900 538 865 538 q 938 532 911 538 q 981 529 965 526 q 890 388 949 499 q 814 167 814 242 q 885 92 814 92 q 1063 165 972 92 q 1204 353 1154 239 q 1254 574 1254 468 q 1189 781 1254 706 q 1040 885 1124 857 q 854 914 957 914 q 506 811 669 914 q 257 550 343 708 q 171 235 171 392 q 247 -12 171 78 q 422 -139 324 -103 q 636 -175 521 -175 q 1065 -37 861 -175 q 1088 -39 1078 -25 q 1081 -60 1097 -53 q 626 -206 861 -206 q 194 -33 338 -206 q 104 244 104 76 q 160 494 104 367 q 322 722 215 622 q 568 883 428 822 q 851 943 708 943 q 1150 867 1019 943 q 1258 764 1217 829 q 1310 574 1310 686 q 1245 344 1310 463 q 1068 136 1181 226 q 963 85 1031 107 q 843 63 894 63 q 833 63 839 63 q 740 108 779 63 q 718 178 718 135 q 733 278 718 222 q 608 115 672 178 q 492 53 543 53 q 446 67 467 53 q 390 199 390 101 q 538 543 390 367 q 742 671 619 642 q 806 679 775 679 q 943 624 886 679 q 953 587 960 604 q 925 574 946 569 q 842 636 907 636 q 775 617 808 636 q 655 517 718 586 q 536 358 592 449 q 468 161 468 246 z "},"A":{"ha":989,"x_min":25,"x_max":1194,"o":"m 922 618 q 954 578 954 618 q 919 497 954 535 q 807 326 858 429 q 729 46 729 171 q 747 -25 729 -3 q 786 -47 764 -47 q 942 61 853 -47 q 1063 258 1021 163 q 1085 278 1074 281 q 1086 253 1096 275 q 957 31 1029 126 q 864 -55 919 -21 q 753 -89 808 -89 q 671 -45 699 -89 q 643 58 643 -1 q 658 176 643 118 q 696 267 672 235 q 397 -3 556 99 q 213 -64 314 -54 q 180 -65 203 -65 q 125 -49 157 -65 q 25 155 25 -7 q 131 506 25 317 q 253 682 186 606 q 114 778 160 726 q 81 868 81 815 q 101 935 81 921 q 126 942 115 953 q 127 911 135 929 q 119 876 119 893 q 160 793 119 839 q 278 711 200 747 q 956 1074 604 1074 q 1130 1024 1065 1074 q 1194 897 1194 975 q 1100 733 1194 813 q 965 661 1053 692 q 648 614 832 614 q 343 653 464 614 q 150 323 203 454 q 97 119 97 192 q 99 92 97 104 q 215 -24 115 -24 q 476 99 328 -24 q 683 310 582 188 q 834 525 785 432 q 922 618 883 618 m 1138 914 q 1088 1006 1138 974 q 953 1038 1039 1038 q 781 1010 867 1038 q 622 928 696 982 q 490 817 547 874 q 365 681 432 760 q 621 647 469 647 q 1036 739 906 647 q 1138 914 1138 810 z "},"B":{"ha":1446,"x_min":13,"x_max":1513,"o":"m 1442 267 q 1385 119 1442 188 q 1169 -21 1304 22 q 975 -53 1069 -53 q 907 -49 940 -53 q 538 47 689 -21 q 247 -54 400 -54 q 24 46 67 -54 q 14 101 14 69 q 46 169 14 133 q 185 225 96 225 q 290 208 243 225 q 407 154 338 192 q 510 100 476 117 q 636 266 571 160 q 751 474 701 372 q 876 701 800 576 q 1032 914 953 826 l 1111 1004 q 869 1024 1001 1024 q 579 989 738 1024 q 246 803 363 943 q 175 642 175 718 q 274 510 175 540 q 335 500 308 500 q 396 510 361 500 q 463 551 431 519 q 510 611 496 582 q 525 655 525 640 q 539 669 525 669 q 554 650 553 668 l 554 649 q 446 494 539 547 q 332 464 389 464 l 260 476 q 113 668 113 528 q 197 857 113 764 q 597 1047 333 1010 q 863 1065 725 1065 q 1144 1035 1001 1065 q 1213 1079 1183 1068 q 1247 1090 1242 1090 q 1253 1089 1251 1090 q 1256 1080 1261 1089 q 1226 1054 1251 1071 q 1194 1024 1200 1038 q 1467 885 1383 975 q 1511 783 1511 835 q 1481 678 1511 731 q 1350 573 1440 608 q 1168 533 1260 538 q 1333 456 1257 506 q 1442 267 1442 385 m 956 -14 q 1219 75 1111 -14 q 1338 279 1338 169 q 1217 451 1338 393 q 1108 492 1172 472 q 1003 526 1043 513 q 958 553 964 540 q 999 581 958 579 q 1079 576 1025 581 q 1172 573 1133 572 q 1266 601 1211 574 q 1360 671 1321 628 q 1422 801 1422 740 q 1178 989 1422 932 q 914 560 1104 888 q 621 122 724 233 l 568 72 q 906 -11 725 7 q 956 -14 932 -14 m 479 74 q 274 167 317 151 q 188 182 231 182 q 121 152 146 182 q 96 98 96 122 q 107 51 96 74 q 235 -11 138 -11 q 479 74 367 -11 z "},"C":{"ha":986,"x_min":83,"x_max":1183,"o":"m 526 -140 q 319 -98 418 -140 q 160 26 219 -56 q 89 206 101 108 q 83 297 83 247 q 96 429 83 347 q 151 607 108 511 q 251 776 193 703 q 228 948 228 869 q 246 1094 228 1026 q 255 1110 249 1106 q 264 1115 261 1115 q 272 1081 278 1115 q 267 984 267 1047 q 285 824 267 921 q 546 1032 396 967 q 788 1082 661 1082 q 863 1078 824 1082 q 1151 914 1076 1054 q 1182 793 1182 856 q 1153 664 1182 731 q 943 467 1092 531 q 733 425 847 425 q 635 432 685 425 q 290 668 386 468 q 222 510 257 621 q 181 339 186 399 q 175 239 175 279 q 181 156 175 199 q 239 17 190 79 q 369 -69 288 -44 q 510 -93 450 -93 q 839 -12 703 -93 q 967 98 921 36 q 1067 268 1014 160 q 1084 281 1075 286 q 1083 254 1093 275 q 985 85 1031 147 q 863 -32 940 22 q 526 -140 707 -140 m 318 713 q 729 461 417 461 q 1012 560 906 461 q 1118 783 1118 658 q 1010 978 1118 908 q 811 1029 929 1029 q 574 961 693 1029 q 318 713 424 874 z "},"D":{"ha":1408,"x_min":3,"x_max":1425,"o":"m 521 50 q 235 -54 392 -54 q 14 46 56 -54 q 4 101 4 69 q 36 168 4 132 q 175 225 86 225 q 295 203 235 225 q 510 100 356 182 q 649 278 579 167 q 769 492 718 389 q 892 718 819 596 q 1038 921 965 840 q 707 1014 882 1014 q 560 999 635 1014 q 232 811 344 953 q 163 647 163 725 q 264 510 163 542 q 326 500 300 500 q 385 508 353 500 q 450 547 418 517 q 515 661 511 608 q 531 670 517 674 q 543 649 546 667 q 436 494 529 547 q 322 464 379 464 l 250 476 q 111 611 144 513 q 97 686 97 649 q 154 838 97 763 q 588 1047 276 1001 q 708 1056 649 1056 q 1076 964 901 1056 q 1176 1059 1131 1026 q 1250 1092 1222 1092 q 1268 1085 1265 1092 q 1267 1076 1271 1079 q 1258 1072 1264 1072 q 1197 1022 1235 1072 q 1136 929 1160 972 q 1363 676 1285 831 q 1425 407 1425 553 q 1339 119 1425 226 q 1167 -4 1268 32 q 928 -47 1046 -47 q 521 50 689 -47 m 554 75 q 883 -8 694 -8 q 1233 117 1103 -8 q 1338 397 1338 218 q 1288 638 1338 525 q 1103 876 1225 781 q 948 624 1063 814 q 754 317 833 435 q 629 149 675 199 q 554 75 583 100 m 474 72 q 268 165 311 150 q 184 181 225 181 q 119 150 143 181 q 94 95 94 119 q 106 49 94 71 q 225 -11 135 -11 q 474 72 358 -11 z "},"E":{"ha":1132,"x_min":28,"x_max":1208,"o":"m 683 521 l 535 522 q 249 433 351 522 q 128 194 128 331 q 158 77 128 131 q 265 -11 188 24 q 473 -46 342 -46 q 750 10 604 -46 q 996 143 896 65 q 1110 299 1110 232 q 1076 338 1110 331 q 1042 356 1043 346 q 1063 367 1039 368 q 1101 357 1086 365 q 1164 271 1164 324 q 1056 108 1164 193 q 785 -26 949 24 q 478 -76 621 -76 q 246 -49 335 -76 q 42 131 89 0 q 29 194 29 164 q 40 270 29 225 q 90 374 51 315 q 203 482 129 432 q 360 556 276 532 q 511 583 444 581 q 393 653 442 608 q 344 749 344 697 q 344 757 344 753 q 471 959 354 869 q 715 1083 588 1049 q 936 1117 843 1117 q 993 1114 965 1117 q 1158 1056 1108 1100 q 1208 968 1208 1013 q 1137 848 1208 906 q 964 768 1065 790 q 923 763 939 763 q 908 771 907 763 q 956 792 914 788 q 1036 825 997 797 q 1125 972 1114 882 q 1125 981 1125 976 q 1092 1044 1125 1015 q 951 1083 1050 1083 q 747 1052 853 1083 q 553 949 642 1021 q 447 761 447 863 q 472 688 447 721 q 542 638 496 654 q 636 611 589 622 q 743 553 743 589 q 683 521 743 521 z "},"F":{"ha":1456,"x_min":71,"x_max":1928,"o":"m 1393 847 q 942 986 1113 986 q 656 889 771 986 q 546 689 546 796 q 586 608 546 633 q 689 578 640 578 q 725 582 707 578 q 833 633 789 597 q 878 692 878 669 q 891 722 878 714 q 904 717 904 731 q 900 697 904 708 q 764 563 871 599 q 669 547 718 547 q 574 576 621 547 q 485 729 485 626 q 599 954 485 853 q 876 1056 713 1056 q 1039 1032 957 1056 q 1411 871 1244 976 q 1500 918 1454 918 q 1553 883 1551 918 q 1543 869 1554 868 q 1528 881 1536 871 q 1507 885 1517 885 q 1444 854 1476 885 q 1686 767 1547 803 q 1772 754 1740 754 q 1821 756 1804 754 q 1900 801 1882 763 q 1917 827 1910 822 q 1926 822 1925 832 q 1926 811 1926 818 q 1868 725 1926 754 q 1800 707 1832 707 q 1731 713 1768 707 q 1633 739 1693 719 q 1536 775 1574 758 q 1463 810 1499 792 l 1424 829 q 1269 547 1351 747 q 1239 471 1243 481 q 1388 460 1319 460 q 1495 462 1456 460 q 1536 453 1535 464 q 1329 422 1538 422 q 1222 428 1263 422 q 1050 78 1136 192 q 960 -22 1014 31 q 844 -106 906 -74 q 538 -181 707 -181 q 250 -106 368 -181 q 71 215 71 6 q 94 367 71 286 q 156 460 111 419 q 232 509 201 500 q 260 513 263 518 q 213 475 258 507 q 106 314 122 410 q 99 233 99 279 q 119 133 99 188 q 356 -83 176 -14 q 538 -115 440 -115 q 731 -76 635 -115 q 908 40 826 -37 q 1172 432 1068 192 l 1083 433 q 869 358 921 433 q 849 351 857 343 q 847 371 842 358 q 933 467 878 438 q 1044 496 989 496 q 1192 483 1099 496 q 1301 703 1235 589 q 1393 847 1367 817 z "},"G":{"ha":971,"x_min":-68,"x_max":1106,"o":"m 219 642 q 153 383 153 497 q 314 96 153 149 q 410 83 361 83 q 510 96 460 83 q 689 175 610 122 q 789 276 768 228 q 908 406 844 406 q 951 369 940 406 q 954 339 957 356 q 894 124 940 231 q 765 -119 849 18 q 1069 -156 932 -121 q 1099 -175 1099 -162 q 1058 -181 1099 -190 q 782 -156 963 -156 q 746 -156 765 -156 q 520 -372 661 -278 q 246 -500 379 -465 q 121 -519 172 -519 q 35 -507 69 -519 q -67 -408 -67 -469 q -57 -369 -67 -390 q 140 -215 -19 -286 q 395 -142 261 -161 q 696 -119 529 -122 q 836 222 799 54 l 842 246 q 691 133 775 182 q 544 64 607 83 q 380 32 444 32 q 267 50 315 32 q 122 172 178 81 q 63 404 63 269 q 133 693 63 539 q 42 894 42 788 q 128 1096 42 1000 q 152 1109 144 1114 q 146 1085 160 1104 q 83 917 83 1001 q 156 735 83 819 q 186 789 164 753 q 481 1061 294 967 q 763 1136 626 1136 q 838 1131 800 1136 q 1079 983 1017 1103 q 1104 881 1104 936 q 1069 764 1104 826 q 797 575 992 629 q 588 546 694 546 q 219 642 363 546 m 794 1093 q 542 1013 675 1093 q 238 678 346 896 q 388 607 303 628 q 525 586 474 586 q 968 743 818 586 q 1043 904 1043 824 q 900 1076 1043 1032 q 794 1093 847 1093 m 4 -418 q 71 -471 4 -457 q 119 -476 93 -476 q 369 -406 218 -476 q 674 -157 561 -318 q 418 -179 528 -161 q 117 -294 260 -203 q 4 -418 4 -367 z "},"H":{"ha":1918,"x_min":6,"x_max":2135,"o":"m 1842 724 q 1876 799 1842 724 q 1961 951 1910 874 q 2058 1044 2013 1028 q 2119 1060 2103 1060 q 2135 1056 2135 1060 q 2117 1042 2135 1051 q 2055 969 2099 1033 q 1944 774 2011 906 q 1828 494 1878 642 q 1935 503 1913 494 q 1963 506 1958 511 q 1950 488 1968 500 q 1815 450 1904 456 q 1793 383 1814 447 q 1724 82 1724 168 q 1741 14 1724 33 q 1778 -6 1758 -6 q 1821 11 1797 -6 q 1994 263 1900 69 q 2016 282 2006 286 q 2015 253 2026 278 q 1930 92 1964 143 q 1853 -3 1896 40 q 1739 -57 1796 -57 q 1650 -4 1675 -57 q 1638 42 1638 21 q 1638 85 1638 63 q 1643 145 1639 108 q 1663 237 1647 182 q 1688 320 1679 292 q 1715 397 1697 349 q 1735 450 1733 446 q 1264 468 1675 450 q 997 15 1179 215 q 790 -150 908 -83 q 457 -237 632 -237 q 293 -216 383 -237 q 122 -134 203 -194 q 8 29 42 -74 q 6 257 -26 132 q 80 376 22 321 q 175 433 138 432 q 192 430 189 433 q 190 422 194 426 q 178 414 185 417 q 92 335 136 396 q 33 147 33 254 q 194 -101 33 -19 q 422 -150 292 -150 q 529 -139 479 -150 q 1192 471 1000 -33 q 1122 455 1156 471 q 1077 439 1088 439 q 1065 447 1067 439 q 1099 492 1065 471 q 1157 517 1132 514 l 1211 517 q 1414 967 1300 739 q 1311 957 1378 963 q 1203 947 1244 951 q 1100 933 1161 943 q 999 910 1039 924 q 909 874 958 897 q 826 819 860 850 q 714 636 747 744 q 700 542 700 592 q 736 444 700 492 q 832 397 772 397 q 1000 533 950 397 q 1024 623 1024 597 q 1015 662 1024 649 q 1019 678 1006 675 q 1036 667 1029 679 q 1053 589 1053 631 q 1025 499 1053 547 q 897 383 978 413 q 819 369 858 369 q 742 386 781 369 q 633 494 668 418 q 611 582 611 540 q 624 677 611 624 q 676 786 638 731 q 774 876 715 842 q 890 932 832 910 q 1028 965 949 954 q 1167 982 1108 976 q 1310 992 1226 988 q 1433 1000 1393 996 q 1480 1065 1449 1026 q 1533 1109 1511 1103 q 1568 1115 1556 1115 q 1619 1072 1619 1115 q 1563 999 1619 1028 q 1456 969 1506 969 q 1349 712 1418 897 q 1276 517 1281 526 q 1545 505 1381 517 q 1747 493 1710 493 q 1842 724 1775 574 m 1550 1072 q 1481 1004 1533 1072 q 1569 1053 1571 1018 q 1554 1071 1568 1068 q 1550 1072 1553 1072 z "},"I":{"ha":1267,"x_min":-26,"x_max":1661,"o":"m 1554 1021 l 1496 1008 q 1325 561 1401 833 q 1244 351 1299 467 q 1115 138 1190 235 q 408 -217 839 -217 q 90 -131 208 -217 q -17 25 10 -71 q -26 114 -26 60 q 2 242 -26 168 q 94 374 31 317 q 196 435 158 432 q 213 431 210 435 q 197 415 217 425 q 101 333 154 397 q 19 114 19 236 q 79 -46 19 21 q 292 -160 154 -129 q 385 -174 353 -174 q 451 -173 417 -174 q 540 -158 485 -172 q 761 -64 656 -129 q 942 77 867 1 q 1081 244 1017 153 q 1244 553 1189 401 q 1453 1001 1342 810 q 1101 900 1232 956 q 894 769 968 842 q 776 560 803 676 q 768 499 768 526 q 800 404 768 440 q 869 368 832 368 q 948 385 906 368 q 1022 440 990 401 q 1067 575 1067 497 q 1056 624 1067 614 q 1058 636 1053 628 q 1085 636 1072 657 q 1103 560 1103 601 q 1076 471 1103 519 q 940 349 1029 382 q 845 332 896 332 q 736 378 794 332 q 678 506 678 424 q 683 560 678 531 q 1475 1038 763 917 q 1520 1103 1488 1064 q 1576 1149 1553 1142 q 1614 1157 1599 1157 q 1661 1118 1660 1157 q 1628 1054 1661 1076 q 1554 1021 1597 1035 m 1519 1043 q 1610 1096 1614 1063 q 1591 1113 1607 1113 q 1519 1043 1575 1113 z "},"J":{"ha":1342,"x_min":-89,"x_max":1764,"o":"m 1651 981 l 1592 969 q 1386 472 1485 785 q 1281 201 1349 354 q 1129 -83 1213 47 q 830 -372 1017 -258 q 489 -506 643 -485 q 328 -515 418 -515 q 142 -483 238 -515 q -64 -319 -8 -433 q -89 -196 -89 -267 q -51 -29 -89 -125 q 42 90 -25 35 q 146 147 108 146 q 163 142 163 149 q 144 128 161 136 q 46 49 100 110 q -26 -74 -8 -12 q -43 -169 -43 -136 q 11 -333 -43 -271 q 104 -408 49 -375 q 224 -454 160 -442 q 374 -472 318 -472 q 472 -461 429 -472 q 655 -392 567 -440 q 811 -285 743 -343 q 947 -143 879 -228 q 1060 11 1014 -58 q 1157 178 1106 81 q 1328 542 1240 336 q 1550 964 1438 786 q 1157 825 1357 932 q 983 688 1056 771 q 890 461 890 582 q 922 360 890 396 q 988 324 953 324 q 1064 339 1022 324 q 1139 392 1106 354 q 1192 532 1192 453 q 1182 576 1192 565 q 1179 597 1165 588 q 1211 588 1194 606 q 1225 516 1225 557 q 1194 422 1225 475 q 1053 303 1143 335 q 974 289 1011 289 q 861 329 911 289 q 797 471 797 382 q 878 686 797 583 q 1022 817 939 765 q 1208 908 1104 868 q 1574 1000 1376 974 q 1624 1065 1590 1028 q 1679 1110 1657 1103 q 1715 1117 1701 1117 q 1764 1075 1764 1117 q 1733 1017 1763 1038 q 1651 981 1704 997 m 1694 1072 q 1688 1071 1692 1072 q 1678 1065 1685 1069 q 1667 1056 1672 1060 q 1653 1043 1661 1051 q 1641 1030 1646 1035 q 1628 1016 1636 1025 q 1617 1004 1619 1007 q 1711 1056 1713 1021 q 1694 1072 1708 1072 z "},"K":{"ha":1589,"x_min":-10,"x_max":2263,"o":"m 1247 211 q 1236 289 1239 258 q 1233 352 1233 319 q 1244 389 1233 385 q 1249 389 1246 389 q 1403 446 1290 389 q 1659 599 1515 503 q 1959 847 1803 696 q 2217 1151 2115 997 q 2247 1178 2235 1178 q 2256 1174 2251 1178 q 2261 1160 2261 1169 q 2251 1133 2261 1150 q 1806 640 2093 871 q 1325 360 1518 408 q 1322 342 1322 356 q 1325 299 1322 329 q 1352 181 1328 268 q 1408 21 1376 94 q 1657 -196 1503 -196 q 1827 -158 1746 -196 q 1944 -50 1908 -121 q 1965 -31 1953 -31 q 1963 -61 1978 -31 q 1831 -197 1925 -137 q 1639 -256 1738 -256 q 1453 -183 1540 -256 q 1247 211 1300 -58 m 1433 1000 q 1480 1065 1449 1026 q 1534 1109 1511 1103 q 1578 1115 1557 1115 q 1611 1097 1600 1115 q 1622 1061 1622 1079 q 1596 1019 1622 1043 q 1456 969 1551 979 q 1274 510 1376 826 q 1173 265 1236 394 q 1038 38 1110 135 q 847 -134 965 -60 q 578 -231 728 -208 q 470 -237 529 -237 q 342 -222 411 -237 q 14 28 88 -164 q -8 144 -8 86 q 8 263 -8 201 q 77 372 24 324 q 165 424 131 419 q 183 415 183 426 q 175 404 183 408 q 94 332 142 389 q 33 146 33 257 q 103 -39 33 32 q 303 -150 188 -128 q 433 -165 382 -165 q 524 -154 485 -165 q 737 -72 638 -128 q 903 48 836 -15 q 1033 199 971 111 q 1130 354 1094 288 q 1256 625 1165 421 q 1414 967 1346 829 q 1294 956 1393 964 q 1011 911 1113 940 q 740 708 821 858 q 701 568 701 636 q 713 497 701 532 q 833 404 743 404 q 993 522 947 404 q 1015 617 1015 579 q 1013 669 1015 654 q 1017 685 1010 685 q 1036 667 1028 682 q 1049 598 1049 638 q 1022 507 1049 558 q 906 392 981 419 q 819 375 860 375 q 694 425 750 375 q 619 599 619 492 q 761 853 619 750 q 1139 976 892 950 q 1310 991 1214 985 q 1433 1000 1407 997 m 1579 1061 q 1567 1076 1579 1076 q 1535 1063 1551 1076 q 1481 1004 1519 1050 q 1542 1021 1521 1010 q 1579 1061 1579 1039 z "},"L":{"ha":989,"x_min":-8,"x_max":1331,"o":"m 1331 1056 q 1252 803 1331 935 q 1035 573 1174 671 q 750 450 897 475 q 628 211 665 279 l 599 164 q 1054 -43 874 96 q 1178 -217 1146 -114 q 1194 -307 1194 -269 q 1180 -370 1194 -344 q 1146 -406 1165 -396 q 1118 -415 1126 -415 q 1110 -408 1110 -415 q 1126 -367 1110 -401 q 1142 -287 1142 -333 q 1122 -186 1142 -242 q 1050 -84 1103 -131 q 903 3 997 -37 q 741 62 810 44 q 557 101 672 79 q 311 -125 439 -64 q 176 -162 235 -162 q 71 -139 117 -162 q -8 -21 -8 -100 q 96 118 -8 58 q 415 188 214 188 q 546 176 488 188 q 692 444 608 274 q 676 444 683 444 q 514 474 589 444 q 394 553 439 503 q 336 700 336 618 q 358 793 336 743 q 453 894 379 843 q 642 972 528 946 q 672 976 660 976 q 688 969 685 976 q 676 957 690 963 q 644 949 663 951 q 533 908 585 942 q 410 733 444 851 q 401 680 401 706 q 411 618 401 654 q 453 544 421 582 q 540 490 485 506 q 635 475 594 475 q 711 479 676 475 l 829 776 q 1121 1163 951 1090 q 1208 1181 1165 1181 q 1288 1153 1250 1181 q 1329 1088 1326 1126 q 1331 1056 1331 1071 m 1272 1054 q 1224 1107 1272 1107 q 1051 983 1153 1107 q 899 745 972 885 q 769 488 826 606 q 1117 699 963 531 q 1272 1054 1272 868 m 503 110 q 363 125 435 125 q 214 104 290 125 q 26 -14 54 63 q 21 -40 21 -28 q 60 -99 21 -76 q 147 -122 100 -122 q 289 -86 213 -122 q 503 110 404 -31 z "},"M":{"ha":1846,"x_min":24,"x_max":2019,"o":"m 599 497 q 508 593 599 593 q 478 591 496 593 q 453 600 460 589 q 489 621 442 615 q 522 624 506 624 q 632 554 603 624 q 644 480 644 525 q 606 367 644 435 q 392 182 538 243 q 291 161 343 161 q 183 188 239 161 q 40 350 81 236 q 25 462 25 394 q 63 632 25 529 q 346 975 149 833 q 740 1128 557 1128 q 949 1003 896 1128 q 972 872 972 949 q 969 821 972 847 q 897 544 956 700 q 888 509 888 518 q 892 500 888 500 q 915 529 899 499 q 1142 865 1018 717 q 1239 944 1182 914 q 1351 978 1301 978 q 1428 942 1400 978 q 1457 846 1457 906 q 1347 378 1457 706 q 1319 294 1325 313 q 1602 683 1432 471 q 1904 933 1772 894 q 1946 940 1928 940 q 2014 888 1999 940 q 2019 846 2019 869 q 1964 664 2019 775 q 1808 301 1850 436 q 1751 58 1751 124 q 1764 -50 1751 -7 q 1896 -136 1789 -136 q 1919 -135 1901 -136 q 1938 -142 1936 -135 q 1928 -154 1940 -149 q 1905 -160 1917 -160 q 1886 -158 1893 -160 q 1667 67 1667 -136 q 1697 234 1667 140 q 1747 378 1726 328 q 1888 693 1781 458 q 1925 826 1925 781 q 1886 872 1925 872 q 1718 761 1832 872 q 1592 619 1660 703 q 1390 324 1524 535 q 1221 28 1257 114 q 1136 -47 1189 -47 q 1092 -21 1099 -47 q 1092 -3 1088 -10 q 1118 43 1096 3 q 1164 128 1140 83 q 1220 249 1188 172 q 1281 404 1253 325 q 1371 807 1347 600 q 1374 866 1374 831 q 1355 922 1374 901 q 1315 943 1336 943 q 1165 840 1247 943 q 972 570 1054 703 q 847 347 890 438 q 745 130 803 257 q 684 -6 688 3 q 674 -26 681 -14 q 664 -50 668 -39 q 586 -90 646 -90 q 549 -68 551 -90 q 550 -58 549 -64 q 753 371 642 83 q 894 901 894 735 q 731 1100 894 1100 q 465 999 625 1100 q 199 739 304 897 q 136 618 157 676 q 100 449 100 511 q 219 213 100 269 q 304 192 261 192 q 550 354 454 192 q 599 497 599 436 z "},"N":{"ha":1443,"x_min":-6,"x_max":1651,"o":"m 588 504 q 494 593 588 593 q 470 592 483 593 q 453 595 457 590 q 456 606 450 600 q 538 622 468 622 q 631 561 608 622 q 640 511 640 538 q 596 375 640 451 q 389 197 521 250 q 238 169 321 169 q 88 226 156 169 q 0 385 21 282 q -4 442 -4 411 q 40 635 -4 525 q 189 847 85 746 q 606 1088 386 1042 q 713 1100 667 1100 q 790 1096 758 1100 q 925 1014 876 1083 q 964 876 964 960 q 947 751 964 801 q 925 684 931 700 q 905 635 919 668 q 886 592 890 601 q 864 542 882 582 q 808 414 806 415 l 851 483 q 1035 733 936 614 q 1364 1022 1218 956 q 1507 1061 1446 1061 q 1609 1031 1568 1061 q 1650 929 1650 1001 q 1604 753 1650 857 q 1470 489 1558 650 q 1321 196 1382 328 q 1260 -39 1260 64 q 1269 -104 1260 -75 q 1344 -168 1289 -168 q 1408 -153 1375 -168 q 1457 -137 1440 -137 q 1474 -156 1474 -137 q 1447 -188 1474 -174 q 1404 -203 1421 -203 q 1182 -10 1182 -203 q 1206 133 1182 61 q 1379 518 1231 206 q 1540 913 1528 831 q 1543 936 1543 925 q 1475 994 1543 994 q 1371 964 1429 994 q 956 565 1153 860 q 690 72 839 392 q 633 -50 636 -44 q 556 -90 614 -90 q 518 -68 521 -90 q 518 -58 517 -64 q 705 306 585 40 q 869 769 825 572 q 883 885 883 835 q 869 972 883 936 q 771 1057 840 1046 q 713 1060 750 1060 q 601 1038 675 1060 q 433 958 526 1017 q 129 618 224 828 q 78 408 78 504 q 90 317 78 360 q 251 196 136 201 q 501 315 394 196 q 588 504 588 411 z "},"O":{"ha":1008,"x_min":68,"x_max":1264,"o":"m 747 33 q 435 -85 593 -85 q 192 39 268 -85 q 138 240 138 129 q 178 460 138 350 q 71 635 81 525 q 68 676 68 656 q 211 956 68 843 q 572 1075 364 1075 q 917 959 781 1075 q 1054 628 1054 843 q 1054 600 1054 614 q 1235 775 1193 692 q 1253 788 1242 790 q 1264 779 1264 786 q 1256 760 1264 772 q 1049 551 1174 631 q 1013 394 1043 486 q 913 205 983 303 q 747 33 842 107 m 972 629 q 822 976 972 864 q 589 1051 722 1051 q 510 1044 550 1051 q 233 904 340 1019 q 143 678 143 804 q 203 517 143 568 q 363 750 257 632 q 606 908 478 879 q 659 913 626 913 q 735 886 692 913 q 745 875 744 881 q 739 867 746 869 q 718 869 732 864 q 672 874 704 874 q 578 840 639 874 q 454 736 517 807 q 274 469 331 596 q 483 429 361 429 q 599 436 538 429 q 969 556 797 463 q 972 629 972 593 m 961 507 q 472 383 729 383 q 253 421 347 383 q 210 226 210 308 q 325 -22 210 35 q 449 -51 388 -51 q 569 -25 511 -51 q 789 149 692 31 q 936 408 886 267 q 961 507 956 464 z "},"P":{"ha":1236,"x_min":-37,"x_max":1488,"o":"m 1339 979 q 1486 768 1486 892 q 1378 560 1486 671 q 1230 447 1315 494 q 1061 379 1144 400 q 800 344 917 344 q 750 346 775 344 q 542 93 649 197 q 196 -54 385 -54 q -26 44 15 -54 q -36 99 -36 68 q -4 167 -36 131 q 136 224 46 224 q 258 203 194 224 q 275 185 282 194 q 239 190 269 179 q 163 201 208 201 q 84 167 118 201 q 50 94 50 133 q 56 64 50 79 q 182 -11 78 -11 q 488 133 338 -11 q 728 508 594 238 q 856 734 779 610 q 1011 947 932 858 q 1036 972 1021 957 q 1085 1025 1065 1006 q 871 1039 985 1039 q 656 1020 757 1039 q 479 976 554 1001 q 327 909 404 950 q 197 806 250 868 q 128 640 128 726 q 165 542 128 588 q 269 493 206 493 q 391 542 332 493 q 475 661 450 590 q 481 674 476 671 q 490 674 486 678 q 494 660 494 669 q 424 517 493 569 q 272 465 356 465 q 118 521 178 465 q 58 664 58 576 q 101 809 58 744 q 204 914 144 874 q 342 986 264 954 q 619 1060 474 1039 q 890 1082 764 1082 q 1122 1060 1015 1082 q 1210 1113 1172 1099 q 1252 1126 1247 1126 q 1258 1125 1257 1126 q 1262 1116 1267 1125 q 1230 1089 1257 1107 q 1178 1046 1203 1071 q 1339 979 1267 1022 m 789 375 q 1009 410 890 375 q 1219 514 1128 446 q 1397 792 1397 649 q 1151 1013 1397 954 q 950 683 1074 904 q 769 375 826 463 q 789 375 779 375 z "},"Q":{"ha":1044,"x_min":39,"x_max":1167,"o":"m 682 872 q 542 819 619 872 q 358 632 439 749 q 236 369 278 515 q 211 222 211 285 q 300 -14 211 61 q 422 -60 356 -60 q 699 44 561 -60 q 853 197 788 113 q 996 601 996 386 q 919 863 996 749 q 647 1042 824 1006 q 540 1054 593 1054 q 439 1047 488 1054 q 211 910 279 1026 q 167 744 167 836 q 182 629 167 690 q 175 600 188 606 q 149 621 163 594 q 114 763 114 690 q 164 911 114 836 q 433 1078 254 1047 q 581 1092 524 1092 q 856 1036 757 1092 q 1050 794 1013 949 q 1069 635 1069 719 q 1041 459 1069 550 q 967 285 1013 368 q 853 128 922 203 q 431 -87 658 -87 q 265 -37 333 -87 q 167 89 197 13 q 133 256 133 174 q 151 408 133 338 q 205 556 169 479 q 289 693 240 632 q 393 806 338 754 q 625 911 496 901 q 640 913 633 913 q 735 886 689 913 q 745 875 744 881 q 739 867 746 869 q 718 868 732 864 q 682 872 704 872 m 594 -436 q 393 -278 488 -375 q 317 -203 353 -237 q 154 -126 235 -126 q 95 -145 125 -126 q 63 -187 65 -164 q 51 -208 61 -210 q 40 -181 40 -208 q 76 -119 40 -154 q 154 -85 111 -85 q 414 -197 274 -85 q 542 -299 475 -247 q 709 -400 610 -351 q 924 -471 808 -449 q 997 -479 964 -479 q 1113 -426 1082 -479 q 1126 -370 1126 -403 q 1096 -293 1126 -337 q 899 -176 1032 -199 q 876 -160 876 -174 q 894 -150 876 -147 q 1131 -274 1057 -176 q 1165 -359 1165 -322 q 1149 -425 1165 -396 q 913 -512 1097 -512 q 594 -436 729 -512 z "},"R":{"ha":1422,"x_min":25,"x_max":1543,"o":"m 1379 11 q 1348 -23 1379 11 q 1235 -57 1317 -57 q 1079 22 1154 -57 q 954 246 1004 100 q 885 507 904 392 q 815 372 840 418 q 742 253 790 325 q 640 122 693 181 q 269 -54 476 -54 q 36 47 82 -54 q 25 102 25 71 q 57 169 25 133 q 199 226 108 226 q 328 203 260 226 q 342 188 346 196 q 306 192 338 179 q 228 204 274 204 q 151 169 183 204 q 118 97 118 135 q 125 61 118 81 q 256 -11 153 -11 q 457 57 369 -11 q 547 136 507 96 q 633 244 588 176 q 756 438 706 349 q 866 634 807 528 q 953 789 925 740 q 1115 1021 1042 940 q 960 1028 1038 1028 q 606 991 782 1028 q 328 869 431 954 q 199 642 199 763 q 240 538 199 583 q 353 493 282 493 q 496 554 439 493 q 556 651 553 615 q 564 669 557 669 q 574 649 575 669 q 519 536 564 582 q 333 456 442 456 q 191 511 251 456 q 131 660 131 567 q 265 906 131 797 q 617 1047 399 1015 q 903 1069 772 1069 q 1146 1054 1035 1069 q 1196 1093 1182 1093 q 1204 1080 1204 1093 q 1197 1047 1204 1067 q 1335 1021 1300 1031 q 1543 832 1543 960 q 1442 669 1543 750 q 1100 536 1314 571 q 972 524 1039 526 q 1126 110 1017 278 q 1195 27 1164 53 q 1263 1 1226 1 q 1369 57 1313 1 q 1499 260 1425 113 q 1521 281 1510 281 q 1522 260 1532 281 q 1379 11 1442 79 m 1443 853 q 1440 875 1443 864 q 1317 986 1425 953 q 1181 1013 1283 996 q 1058 811 1156 969 q 914 560 961 653 q 1003 570 944 565 q 1089 578 1063 575 q 1358 701 1247 597 q 1443 853 1443 779 z "},"S":{"ha":1251,"x_min":-4,"x_max":1300,"o":"m 1250 943 q 1206 1035 1250 992 q 1029 1096 1142 1096 q 811 1053 931 1096 q 703 992 749 1031 q 632 869 632 931 q 736 722 632 788 q 892 645 775 699 q 1064 558 1010 592 q 1177 451 1146 508 q 1208 346 1208 394 q 1163 204 1208 276 q 926 -18 1082 75 q 494 -126 747 -126 q 108 -3 251 -126 q -3 240 -3 92 q 66 449 -3 335 q 235 610 135 563 q 266 615 256 618 q 249 589 276 613 q 153 485 189 542 q 75 219 75 363 q 128 54 75 125 q 456 -89 222 -72 q 534 -92 482 -92 q 676 -73 586 -92 q 849 -11 765 -54 q 1081 233 1028 83 q 1097 319 1097 278 q 1013 486 1097 414 q 826 583 967 522 q 636 675 685 643 q 529 846 529 747 q 625 1014 529 932 q 1014 1131 763 1131 q 1206 1095 1132 1131 q 1297 989 1281 1060 q 1300 961 1300 975 q 1250 864 1300 907 q 1157 819 1215 836 q 1129 825 1132 813 q 1164 847 1126 843 q 1246 914 1231 856 q 1250 943 1250 929 z "},"T":{"ha":1275,"x_min":40,"x_max":1944,"o":"m 1829 814 q 1915 856 1915 814 q 1930 876 1915 876 q 1944 842 1944 876 q 1906 790 1944 808 q 1837 772 1867 772 q 1788 775 1807 772 q 1438 864 1583 801 q 1261 450 1339 708 q 1178 249 1232 357 q 1063 70 1125 140 q 921 -44 1001 0 q 547 -131 763 -131 q 219 -44 372 -131 q 44 217 69 40 q 42 287 42 240 q 69 419 42 333 q 171 550 96 506 q 217 568 201 568 q 239 544 242 568 q 210 522 233 538 q 167 488 188 506 q 125 435 146 471 q 89 297 89 374 q 208 28 89 122 q 351 -53 272 -25 q 510 -81 431 -81 q 517 -81 513 -81 q 989 128 804 -74 q 1308 699 1106 254 q 1397 878 1378 851 q 956 956 1151 956 q 638 838 760 956 q 539 640 539 743 q 638 497 539 528 q 701 488 672 488 q 766 498 729 488 q 837 541 803 508 q 888 606 871 574 q 903 654 906 638 l 903 657 q 922 663 914 667 q 931 646 931 660 q 821 483 917 538 q 713 449 763 449 q 624 463 663 449 q 479 617 510 503 q 469 688 469 653 q 521 850 469 771 q 808 1021 613 992 q 893 1028 853 1028 q 987 1024 933 1028 q 1128 996 1040 1019 q 1309 941 1217 972 q 1419 904 1401 910 q 1521 989 1488 988 q 1540 992 1528 992 q 1558 972 1551 992 q 1549 947 1565 953 q 1531 949 1542 946 q 1497 931 1522 954 q 1458 893 1471 908 q 1688 833 1589 851 q 1829 814 1786 814 z "},"U":{"ha":1308,"x_min":-7,"x_max":1397,"o":"m 1369 669 q 1397 629 1397 656 q 1363 536 1397 597 q 1211 115 1247 329 q 1201 10 1201 57 q 1253 -86 1201 -86 l 1268 -86 q 1293 -97 1293 -86 q 1263 -118 1293 -114 l 1246 -118 q 1175 -69 1200 -110 q 1148 13 1150 -29 q 1146 83 1146 56 q 1164 249 1146 163 q 969 8 1065 86 q 799 -64 879 -64 q 708 -26 740 -64 q 667 99 667 24 q 710 298 667 175 q 824 578 753 421 q 917 821 896 735 q 939 975 939 907 q 885 1108 939 1076 q 738 1143 819 1143 q 422 1046 590 1143 q 86 678 174 900 q 50 508 50 585 q 76 368 50 431 q 279 226 135 226 q 550 399 449 226 q 606 561 606 490 q 511 665 606 665 q 455 658 489 665 q 424 658 421 650 q 465 686 428 669 q 540 703 503 703 q 626 654 597 703 q 646 572 646 619 q 622 461 646 525 q 442 244 569 321 q 261 186 347 186 q 108 238 175 186 q -6 503 -6 325 q 131 853 -6 682 q 425 1092 240 990 q 733 1181 585 1181 q 878 1153 811 1181 q 1013 929 1013 1094 q 933 622 1013 806 q 845 424 888 514 q 775 243 803 335 q 747 89 747 151 q 825 -28 747 -28 q 1021 111 908 -28 l 1058 163 q 1202 419 1114 243 q 1292 596 1290 594 q 1369 669 1333 669 z "},"V":{"ha":1354,"x_min":-12,"x_max":1460,"o":"m 761 -133 q 736 -131 749 -133 q 669 -12 669 -118 q 842 569 669 158 q 940 872 908 725 q 953 963 953 929 q 950 1017 953 997 q 904 1101 943 1078 q 749 1139 835 1139 q 558 1094 658 1139 q 370 986 458 1050 q 210 834 282 922 q 102 649 138 746 q 67 475 67 553 q 72 414 67 443 q 156 271 94 318 q 300 224 217 224 q 519 326 417 224 q 621 544 621 429 q 596 635 621 607 q 544 663 571 663 q 492 655 518 663 q 465 656 465 647 q 497 680 465 665 q 564 694 529 694 q 628 674 599 694 q 682 547 682 632 q 617 377 682 463 q 458 240 553 292 q 272 188 364 188 q 100 255 179 188 q -6 436 21 322 q -12 507 -12 469 q 31 697 -12 594 q 155 888 74 800 q 331 1035 236 976 q 531 1133 425 1094 q 729 1174 636 1174 q 899 1144 822 1174 q 1033 897 1033 1086 q 933 553 1033 758 q 822 278 871 425 q 750 -25 750 60 q 793 -89 750 -89 q 1094 135 879 -89 q 1332 479 1246 292 q 1388 699 1388 599 q 1379 773 1388 751 q 1368 801 1371 794 q 1357 812 1365 807 q 1346 817 1349 817 q 1306 826 1326 822 q 1281 844 1285 829 q 1296 863 1278 860 l 1322 860 q 1433 769 1386 842 q 1460 673 1460 729 q 1433 540 1460 617 q 1236 206 1369 371 q 973 -46 1103 42 q 761 -133 843 -133 z "},"W":{"ha":1867,"x_min":-25,"x_max":1919,"o":"m 1207 65 q 1314 -67 1207 -67 q 1561 51 1414 -67 q 1782 321 1722 179 q 1850 593 1850 481 q 1805 763 1850 706 q 1681 819 1760 819 q 1643 817 1663 819 q 1594 808 1610 808 q 1578 817 1578 808 q 1603 840 1578 829 q 1642 851 1629 851 q 1664 851 1656 851 q 1683 851 1672 851 q 1828 789 1763 851 q 1914 606 1894 726 q 1918 546 1918 576 q 1869 313 1918 443 q 1635 19 1801 140 q 1331 -101 1469 -101 q 1153 32 1186 -101 q 1143 126 1143 67 q 1172 282 1143 186 q 978 11 1097 157 q 844 -118 913 -67 q 722 -172 772 -172 q 624 -53 624 -172 q 806 519 624 88 q 919 932 919 794 q 866 1055 919 1021 q 739 1089 813 1089 q 672 1082 707 1089 q 236 817 426 1032 q 106 609 142 708 q 65 462 69 510 q 60 383 60 414 q 72 311 60 351 q 113 236 83 271 q 264 174 167 174 q 519 342 425 174 q 568 497 568 428 q 467 611 568 611 q 425 607 450 611 q 401 613 400 603 q 439 633 403 622 q 511 644 475 644 q 617 589 583 644 q 638 507 638 554 q 611 397 638 460 q 357 158 540 235 q 267 138 308 138 q 50 235 131 138 q -22 407 -7 301 q -25 450 -25 428 q 20 642 -25 539 q 143 835 65 746 q 313 983 221 924 q 506 1083 404 1043 q 701 1124 611 1124 q 865 1096 792 1124 q 999 872 999 1038 q 906 525 999 736 q 783 218 842 382 q 700 -86 700 -15 q 735 -136 700 -136 q 778 -119 753 -136 q 942 49 853 -75 q 1126 336 1031 172 q 1263 556 1222 500 q 1332 611 1303 611 q 1346 608 1339 611 q 1364 571 1364 599 q 1356 521 1364 543 q 1285 344 1349 499 q 1214 140 1221 189 q 1207 65 1207 90 z "},"X":{"ha":1121,"x_min":-169,"x_max":1533,"o":"m 1501 1135 q 1533 1117 1533 1135 q 1493 1061 1533 1101 q 1353 949 1453 1021 q 1073 754 1253 878 q 778 549 893 631 q 776 399 776 468 q 799 74 776 158 q 906 -43 831 -43 q 1122 128 1010 -43 q 1194 263 1163 189 q 1217 281 1204 283 q 1218 256 1229 279 q 943 -92 1093 -7 q 838 -124 886 -124 q 751 -86 790 -124 q 697 24 713 -49 q 689 201 689 61 q 692 496 689 342 q -65 -235 151 106 q -150 -306 -108 -306 q -169 -290 -169 -306 q -160 -262 -169 -279 l -143 -235 q 690 549 139 156 q 690 701 690 585 q 676 914 690 818 q 553 1024 660 1024 q 272 907 422 1024 q 172 797 196 849 q 157 797 168 793 q 150 842 126 806 q 231 917 163 861 q 408 1034 299 974 q 600 1094 518 1094 q 722 1025 686 1094 q 767 875 761 954 q 776 701 776 764 q 776 625 776 639 q 776 601 776 611 q 1015 765 857 658 q 1257 933 1174 872 q 1400 1054 1340 994 q 1415 1069 1406 1060 q 1430 1083 1425 1078 q 1442 1096 1435 1089 q 1455 1107 1450 1103 q 1466 1117 1460 1111 q 1476 1125 1472 1122 q 1486 1131 1481 1128 q 1501 1135 1497 1135 z "},"Y":{"ha":1332,"x_min":25,"x_max":1558,"o":"m 1365 671 q 1390 629 1390 671 q 1363 469 1390 588 q 1269 150 1336 351 q 1131 -178 1201 -51 q 1205 -175 1151 -176 q 1292 -172 1258 -174 q 1374 -163 1326 -171 q 1453 -142 1422 -156 q 1539 -39 1526 -107 q 1541 -19 1536 -21 q 1549 -24 1546 -17 q 1558 -62 1558 -42 q 1536 -120 1558 -83 q 1449 -184 1514 -157 q 1110 -214 1383 -211 q 941 -390 1043 -314 q 725 -510 839 -467 q 533 -553 611 -553 q 400 -535 454 -553 q 296 -429 296 -500 q 464 -268 296 -337 q 1064 -179 679 -179 q 1254 358 1200 154 q 972 -19 1128 86 q 814 -75 890 -75 q 695 -33 738 -75 q 653 81 653 8 q 858 567 653 232 q 961 778 922 671 q 1006 981 1006 896 q 951 1101 1006 1065 q 818 1138 896 1138 q 753 1131 788 1138 q 301 871 503 1083 q 153 651 200 764 q 104 444 104 531 q 114 378 104 408 q 224 239 142 276 q 310 221 265 221 q 572 393 464 221 q 633 565 633 492 q 547 661 633 661 q 507 656 531 661 q 482 660 483 651 q 514 679 481 671 q 578 688 547 688 q 675 626 650 688 q 686 569 686 600 q 643 428 686 508 q 394 206 558 274 q 303 185 344 185 q 92 282 168 185 q 25 469 25 364 q 76 681 25 575 q 210 875 128 786 q 388 1025 293 964 q 586 1126 482 1086 q 788 1169 696 1169 q 950 1142 879 1169 q 1054 1052 1024 1108 q 1085 933 1085 996 q 969 585 1085 776 q 753 110 790 279 q 747 49 747 81 q 768 -11 747 17 q 829 -39 789 -39 q 953 10 886 -39 q 1111 192 1032 65 q 1310 624 1243 403 q 1335 658 1314 646 q 1365 671 1356 671 m 371 -443 q 376 -465 371 -454 q 510 -512 406 -512 q 710 -478 615 -512 q 896 -376 806 -443 q 1044 -214 986 -308 q 486 -326 681 -214 q 371 -443 371 -393 z "},"Z":{"ha":940,"x_min":14,"x_max":1494,"o":"m 1204 951 q 1414 1056 1336 1056 q 1454 1047 1436 1056 q 1494 994 1494 1031 q 1453 918 1494 958 q 1371 897 1428 897 q 1228 918 1314 897 q 983 622 1160 856 q 833 429 869 471 q 767 358 796 388 q 715 305 738 328 q 661 253 693 282 q 612 208 629 224 q 562 165 594 192 q 519 128 529 138 q 476 93 508 119 q 440 64 443 67 q 969 -131 821 -101 q 1081 -140 1024 -140 q 1197 -131 1138 -140 q 1301 -87 1256 -122 q 1353 -7 1346 -53 q 1375 39 1360 39 q 1388 18 1388 39 q 1385 -24 1388 -3 q 1369 -72 1383 -44 q 1324 -135 1356 -100 q 1222 -194 1292 -171 q 1058 -219 1150 -219 q 804 -154 967 -219 q 524 -22 642 -89 l 406 44 q 165 -56 265 -56 q 128 -51 146 -56 q 22 40 44 -32 q 15 81 15 61 q 49 158 15 122 q 146 194 83 194 q 214 185 176 194 q 413 85 286 165 q 882 639 774 507 q 1178 931 1022 804 q 789 988 971 988 q 597 969 692 988 q 483 914 533 953 q 424 816 424 865 q 486 724 424 767 q 501 696 518 701 q 469 697 485 690 q 418 733 446 703 q 376 839 376 782 q 425 963 376 904 q 522 1028 456 1000 q 726 1064 610 1064 q 883 1045 806 1064 q 999 1015 960 1026 q 1110 981 1039 1004 q 1204 951 1182 958 m 1249 939 q 1367 917 1325 917 q 1431 931 1408 917 q 1454 986 1454 946 q 1445 1013 1454 997 q 1413 1029 1436 1029 q 1249 939 1356 1029 m 86 101 q 78 65 78 86 q 106 17 78 44 q 200 -11 135 -11 q 303 10 250 -11 q 386 58 356 32 q 344 90 358 81 q 177 146 244 146 q 86 101 110 146 z "},"[":{"ha":813,"x_min":53,"x_max":810,"o":"m 228 33 l 328 39 q 386 8 386 39 q 219 -24 386 -24 q 53 39 53 -24 q 194 467 53 199 q 471 892 336 735 q 525 950 504 931 q 656 997 576 997 l 683 997 q 810 947 810 997 q 789 922 810 922 l 775 922 l 672 928 q 607 921 619 928 q 426 717 540 888 q 223 359 311 546 q 135 94 135 172 q 228 33 135 33 z "},"\\":{"ha":1204,"x_min":28,"x_max":1193,"o":"m 96 1057 q 64 1048 85 1057 q 38 1038 43 1039 l 28 1047 q 128 1097 44 1097 q 601 713 314 1097 q 738 527 644 656 q 882 328 831 399 q 1181 -26 1021 139 q 1193 -47 1192 -40 l 1183 -56 q 761 369 1060 -18 q 515 686 639 529 q 278 950 392 843 q 96 1057 165 1057 z "},"]":{"ha":772,"x_min":24,"x_max":761,"o":"m 629 929 l 475 924 l 471 926 q 674 994 489 994 q 719 992 703 994 q 748 974 735 989 q 761 931 761 958 q 643 458 761 732 q 382 40 525 185 q 304 -4 353 11 q 220 -22 256 -19 q 112 -24 185 -24 q 24 -17 39 -24 q 138 38 35 38 l 163 36 q 258 51 204 36 q 349 107 313 65 q 567 481 456 226 q 679 882 679 736 q 675 924 679 903 q 629 929 660 929 z "},"^":{"ha":514,"x_min":164,"x_max":560,"o":"m 560 543 q 536 531 560 531 q 449 578 513 531 q 361 658 385 626 q 172 536 196 540 l 164 546 q 267 639 167 564 q 392 717 368 714 l 400 713 q 553 554 457 633 l 560 543 z "},"_":{"ha":1119,"x_min":11,"x_max":1101,"o":"m 304 -93 l 35 -101 q 17 -87 24 -101 q 11 -61 11 -74 q 35 -35 11 -35 l 1063 -35 q 1089 -47 1078 -35 q 1101 -74 1100 -58 l 1092 -83 q 304 -93 764 -83 z "},"`":{"ha":293,"x_min":13,"x_max":268,"o":"m 268 567 q 254 554 268 554 q 159 600 246 554 q 64 650 72 646 q 13 708 13 675 q 39 742 13 742 q 163 658 57 742 q 268 567 268 575 z "},"a":{"ha":486,"x_min":32,"x_max":589,"o":"m 501 376 q 431 263 476 351 q 376 131 385 175 q 367 60 367 88 q 388 33 367 33 q 453 82 414 33 q 565 267 510 153 q 578 281 571 279 q 589 272 589 285 q 585 256 589 265 q 369 -3 457 -3 q 304 36 329 -3 q 292 92 292 57 q 306 176 292 126 q 114 -3 194 -3 q 74 11 92 -3 q 32 111 32 40 q 150 388 32 247 q 314 489 217 465 q 364 496 340 496 q 472 451 428 496 q 481 422 486 436 q 457 411 475 408 q 390 461 442 461 q 243 367 331 461 q 150 236 193 311 q 96 92 96 146 q 131 38 96 38 q 349 293 214 38 q 393 363 375 344 q 439 382 411 382 q 467 378 444 382 q 501 376 490 374 z "},"b":{"ha":479,"x_min":-37,"x_max":522,"o":"m 428 378 q 363 457 428 457 q 351 457 357 457 q 322 467 326 454 q 335 483 318 479 q 371 485 351 488 q 469 417 443 474 q 488 349 488 382 q 400 114 488 229 q 174 -3 313 -3 q 90 26 122 -3 q 58 104 58 56 q 125 301 58 163 q -22 54 11 86 q -36 63 -36 42 q -33 72 -36 67 q 160 419 15 136 q 364 790 306 703 q 456 858 411 858 q 457 858 456 858 l 464 858 q 488 854 465 858 q 522 853 511 850 q 378 658 476 804 q 133 117 133 296 q 181 33 133 43 q 190 32 185 32 q 298 109 233 32 q 404 285 363 186 q 428 378 428 336 z "},"c":{"ha":361,"x_min":47,"x_max":475,"o":"m 335 319 q 383 418 383 378 q 350 458 383 458 q 201 339 285 458 q 150 240 175 301 q 125 130 125 179 q 145 50 125 81 q 208 19 165 19 q 286 40 250 19 q 355 103 322 60 q 404 176 388 147 q 450 264 421 206 q 467 280 460 283 q 474 270 474 276 q 455 224 474 264 q 417 150 436 185 q 364 72 399 115 q 193 -6 301 -6 q 81 33 115 -6 q 47 121 47 71 q 77 254 47 182 q 146 379 107 326 q 332 489 226 489 q 406 465 383 489 q 429 408 429 440 q 390 328 429 361 q 358 310 371 310 q 335 319 344 310 z "},"d":{"ha":510,"x_min":36,"x_max":767,"o":"m 372 81 q 408 36 372 36 q 582 254 474 36 q 590 271 586 263 q 601 282 593 279 q 611 278 608 285 q 608 258 614 272 q 383 0 497 0 q 324 33 346 0 q 301 99 301 67 q 308 160 301 132 q 169 8 228 26 q 137 1 153 1 q 106 6 121 1 q 38 114 38 24 q 69 249 38 175 q 157 392 100 324 q 294 483 214 460 q 363 493 324 493 q 451 468 403 493 q 613 797 546 646 q 651 856 632 843 q 685 869 669 869 q 705 869 701 869 q 731 866 708 869 q 767 864 754 863 q 597 581 735 835 q 386 147 422 256 q 372 81 372 107 m 440 446 q 390 464 422 464 q 299 415 357 464 q 144 224 206 338 q 104 100 104 149 q 113 60 104 78 q 142 42 122 42 q 258 139 189 42 q 440 446 328 236 z "},"e":{"ha":342,"x_min":42,"x_max":446,"o":"m 140 214 q 121 108 121 167 q 138 47 121 69 q 188 24 156 24 q 417 261 314 24 q 440 281 426 283 q 446 274 446 279 q 415 201 446 268 q 351 92 383 133 q 176 -6 281 -6 q 82 31 121 -6 q 43 129 43 67 q 73 262 43 192 q 154 392 103 332 q 272 481 206 453 q 333 494 304 494 q 388 478 363 494 q 411 435 411 458 q 311 275 411 351 q 225 233 281 251 q 140 214 169 214 m 374 436 q 351 464 374 464 q 233 368 313 464 q 150 238 186 310 q 219 254 174 238 q 297 299 264 271 q 374 436 374 364 z "},"f":{"ha":275,"x_min":-164,"x_max":504,"o":"m -86 -483 q -162 -407 -162 -483 q -19 40 -162 -297 q -36 86 -36 68 q -10 164 -36 144 q 23 181 10 181 q 40 179 36 181 q 325 772 199 536 q 376 846 350 822 q 443 869 403 869 q 471 865 449 869 q 504 863 493 861 q 321 593 439 801 q 97 147 203 385 q 142 43 129 108 l 146 25 q 150 25 149 25 q 229 69 188 25 q 297 159 271 113 q 340 241 324 206 q 361 279 357 276 q 369 281 365 282 q 375 278 372 281 q 378 272 378 276 q 375 261 378 267 q 149 -1 260 -1 q 150 -74 150 -24 q 125 -225 150 -125 q 41 -404 100 -325 q -86 -483 -18 -483 m -87 -407 q -65 -447 -87 -447 q 8 -385 -39 -447 q 87 -216 54 -324 q 119 -21 119 -108 q 119 -7 119 -14 q 107 -7 113 -7 q 39 15 67 -7 q -87 -407 -87 -304 m 108 19 l 117 19 q 83 115 113 79 l 53 46 q 108 19 67 19 z "},"g":{"ha":544,"x_min":-147,"x_max":647,"o":"m -17 -439 q -147 -332 -147 -439 q -26 -172 -147 -243 q 236 -60 76 -112 q 343 -22 310 -36 q 379 208 379 83 q 376 246 379 233 q 269 83 338 167 q 110 6 189 -17 q 38 125 38 36 q 157 388 38 244 q 310 486 222 465 q 357 493 333 493 q 479 451 419 493 q 501 421 501 433 q 493 397 501 408 q 476 394 485 385 q 464 411 467 403 q 406 463 446 463 q 240 360 332 463 q 151 235 189 301 q 106 106 106 151 q 133 46 106 61 q 153 42 143 42 q 233 85 185 42 q 322 197 281 129 q 374 301 363 264 q 401 349 385 339 q 436 360 417 358 q 463 367 456 361 q 474 220 474 304 q 444 29 474 136 q 535 111 508 75 q 578 176 563 147 q 607 234 594 206 q 624 271 619 263 q 638 281 628 279 q 647 272 647 283 q 643 256 647 265 q 541 73 582 129 q 429 -17 500 17 q 333 -204 396 -111 q 174 -368 269 -297 q -17 -439 78 -439 m -118 -358 q -50 -411 -118 -411 q 41 -387 -10 -411 q 125 -339 92 -364 q 250 -203 182 -293 q 329 -62 301 -131 l 281 -79 q -25 -212 64 -154 q -111 -322 -90 -256 q -118 -358 -118 -343 z "},"h":{"ha":461,"x_min":-56,"x_max":564,"o":"m 326 63 q 354 24 326 24 q 539 268 419 24 q 556 283 549 288 q 564 272 564 279 q 548 233 564 265 q 516 170 532 200 q 469 92 500 140 q 333 -6 406 -6 q 258 33 286 -6 q 246 83 246 51 q 260 158 246 114 q 336 303 274 203 q 351 342 351 328 q 328 357 351 357 q 238 294 304 357 q 43 19 138 203 q -8 -1 33 -1 q -56 -10 -46 -4 q 326 756 208 539 q 373 824 353 804 q 421 843 393 843 q 450 840 428 843 q 483 838 472 836 q 334 599 442 794 q 128 203 226 404 q 245 331 193 285 q 372 417 297 376 q 482 458 447 458 q 497 456 490 458 q 326 63 326 156 z "},"i":{"ha":242,"x_min":25,"x_max":343,"o":"m 269 540 q 260 532 269 540 q 226 524 250 524 q 189 540 203 524 q 178 581 175 557 q 201 621 182 604 q 244 638 221 638 q 283 621 268 638 q 293 581 297 604 q 269 540 289 557 m 133 31 q 189 57 160 31 q 319 267 240 108 q 339 279 329 288 q 342 270 342 276 q 331 240 342 264 q 310 196 319 215 q 276 133 301 176 q 229 65 250 89 q 122 0 172 0 q 49 31 71 0 q 26 99 26 61 q 44 181 26 136 l 133 407 q 136 429 136 415 q 119 465 136 443 l 196 467 q 233 455 228 467 q 225 418 239 443 l 114 158 q 90 71 90 107 q 133 31 90 31 z "},"j":{"ha":246,"x_min":-549,"x_max":350,"o":"m 143 407 q 147 429 147 415 q 129 465 147 443 l 206 467 q 243 455 238 467 q 235 418 249 443 l 124 158 q 38 -25 89 76 q 117 7 92 -4 q 177 47 142 18 q 238 115 213 76 q 325 268 264 153 q 342 283 335 288 q 350 272 350 279 q 327 219 350 265 q 281 132 304 172 q 219 50 257 92 q 136 -17 182 8 q 14 -69 90 -42 q -203 -356 -93 -264 q -301 -415 -244 -390 q -420 -439 -358 -439 q -515 -413 -482 -439 q -549 -351 -549 -387 q -528 -269 -549 -315 q -397 -156 -492 -199 q -210 -94 -326 -122 q -60 -56 -93 -65 q -19 17 -25 4 q 82 225 -12 31 q 69 247 60 225 l 143 407 m -501 -301 q -517 -357 -517 -332 q -497 -397 -517 -382 q -450 -411 -478 -411 q -276 -328 -369 -411 q -86 -100 -146 -211 q -374 -186 -317 -161 q -501 -301 -464 -225 m 269 540 q 260 532 269 540 q 226 524 250 524 q 190 539 203 524 q 178 565 178 554 q 180 590 178 576 q 201 621 182 604 q 244 638 221 638 q 281 623 268 638 q 294 597 294 608 q 292 572 294 586 q 269 540 289 557 z "},"k":{"ha":504,"x_min":-37,"x_max":608,"o":"m 436 375 q 399 413 436 413 q 270 349 343 413 q 149 217 197 286 q 115 115 128 176 q 101 31 101 54 q 110 0 101 7 l 22 0 q 12 37 1 0 q 40 117 22 74 q 85 216 58 160 q 125 301 113 272 q -22 54 11 86 q -36 63 -36 42 q -33 72 -36 67 q 160 419 15 136 q 364 790 306 703 q 456 858 411 858 q 457 858 456 858 l 464 858 q 488 854 465 858 q 522 853 511 850 q 381 674 471 814 q 238 430 290 535 q 167 271 185 325 q 393 465 293 428 q 468 481 440 481 q 529 429 529 481 q 522 392 529 413 q 442 297 503 339 q 310 247 382 254 q 293 176 293 208 q 300 117 293 143 q 363 35 317 50 q 382 32 372 32 q 474 81 421 32 q 586 271 517 128 q 601 283 596 289 q 607 271 607 276 q 586 217 607 265 q 528 110 565 168 q 353 -10 449 -10 q 263 24 294 -10 q 217 147 217 71 q 238 226 217 186 q 286 269 258 267 q 294 269 290 269 q 390 307 343 269 q 436 375 436 344 z "},"l":{"ha":294,"x_min":46,"x_max":474,"o":"m 156 268 q 143 230 154 263 q 124 167 132 197 q 117 108 117 138 q 131 52 117 78 q 175 26 144 26 q 272 94 225 26 q 372 265 319 161 q 393 281 383 285 q 396 266 400 275 q 378 227 392 257 q 359 185 365 197 q 337 144 353 174 q 309 99 321 114 q 277 62 297 85 q 239 28 257 39 q 147 -3 190 -3 q 81 16 104 -3 q 52 56 57 35 q 47 94 47 78 q 49 138 47 111 q 66 224 53 182 q 81 271 79 265 q 172 522 113 386 q 272 727 231 658 q 336 821 313 796 q 429 871 383 871 q 472 825 461 871 q 474 804 474 817 q 440 685 474 757 q 156 268 321 419 m 167 313 q 307 494 238 385 q 409 681 376 604 q 442 786 442 758 q 432 814 442 814 q 379 759 418 814 q 274 562 340 704 q 167 313 208 419 z "},"m":{"ha":704,"x_min":-51,"x_max":808,"o":"m 736 456 q 567 67 567 154 q 593 28 567 28 q 669 78 626 28 q 783 268 735 157 q 800 283 792 288 q 808 272 808 279 q 794 238 808 265 q 772 193 781 210 q 735 129 764 176 q 687 60 707 82 q 635 16 667 38 q 565 -6 604 -6 q 497 33 525 -6 q 485 83 485 51 q 499 158 485 114 q 575 303 513 203 q 590 342 590 328 q 567 357 590 357 q 485 301 544 357 q 359 151 425 246 q 281 0 293 57 q 246 19 257 0 q 235 53 235 39 q 311 269 235 110 q 338 341 336 322 q 333 360 339 360 q 315 356 326 361 q 239 294 290 343 q 47 24 142 206 q 30 5 40 8 q -11 0 19 1 q -51 -7 -42 -1 q 36 175 -26 42 q 186 450 149 414 q 232 467 203 467 q 260 463 238 467 q 294 461 283 458 q 126 200 243 433 q 220 306 192 281 q 263 343 249 331 q 284 363 276 356 q 306 383 292 369 q 328 402 321 396 q 350 419 336 408 q 372 434 364 431 q 392 446 379 438 q 412 454 406 454 q 429 458 418 454 q 444 456 440 461 q 472 421 472 444 q 425 314 472 400 q 364 200 378 228 q 481 326 425 276 q 612 417 536 375 q 722 458 688 458 q 736 456 731 458 z "},"n":{"ha":465,"x_min":-54,"x_max":569,"o":"m 499 456 q 328 64 328 156 q 354 28 328 28 q 544 268 425 28 q 561 283 553 288 q 569 272 569 279 q 564 256 569 265 q 440 51 490 107 q 338 -6 389 -6 q 261 33 288 -6 q 247 83 247 51 q 261 158 247 114 q 338 303 275 203 q 353 342 353 328 q 329 357 353 357 q 239 294 306 357 q 46 19 139 203 q 27 2 38 6 q -14 -3 17 -1 q -54 -10 -44 -4 q 33 172 -32 35 q 186 450 150 415 q 232 467 203 467 q 260 463 238 467 q 294 461 283 458 q 126 200 243 433 q 245 328 192 281 q 374 417 299 376 q 483 458 449 458 q 499 456 492 458 z "},"o":{"ha":465,"x_min":39,"x_max":569,"o":"m 332 486 q 433 358 433 486 q 403 233 433 300 q 286 69 364 143 q 351 35 304 35 q 422 72 389 35 q 482 148 464 115 q 508 196 500 181 q 530 240 517 211 q 546 274 543 268 q 556 281 549 281 q 569 271 569 282 q 567 261 569 267 l 558 242 q 546 214 550 222 q 531 184 542 206 q 513 150 521 163 q 492 117 506 138 q 469 83 479 96 q 443 56 458 71 q 414 32 428 40 q 349 11 379 11 q 260 47 292 11 q 142 0 196 0 q 40 128 40 0 q 71 253 40 186 q 188 418 113 350 q 332 486 264 486 m 347 443 q 258 393 310 443 q 167 257 207 343 q 118 93 118 157 q 167 29 118 29 q 244 67 201 29 q 222 135 222 99 q 271 194 225 194 q 301 182 289 194 q 313 159 313 169 q 310 138 313 149 q 364 236 333 172 q 399 375 399 307 q 347 443 399 443 z "},"p":{"ha":467,"x_min":-201,"x_max":497,"o":"m 496 378 q 464 243 496 317 q 376 101 432 169 q 239 8 319 33 q 169 0 208 0 q 82 25 129 0 l -50 -304 q -89 -362 -71 -349 q -124 -376 -107 -376 q -144 -376 -140 -376 q -169 -372 -147 -376 q -201 -369 -190 -368 q -47 -92 -171 -340 q 94 242 78 156 q 65 218 79 219 q 65 234 57 218 q 93 296 74 250 q 118 406 118 356 q 99 465 118 457 q 196 478 182 479 q 213 467 210 478 q 217 442 217 456 q 178 253 217 357 l 206 297 q 278 401 256 378 q 328 450 301 425 q 406 489 368 489 q 426 486 417 489 q 496 378 496 468 m 429 392 q 420 433 429 414 q 392 451 411 451 q 278 361 343 451 q 93 46 214 271 q 143 28 111 28 q 233 76 175 28 q 389 269 326 154 q 429 392 429 344 z "},"q":{"ha":475,"x_min":36,"x_max":508,"o":"m 142 -357 q 124 -307 124 -331 q 169 -179 124 -283 q 278 52 215 -75 q 360 219 342 179 q 263 78 339 182 q 136 1 197 1 q 108 6 122 1 q 38 125 38 36 q 157 388 38 244 q 310 486 222 465 q 357 493 333 493 q 478 451 419 493 q 501 421 501 433 q 496 401 501 408 q 471 399 485 385 q 464 411 467 403 q 407 464 444 464 q 322 431 369 464 q 168 259 231 367 q 106 99 106 151 q 133 46 106 58 q 149 43 140 43 q 354 271 217 43 q 408 345 393 333 q 435 357 422 357 q 451 357 447 357 q 476 353 456 357 q 508 351 497 350 q 313 -46 433 236 q 182 -399 192 -328 q 160 -374 176 -389 q 142 -357 144 -360 z "},"r":{"ha":361,"x_min":-40,"x_max":464,"o":"m 265 557 q 186 439 265 494 q 260 438 214 438 q 378 444 307 438 q 381 422 381 440 q 364 369 381 404 q 334 308 347 333 q 309 259 321 282 q 283 203 297 236 q 258 142 268 169 q 269 36 224 36 q 442 268 328 36 q 458 282 451 286 q 464 272 464 278 q 446 228 464 265 q 407 153 428 192 q 342 63 386 114 q 240 -1 289 -1 q 165 64 186 -1 q 161 101 161 76 q 177 168 161 126 q 228 269 193 210 q 267 340 263 329 q 271 360 271 350 q 160 406 271 403 l 143 361 q -25 54 56 132 q -39 63 -39 42 q -36 72 -39 67 q 99 315 42 175 q 178 582 156 456 q 217 625 186 625 q 261 586 247 625 q 265 557 265 574 z "},"s":{"ha":356,"x_min":-17,"x_max":458,"o":"m 197 26 q 222 24 215 24 q 332 89 278 24 q 436 271 361 125 q 446 278 439 278 q 458 268 458 279 q 452 252 458 265 q 440 226 446 239 q 422 188 435 213 q 401 147 410 163 q 378 110 392 132 q 350 75 364 88 l 321 44 q 265 11 297 21 q 165 8 214 -6 q 108 -6 133 -6 q -11 72 10 -6 q -15 116 -15 90 q 2 165 -15 142 q 39 190 19 189 q 160 433 110 325 q 289 551 215 551 q 327 542 308 551 q 341 522 346 533 q 321 518 336 511 q 294 525 306 525 q 275 521 283 525 q 228 425 228 499 q 239 361 228 386 q 264 307 250 336 q 296 189 296 235 q 267 99 296 143 q 197 26 238 54 m 150 36 q 211 189 211 83 q 201 307 211 232 q 192 408 192 382 q 193 444 192 435 q 63 188 88 233 q 92 146 92 188 q 150 36 92 64 m 46 74 q 47 56 46 65 q 99 18 58 18 q 126 24 115 18 q 71 128 75 56 q 46 74 46 103 z "},"t":{"ha":278,"x_min":44,"x_max":450,"o":"m 44 111 q 156 497 44 226 l 83 497 q 74 505 76 497 q 76 520 72 513 q 86 528 79 528 l 169 528 q 263 711 219 638 q 342 810 306 785 q 394 836 378 836 q 417 833 410 836 q 449 770 449 818 q 417 654 449 722 q 354 528 385 586 l 421 528 q 430 520 428 528 q 428 505 432 513 q 418 497 425 497 l 338 497 q 153 268 261 368 l 121 126 q 117 91 117 108 q 126 56 117 74 q 157 38 136 38 q 210 54 181 38 q 357 264 276 104 q 370 279 363 276 q 379 276 378 282 q 375 256 381 269 q 303 119 329 160 q 143 -1 228 -1 q 72 31 100 -1 q 44 111 44 63 m 324 528 q 415 756 415 692 q 406 783 415 783 q 359 739 390 783 q 254 528 328 694 l 324 528 m 306 497 l 240 497 q 165 313 224 458 q 306 497 240 390 z "},"u":{"ha":496,"x_min":31,"x_max":600,"o":"m 31 81 q 82 225 31 140 q 69 247 60 225 l 94 296 q 172 449 142 386 q 226 478 186 478 l 311 478 q 210 338 261 442 q 132 176 160 235 q 104 86 104 117 q 115 43 104 56 q 143 31 125 31 q 217 86 169 31 q 424 449 290 172 q 478 478 439 478 l 553 478 q 505 429 522 454 q 457 340 488 404 q 364 119 374 174 q 360 83 360 100 q 390 36 360 39 q 575 268 465 36 q 592 283 583 288 q 600 272 600 279 q 588 240 600 265 q 563 192 575 215 q 527 127 551 168 q 482 63 503 86 q 376 1 428 1 q 304 47 324 1 q 296 100 296 68 q 310 179 296 132 q 122 1 208 1 q 35 64 47 1 q 31 81 31 71 z "},"v":{"ha":364,"x_min":49,"x_max":450,"o":"m 449 485 l 442 460 q 311 138 371 239 q 128 -10 224 -10 q 50 65 50 -10 q 92 242 50 122 q 70 227 78 219 q 67 246 63 235 l 92 293 q 118 401 118 347 q 96 465 118 456 q 193 478 179 479 q 210 467 207 478 q 214 442 214 456 q 170 242 214 357 q 126 87 126 126 q 139 41 126 47 q 164 35 151 35 q 246 93 200 35 q 338 265 292 151 q 318 344 318 310 q 326 404 318 378 q 406 503 351 483 q 426 507 417 507 q 449 485 449 507 z "},"w":{"ha":661,"x_min":31,"x_max":699,"o":"m 699 485 l 692 461 q 581 164 631 258 q 383 -3 490 -3 q 315 23 333 -3 q 295 69 297 49 q 293 106 293 90 q 306 188 293 143 q 121 0 203 0 q 65 17 90 0 q 35 64 40 35 q 31 81 31 71 q 82 225 31 140 q 69 247 60 225 l 94 296 q 172 449 163 429 q 226 478 186 478 l 311 478 q 210 338 261 442 q 133 176 160 235 q 106 87 106 118 q 116 42 106 56 q 143 29 126 29 q 183 52 160 29 q 226 101 207 75 q 266 161 246 128 q 303 224 286 194 q 339 294 319 254 q 369 356 358 333 q 414 449 410 436 q 467 478 426 478 l 551 478 q 536 467 549 475 q 496 426 508 449 q 408 258 433 322 q 353 76 353 117 q 390 25 353 26 q 397 25 393 25 q 594 267 497 25 q 575 343 575 308 q 583 406 575 378 q 658 504 607 486 q 676 508 668 508 q 699 485 699 508 z "},"x":{"ha":463,"x_min":-47,"x_max":567,"o":"m 238 285 q 251 393 251 358 q 223 428 250 428 q 160 369 196 428 q 115 288 150 354 q 72 206 81 222 q 57 199 63 190 q 61 228 51 208 q 181 433 142 397 q 251 465 219 465 q 258 465 254 465 q 322 368 322 458 q 314 290 322 335 q 401 422 351 361 q 479 490 450 482 q 499 492 488 492 q 526 483 511 492 q 535 453 540 475 q 515 417 531 431 q 475 404 499 404 q 444 428 451 404 q 358 319 401 388 q 294 186 315 251 q 290 131 290 157 q 294 83 290 106 q 332 35 306 40 q 356 32 342 32 q 392 44 369 32 q 444 97 415 56 q 512 208 489 163 q 538 258 535 253 q 542 267 540 263 q 559 282 553 288 q 565 272 565 276 q 563 261 565 267 q 539 210 561 256 q 508 150 517 165 q 476 98 500 135 q 432 44 451 61 q 324 0 376 0 q 246 40 272 0 q 219 126 219 81 q 221 164 219 154 q 7 -49 111 -49 q -43 -28 -22 -49 q -46 -19 -46 -24 q -44 -10 -46 -15 q -34 -2 -42 -4 q -17 -8 -26 0 q 10 -17 -8 -17 q 51 -6 28 -17 q 151 103 94 15 q 238 285 208 192 z "},"y":{"ha":554,"x_min":-242,"x_max":657,"o":"m -114 -439 q -208 -413 -175 -439 q -242 -351 -242 -387 q -221 -269 -242 -315 q -90 -156 -185 -199 q 97 -94 -19 -122 q 247 -56 214 -65 q 367 257 297 32 q 232 58 286 115 q 122 1 178 1 q 35 64 47 1 q 32 93 29 74 q 35 121 35 113 q 44 148 36 129 q 56 175 53 167 q 82 225 71 207 q 69 247 60 225 l 94 296 q 172 449 142 386 q 226 478 186 478 l 311 478 q 297 467 308 475 q 260 428 272 450 q 135 182 210 342 q 104 86 104 117 q 115 43 104 56 q 143 31 125 31 q 217 86 169 31 q 435 449 315 201 q 489 478 450 478 l 564 478 q 507 415 528 453 q 462 311 486 376 q 401 138 438 246 q 344 -25 364 29 q 544 113 475 14 q 632 265 575 156 q 649 281 642 285 q 657 269 657 276 q 634 216 657 263 q 588 130 611 169 q 526 49 564 90 q 443 -17 489 7 q 321 -69 397 -42 q 106 -356 214 -264 q -114 -439 4 -439 m -194 -301 q -210 -358 -210 -332 q -190 -397 -210 -383 q -142 -411 -171 -411 q 31 -328 -61 -411 q 192 -151 122 -246 l 222 -100 q -67 -186 -7 -160 q -194 -301 -156 -225 z "},"z":{"ha":474,"x_min":-271,"x_max":576,"o":"m -147 -431 q -238 -394 -207 -431 q -269 -321 -269 -358 q -247 -249 -269 -283 q -190 -188 -224 -214 q -124 -145 -156 -162 q -34 -106 -92 -128 q 56 -74 24 -85 q 156 -43 88 -64 q 246 -15 224 -22 q 271 107 271 65 q 231 179 271 179 q 219 178 225 179 q 140 153 153 143 q 135 167 133 158 q 147 178 136 175 q 303 300 242 207 q 321 351 321 328 q 301 397 321 375 q 260 419 282 419 q 144 340 190 419 q 71 201 106 275 q 53 188 63 182 q 54 217 43 194 q 136 375 128 361 q 307 489 199 489 q 381 453 356 489 q 394 395 394 433 q 358 302 394 357 q 258 210 321 247 q 261 210 260 210 q 354 119 351 210 q 339 18 354 67 q 553 267 444 39 q 567 281 558 279 q 576 272 576 285 q 540 192 576 257 q 472 83 504 126 q 331 -17 414 0 q 170 -272 276 -165 q -83 -421 64 -378 q -147 -431 -118 -431 m -212 -293 q -221 -347 -221 -319 q -200 -387 -221 -375 q -161 -400 -179 -400 q -15 -349 -94 -400 q 132 -221 65 -299 q 233 -50 199 -143 q 142 -78 204 -60 q 43 -107 79 -96 q -111 -171 -54 -137 q -212 -293 -186 -214 z "},"{":{"ha":513,"x_min":10,"x_max":601,"o":"m 585 1008 q 600 1002 600 1008 q 593 986 600 996 q 578 976 586 976 q 437 941 476 976 q 377 822 397 906 q 336 648 357 739 q 278 511 315 557 q 93 422 225 446 q 236 347 204 401 q 250 288 250 324 q 244 217 250 253 q 233 150 239 182 q 204 25 224 104 q 196 -56 196 -18 q 214 -115 196 -94 q 339 -151 244 -151 q 349 -166 353 -150 q 335 -182 344 -182 l 328 -182 q 146 -133 192 -182 q 122 -51 122 -107 q 130 44 122 4 q 153 146 138 83 q 173 233 168 208 q 178 294 178 257 q 111 392 178 363 q 21 404 81 404 q 11 412 11 404 q 29 442 11 419 q 189 490 147 454 q 254 631 233 524 q 266 692 257 643 q 282 769 275 740 q 303 840 289 799 q 376 960 328 922 q 579 1008 442 1008 l 585 1008 z "},"|":{"ha":674,"x_min":307,"x_max":367,"o":"m 367 -321 l 307 -321 l 307 1040 l 367 1040 l 367 -321 z "},"}":{"ha":674,"x_min":26,"x_max":672,"o":"m 672 415 q 650 385 672 407 q 485 336 547 385 q 378 106 417 285 q 330 -30 363 40 q 247 -135 297 -100 q 43 -182 179 -182 l 36 -182 q 26 -175 26 -181 q 47 -151 26 -151 q 194 -114 149 -151 q 294 96 254 -67 q 339 224 310 157 q 407 326 368 290 q 588 403 467 379 q 454 478 483 421 q 444 524 444 496 q 449 578 444 553 q 461 638 453 603 q 478 697 469 674 q 514 815 503 778 q 525 885 525 853 q 514 933 525 918 q 389 971 489 971 q 378 978 378 971 q 397 1003 378 985 l 404 1003 q 583 954 547 1003 q 601 900 601 931 q 594 822 601 869 q 561 706 588 775 q 515 521 515 590 q 529 468 515 486 q 663 422 556 433 q 672 415 672 422 z "},"~":{"ha":674,"x_min":219,"x_max":629,"o":"m 500 575 q 411 600 469 575 q 311 629 346 629 q 251 583 276 629 q 226 581 249 574 q 219 586 219 583 q 347 690 278 690 q 438 666 379 690 q 512 641 496 642 q 533 640 528 640 q 600 689 576 640 q 608 693 601 693 q 629 686 626 693 q 500 575 575 575 z "},"":{"ha":360,"x_min":0,"x_max":0,"o":""},"":{"ha":557,"x_min":-61,"x_max":524,"o":"m -8 -414 l -51 -412 l -58 -410 l -61 -401 q 173 -42 -49 -368 q 404 299 394 285 l 418 297 l 417 288 l 64 -385 q -8 -414 49 -414 m 432 450 q 442 458 432 450 q 475 467 451 467 q 511 452 499 467 q 524 426 524 438 q 501 371 524 389 q 456 353 479 353 q 419 367 432 353 q 407 393 407 382 q 410 419 407 404 q 432 450 413 433 z "},"":{"ha":439,"x_min":44,"x_max":469,"o":"m 207 761 q 126 547 126 651 q 203 442 126 442 q 357 544 274 442 q 374 547 368 560 q 374 526 381 535 q 196 418 299 422 q 172 364 193 411 q 85 82 85 158 q 114 31 85 36 q 127 15 133 26 q 114 4 121 4 q 101 6 107 4 q 49 93 49 24 q 131 353 49 168 q 158 418 154 404 q 67 471 93 424 q 46 535 46 506 q 51 605 46 565 q 83 707 57 644 q 144 810 108 769 q 229 882 179 851 q 324 913 279 913 q 328 913 326 913 l 336 913 q 432 1147 392 1050 q 454 1174 443 1174 q 464 1167 458 1174 q 469 1153 469 1161 q 466 1137 469 1146 q 449 1094 463 1128 q 413 1007 435 1061 q 371 906 390 953 q 424 867 404 896 q 443 803 443 839 q 422 741 443 767 q 370 715 400 715 q 322 734 340 715 q 303 781 303 753 q 321 826 303 808 q 364 844 339 844 q 397 836 382 844 q 415 819 413 828 q 408 858 419 842 q 367 879 394 879 q 294 848 340 879 q 207 761 249 817 z "},"":{"ha":796,"x_min":33,"x_max":1136,"o":"m 421 333 l 411 329 q 404 342 404 329 q 408 358 404 356 q 500 378 447 378 q 583 374 553 378 q 1036 815 836 815 q 1106 795 1076 815 q 1136 728 1136 775 q 1082 611 1136 681 q 969 500 1028 542 q 954 493 963 493 q 946 499 946 493 q 954 510 946 504 q 1117 739 1117 644 q 1064 785 1117 785 q 928 729 997 785 q 816 610 860 674 q 747 490 772 547 q 689 360 722 432 q 747 356 719 356 q 794 360 774 356 q 821 367 815 367 q 826 353 826 367 q 822 338 826 339 q 761 326 793 326 q 674 332 729 326 q 388 15 560 114 q 521 -53 431 -15 q 654 -102 611 -92 q 747 -112 697 -112 q 849 -84 796 -112 q 901 4 901 -56 q 907 11 901 11 q 913 1 913 11 l 913 -1 q 851 -97 906 -68 q 731 -125 797 -125 q 606 -112 665 -125 q 447 -64 547 -99 q 314 -10 347 -29 q 199 -37 254 -37 q 89 -11 144 -37 q 33 58 33 15 q 67 123 33 101 q 140 144 100 144 q 223 125 179 144 q 286 92 267 106 q 356 40 306 78 q 445 140 410 85 q 492 213 481 196 q 534 286 503 231 q 568 346 565 342 q 508 349 538 349 q 446 342 478 349 l 421 333 m 145 93 q 125 102 145 93 q 88 111 106 111 q 57 101 69 111 q 44 72 44 90 q 83 7 44 33 q 188 -25 131 -25 q 293 3 244 -25 q 145 93 185 75 z "},"":{"ha":932,"x_min":1,"x_max":908,"o":"m 235 361 q 297 511 235 449 l 153 736 l 367 564 q 495 597 429 597 q 606 564 561 597 l 908 744 l 654 507 q 672 438 672 476 q 610 293 672 363 l 757 65 l 540 242 q 416 208 481 208 q 301 240 351 208 l 1 58 l 251 294 q 235 361 235 326 m 353 298 q 372 278 353 298 q 447 258 392 258 q 549 301 503 258 q 594 403 594 343 q 553 504 594 464 q 458 544 513 544 q 358 503 403 544 q 314 399 314 461 q 353 298 314 338 z "},"":{"ha":1003,"x_min":69,"x_max":1011,"o":"m 230 765 q 207 765 230 765 q 150 715 183 765 q 117 617 117 664 q 153 504 117 569 q 143 494 153 494 q 136 499 140 494 q 100 610 100 547 q 138 728 100 672 q 233 783 175 783 q 378 711 315 783 q 500 385 490 578 l 528 428 q 540 450 528 438 q 561 479 551 463 q 583 516 571 496 q 611 562 594 536 q 645 614 628 588 q 703 691 663 640 q 774 773 743 742 q 846 829 806 804 q 922 854 886 854 q 984 826 957 854 q 1011 767 1011 799 q 1001 735 1011 735 q 990 744 990 735 l 993 761 q 971 813 993 790 q 919 836 949 836 q 614 476 818 836 q 603 457 606 463 l 747 457 q 750 451 750 457 q 741 436 750 446 q 725 426 732 426 l 586 426 l 513 296 l 653 296 q 657 290 657 296 q 647 275 657 285 q 632 265 638 265 l 493 265 q 286 15 374 86 q 96 -61 190 -61 q 69 -52 69 -61 q 89 -43 69 -43 q 283 79 181 -43 q 422 265 356 167 l 107 265 q 103 271 103 265 q 113 286 103 276 q 128 296 122 296 l 443 296 l 450 307 q 440 426 450 356 l 244 426 q 240 431 240 426 q 249 447 240 436 q 265 457 258 457 l 436 457 q 375 644 421 546 q 314 731 351 697 q 230 765 276 765 z "},"":{"ha":674,"x_min":233,"x_max":594,"o":"m 594 1040 l 464 447 l 397 454 l 522 1040 l 594 1040 m 432 300 l 306 -321 l 233 -321 l 367 306 l 432 300 z "},"":{"ha":1311,"x_min":117,"x_max":1300,"o":"m 851 -57 q 885 -158 885 -108 q 856 -258 885 -208 q 658 -407 794 -358 q 414 -447 543 -447 q 210 -412 285 -447 q 119 -306 136 -376 q 117 -278 117 -292 q 167 -181 117 -224 q 260 -136 201 -153 q 288 -142 285 -129 q 253 -164 290 -160 q 171 -231 186 -172 q 167 -260 167 -246 q 211 -351 167 -308 q 388 -412 275 -412 q 606 -369 486 -412 q 714 -308 668 -347 q 785 -186 785 -247 q 681 -39 785 -104 q 524 38 642 -15 q 353 125 407 92 q 240 232 271 175 q 208 338 208 289 q 254 479 208 407 q 490 701 335 608 q 565 739 525 722 q 531 841 531 790 q 561 940 531 892 q 758 1090 622 1042 q 1003 1131 874 1131 q 1206 1095 1132 1131 q 1297 989 1281 1060 q 1300 961 1300 975 q 1250 864 1300 907 q 1157 819 1215 836 q 1129 825 1132 813 q 1164 847 1126 843 q 1246 914 1231 856 q 1250 943 1250 929 q 1206 1035 1250 992 q 1029 1096 1142 1096 q 811 1053 931 1096 q 703 992 749 1031 q 632 869 632 931 q 736 722 632 788 q 892 645 775 699 q 1064 558 1010 592 q 1177 451 1146 508 q 1208 346 1208 394 q 1163 204 1208 276 q 926 -18 1082 75 q 851 -57 883 -44 m 319 364 q 404 197 319 269 q 591 101 450 161 q 767 18 732 40 q 822 -24 801 -4 l 849 -11 q 1081 233 1028 83 q 1097 319 1097 278 q 1013 486 1097 414 q 825 583 967 522 q 594 707 639 663 l 568 694 q 336 450 389 600 q 319 364 319 406 z "},"":{"ha":386,"x_min":53,"x_max":324,"o":"m 277 690 q 287 690 277 690 q 310 678 297 690 q 324 645 324 665 q 311 612 324 625 q 278 599 299 599 q 245 611 258 599 q 232 644 232 624 q 244 677 232 664 q 277 690 257 690 m 98 690 q 108 690 98 690 q 131 678 118 690 q 144 645 144 665 q 132 612 144 625 q 99 599 119 599 q 66 611 79 599 q 53 644 53 624 q 65 677 53 664 q 98 690 78 690 z "},"":{"ha":996,"x_min":33,"x_max":967,"o":"m 94 321 q 189 95 94 193 q 439 -3 283 -3 q 750 114 617 -3 q 904 435 904 250 q 809 663 904 564 q 556 761 714 761 q 249 643 382 761 q 94 321 94 507 m 552 782 q 648 782 552 782 q 855 677 743 782 q 967 436 967 572 q 794 103 967 243 q 449 -22 640 -22 q 145 81 257 -22 q 33 325 33 185 q 204 656 33 517 q 552 782 361 782 m 554 453 q 596 543 596 499 q 568 574 596 574 q 442 474 510 574 q 374 286 374 374 q 391 219 374 246 q 444 193 408 193 q 592 293 525 193 q 608 306 600 304 q 617 299 615 307 q 613 282 618 292 q 432 172 544 172 q 336 206 365 172 q 307 282 307 239 q 332 396 307 333 q 392 504 357 458 q 551 600 463 600 q 615 579 596 600 q 635 528 635 558 q 603 458 635 489 q 574 444 586 444 q 554 453 563 444 z "},"":{"ha":519,"x_min":69,"x_max":350,"o":"m 207 675 q 111 585 151 585 q 83 601 96 585 q 69 643 69 617 q 129 781 69 708 q 236 835 175 835 q 290 813 268 835 q 294 798 297 806 q 283 793 292 790 q 257 818 275 818 q 132 711 199 818 q 101 633 101 660 q 119 606 101 606 q 229 733 160 606 q 256 772 246 765 q 272 778 265 779 q 290 776 279 778 q 306 775 300 774 q 269 719 293 764 q 238 631 238 657 q 247 604 238 604 q 249 604 247 604 q 338 721 278 604 q 347 729 343 733 q 350 722 350 725 q 347 715 350 719 q 239 586 282 586 q 209 601 218 586 q 200 633 200 615 q 207 675 200 650 z "},"":{"ha":626,"x_min":156,"x_max":663,"o":"m 663 413 q 542 308 640 378 q 439 236 443 239 l 438 47 l 431 33 l 421 29 l 410 33 q 377 149 394 61 q 357 249 360 236 q 439 300 363 251 q 653 426 640 426 l 661 422 l 663 413 m 463 413 q 303 281 440 375 q 238 236 240 239 l 236 47 l 229 33 l 219 29 q 208 33 213 29 q 175 155 189 83 q 156 249 161 226 q 238 300 161 251 q 451 426 436 426 l 461 422 l 463 413 z "},"":{"ha":1122,"x_min":99,"x_max":929,"o":"m 821 19 q 801 29 810 19 q 794 50 793 39 l 851 318 l 126 318 q 99 336 99 318 q 114 367 99 349 q 140 385 129 385 l 929 385 l 858 50 q 821 19 854 19 z "},"":{"ha":564,"x_min":204,"x_max":563,"o":"m 204 307 q 228 336 204 336 q 533 331 318 336 q 563 313 557 329 q 539 293 560 296 q 328 281 431 293 q 226 269 226 269 q 211 283 218 269 q 204 307 204 296 z "},"":{"ha":996,"x_min":33,"x_max":967,"o":"m 552 782 q 648 782 552 782 q 855 677 743 782 q 967 436 967 572 q 794 103 967 243 q 449 -22 640 -22 q 145 81 257 -22 q 33 325 33 185 q 204 656 33 517 q 552 782 361 782 m 94 321 q 189 95 94 193 q 439 -3 283 -3 q 750 114 617 -3 q 904 435 904 250 q 809 663 904 564 q 556 761 714 761 q 249 643 382 761 q 94 321 94 507 m 428 239 q 269 174 369 174 q 169 238 169 174 q 203 283 169 267 q 244 292 221 292 q 296 282 268 292 q 301 275 306 278 q 285 277 297 272 q 251 282 272 282 q 218 265 229 282 q 207 234 207 247 q 221 207 207 221 q 267 193 236 193 q 328 208 297 193 q 389 256 360 222 q 466 365 436 311 q 519 461 496 419 q 556 525 543 503 q 624 622 593 589 q 538 625 592 625 q 412 610 485 625 q 296 559 339 594 q 243 483 253 524 q 242 457 242 474 q 259 422 242 440 q 306 403 276 403 q 365 428 340 403 q 391 464 390 453 q 393 475 392 475 q 396 456 399 475 q 375 421 393 436 q 303 388 343 388 q 239 410 264 388 q 214 472 214 433 q 269 575 214 529 q 404 632 325 621 q 538 643 483 643 q 636 636 592 643 q 656 651 651 651 q 657 633 661 651 q 683 628 663 632 q 714 622 704 625 q 808 538 808 594 q 731 449 808 486 q 564 415 658 415 q 628 243 581 314 q 682 199 657 199 q 782 306 735 199 q 792 315 789 317 q 793 306 796 313 q 729 198 751 221 q 668 175 707 175 q 572 238 608 175 q 533 375 544 286 q 531 399 531 397 q 428 239 476 290 m 742 506 q 760 553 760 532 q 744 588 760 575 q 713 605 728 600 q 661 615 697 610 q 561 433 593 501 l 628 440 q 742 506 701 450 z "},"":{"ha":674,"x_min":254,"x_max":568,"o":"m 568 613 l 551 571 l 254 571 l 272 613 l 568 613 z "},"":{"ha":449,"x_min":138,"x_max":315,"o":"m 226 1044 q 244 1044 226 1044 q 289 1018 263 1044 q 315 955 315 992 q 289 892 315 918 q 224 867 263 867 q 162 892 186 867 q 138 955 138 918 q 164 1018 138 992 q 226 1044 190 1044 m 228 888 q 239 888 228 888 q 269 908 250 888 q 289 955 289 929 q 271 999 289 981 q 226 1018 253 1018 q 180 999 199 1018 q 161 949 161 981 q 183 902 161 917 q 228 888 206 888 z "},"":{"ha":636,"x_min":183,"x_max":674,"o":"m 229 404 l 422 400 q 446 499 429 425 q 469 599 463 572 q 500 631 479 631 q 508 600 515 631 q 468 399 500 569 l 649 399 q 669 392 664 399 q 674 379 674 385 q 644 361 674 361 q 460 353 643 361 q 447 286 456 328 q 428 163 429 182 q 394 140 425 147 q 379 139 386 139 q 360 156 360 139 q 410 350 360 163 q 305 344 376 347 q 213 338 233 340 q 197 364 199 336 q 229 404 201 400 m 207 97 l 568 86 q 597 68 592 86 q 597 63 597 65 q 574 49 597 50 q 207 31 361 49 q 206 31 206 31 q 190 44 197 31 q 183 68 183 57 q 207 97 183 97 z "},"":{"ha":440,"x_min":-7,"x_max":454,"o":"m 18 338 q -1 333 6 333 q -7 338 -7 333 q -1 354 -7 343 q 66 408 3 357 q 147 478 129 460 q 368 778 368 674 q 353 815 368 806 q 319 819 339 825 q 247 776 274 807 q 196 692 221 744 q 175 678 188 672 q 167 697 163 685 q 243 814 190 764 q 363 864 296 864 q 428 843 403 864 q 454 788 454 822 q 424 710 454 754 q 336 611 394 667 q 158 456 261 542 l 146 444 q 191 416 161 429 q 242 403 221 403 q 297 422 264 403 q 347 462 331 442 q 370 476 364 482 q 363 447 376 471 q 219 342 281 342 q 79 385 143 342 l 18 338 z "},"":{"ha":414,"x_min":6,"x_max":439,"o":"m 439 804 q 274 644 439 713 q 364 560 364 631 q 278 408 364 478 q 94 338 192 338 q 10 389 29 338 q 6 406 6 399 q 24 407 6 414 q 49 374 31 388 q 89 360 68 360 q 227 430 165 360 q 289 569 289 500 q 277 606 289 592 q 253 621 265 621 q 228 617 240 621 q 203 608 217 614 q 154 608 156 593 q 163 619 153 615 q 289 683 225 632 q 353 799 353 735 q 341 815 353 808 q 317 821 329 821 q 207 754 265 821 q 193 747 200 746 q 189 764 186 747 q 360 867 272 867 q 417 851 394 867 q 439 804 439 836 z "},"":{"ha":371,"x_min":75,"x_max":347,"o":"m 85 574 q 80 576 83 574 q 76 583 76 578 q 79 592 76 588 q 119 624 82 596 q 199 681 156 651 q 261 726 242 711 q 299 740 281 740 q 333 733 318 740 q 347 716 347 726 q 343 697 347 706 q 218 627 336 681 q 85 574 100 574 z "},"":{"ha":450,"x_min":-179,"x_max":574,"o":"m 372 -11 q 319 11 338 -11 q 300 69 300 33 q 314 143 300 104 q 232 39 279 86 q 139 -8 185 -8 q 72 31 93 -8 l -107 -361 q -133 -365 -110 -365 q -174 -357 -156 -365 q -179 -350 -179 -351 l 89 176 q 122 243 99 194 q 158 317 146 292 q 233 447 194 389 l 236 447 q 258 440 246 440 q 325 469 290 440 l 328 467 q 265 369 303 439 q 196 250 226 299 q 114 44 114 103 q 149 7 114 7 q 364 250 228 7 q 471 456 436 378 l 474 456 q 515 446 490 446 q 551 474 540 446 l 556 472 l 447 263 q 351 31 351 85 q 375 3 351 3 q 453 50 410 3 q 563 226 515 121 l 571 226 l 574 224 q 372 -11 468 -11 z "},"":{"ha":560,"x_min":225,"x_max":839,"o":"m 276 556 q 257 618 257 581 q 276 709 257 656 q 344 813 296 763 q 451 886 393 864 q 600 908 510 908 l 839 908 l 814 839 l 786 839 l 479 0 l 386 0 l 693 839 l 625 839 l 318 0 l 225 0 l 410 504 q 276 556 314 504 z "},"":{"ha":363,"x_min":172,"x_max":289,"o":"m 264 282 q 254 274 264 282 q 221 265 244 265 q 185 280 197 265 q 172 306 172 294 q 194 361 172 343 q 240 379 217 379 q 276 365 264 379 q 289 339 289 350 q 286 313 289 328 q 264 282 283 299 z "},"":{"ha":526,"x_min":100,"x_max":453,"o":"m 304 -54 q 326 -54 304 -54 q 400 -81 347 -54 q 453 -162 453 -107 q 381 -265 453 -217 q 287 -289 344 -289 q 165 -273 229 -289 q 100 -225 100 -257 q 107 -215 100 -215 q 129 -231 114 -215 q 256 -265 163 -265 q 382 -215 350 -265 q 401 -153 401 -186 q 369 -100 401 -121 q 302 -79 338 -79 q 233 -96 267 -79 q 194 -112 200 -112 q 179 -106 188 -112 q 171 -92 171 -100 q 178 -78 171 -85 q 232 -35 185 -71 q 285 1 279 1 q 294 -10 290 1 q 275 -22 293 -11 q 233 -58 233 -51 q 304 -54 261 -54 z "},"":{"ha":342,"x_min":44,"x_max":371,"o":"m 293 825 q 335 856 318 854 q 361 857 353 857 q 369 851 369 857 q 368 835 369 844 q 244 594 324 754 q 121 356 164 433 q 68 339 110 339 q 44 347 44 339 l 251 732 q 199 699 238 721 q 144 664 161 676 q 117 656 119 650 q 129 676 115 661 l 151 693 q 293 825 190 722 z "},"":{"ha":379,"x_min":79,"x_max":343,"o":"m 132 593 q 129 593 131 593 q 92 611 104 593 q 81 656 81 629 q 98 726 81 683 q 153 802 115 768 q 225 836 192 836 q 228 836 226 836 q 265 817 253 836 q 276 771 276 799 q 260 703 276 743 q 203 628 243 664 q 228 611 211 611 q 256 616 246 611 q 276 631 267 621 q 292 651 285 642 q 307 674 300 660 q 318 697 314 689 q 333 729 322 704 q 340 733 336 735 q 343 728 343 731 q 342 722 343 725 q 278 618 306 638 q 190 617 222 579 q 132 593 160 593 m 215 661 q 258 772 258 729 q 235 814 258 814 q 190 789 217 814 q 140 715 164 764 q 117 637 117 665 q 142 608 117 608 q 182 625 161 608 q 171 660 171 643 q 195 689 174 689 q 217 669 217 689 q 216 665 217 668 q 215 661 215 663 z "},"":{"ha":626,"x_min":38,"x_max":546,"o":"m 464 219 l 463 311 q 471 421 463 406 l 482 426 l 493 421 q 524 311 503 411 q 546 208 546 211 l 261 31 l 250 29 l 240 32 l 240 44 q 397 172 258 75 q 464 219 453 211 m 344 208 l 60 31 l 50 29 q 39 32 44 29 l 38 38 q 69 76 38 51 q 124 119 101 101 q 172 156 147 138 q 215 187 196 174 q 249 210 235 200 l 263 219 l 264 408 q 267 415 265 410 q 271 421 269 419 l 282 426 l 294 421 q 328 297 315 365 q 344 208 340 229 z "},"":{"ha":864,"x_min":44,"x_max":850,"o":"m 733 472 q 824 504 753 504 q 850 496 842 504 q 589 254 849 476 q 529 194 553 225 l 697 199 q 750 303 714 233 q 803 327 769 324 q 833 317 836 331 q 831 308 833 313 q 778 201 831 299 l 785 201 q 810 193 808 197 q 810 186 811 189 q 806 181 808 183 q 779 167 801 176 l 758 167 l 678 10 q 649 -1 671 3 q 615 -6 628 -6 q 590 -1 603 -6 q 631 77 590 1 q 676 163 671 153 l 472 158 l 478 185 q 557 269 510 224 l 614 329 q 733 472 704 432 m 757 842 q 797 858 771 858 q 824 846 824 858 q 815 830 824 840 q 748 746 807 819 q 642 614 689 672 q 524 467 596 556 q 394 308 453 378 q 278 171 336 239 q 89 -8 121 -8 q 81 -5 85 -8 q 90 13 78 -1 q 449 448 201 139 q 757 842 696 757 m 293 825 q 335 856 318 854 q 361 857 353 857 q 369 851 369 857 q 368 835 369 844 q 244 594 324 754 q 121 356 164 433 q 68 339 110 339 q 44 347 44 339 l 251 732 q 199 699 238 721 q 144 664 161 676 q 117 656 119 650 q 129 676 115 661 l 151 693 q 293 825 190 722 z "},"":{"ha":864,"x_min":39,"x_max":858,"o":"m 715 842 q 744 858 729 858 q 765 857 758 858 q 778 835 790 851 q 706 746 765 819 q 601 614 647 672 q 483 467 554 556 q 353 308 411 378 q 236 171 294 239 q 42 -7 63 -28 q 40 -1 40 -6 q 100 71 40 3 q 407 448 160 139 q 715 842 654 757 m 335 856 q 344 856 335 856 q 360 857 353 857 q 369 855 367 857 q 368 835 372 853 q 244 594 324 754 q 121 356 164 433 q 96 342 115 347 q 60 339 76 338 q 44 347 44 340 l 251 732 q 199 699 238 721 q 144 664 161 676 q 117 656 119 650 q 129 676 115 661 l 151 693 q 293 825 190 722 q 335 856 318 854 m 422 -10 q 403 -14 410 -14 q 397 -9 397 -14 q 403 7 397 -4 q 470 61 407 10 q 551 131 533 113 q 772 431 772 326 q 758 468 772 458 q 722 472 743 478 q 651 428 678 460 q 600 344 625 397 q 579 331 592 325 q 571 350 567 338 q 647 467 594 417 q 767 517 700 517 q 833 496 807 517 q 858 441 858 475 q 828 363 858 407 q 739 264 799 319 q 563 108 665 194 l 550 97 q 595 69 565 82 q 647 56 625 56 q 701 75 668 56 q 751 115 735 94 q 774 129 768 135 q 767 100 781 124 q 624 -6 685 -6 q 483 38 547 -6 l 422 -10 z "},"":{"ha":864,"x_min":6,"x_max":850,"o":"m 733 472 q 824 504 753 504 q 850 496 842 504 q 589 254 849 476 q 529 194 553 225 l 697 199 q 750 303 714 233 q 803 327 769 324 q 833 317 836 331 q 831 308 833 313 q 778 201 831 299 l 785 201 q 810 193 808 197 q 810 186 811 189 q 806 181 808 183 q 779 167 801 176 l 758 167 l 678 10 q 649 -1 671 3 q 615 -6 628 -6 q 590 -1 603 -6 q 631 77 590 1 q 676 163 671 153 l 472 158 l 478 185 q 557 269 510 224 l 614 329 q 733 472 704 432 m 439 804 q 274 644 439 713 q 364 560 364 631 q 278 408 364 478 q 94 338 192 338 q 10 389 29 338 q 6 406 6 399 q 24 407 6 414 q 49 374 31 388 q 89 360 68 360 q 227 430 165 360 q 289 569 289 500 q 277 606 289 592 q 253 621 265 621 q 228 617 240 621 q 203 608 217 614 q 154 608 156 593 q 163 619 153 615 q 289 683 225 632 q 353 799 353 735 q 341 815 353 808 q 317 821 329 821 q 207 754 265 821 q 193 747 200 746 q 189 764 186 747 q 360 867 272 867 q 417 851 394 867 q 439 804 439 836 m 277 171 q 248 137 277 171 q 174 58 218 103 q 112 3 129 14 q 88 -8 94 -8 q 82 -3 82 -8 q 90 13 82 3 q 449 448 201 139 q 757 842 696 757 q 797 858 771 858 q 824 846 824 858 q 815 830 824 840 q 748 746 807 819 q 642 614 689 672 q 524 467 596 556 q 394 308 453 378 q 277 171 336 239 z "},"":{"ha":550,"x_min":8,"x_max":524,"o":"m 158 -204 q 108 -319 108 -268 q 156 -383 108 -361 q 194 -392 176 -392 q 236 -390 213 -392 q 296 -369 260 -387 q 354 -326 332 -351 q 376 -279 376 -300 q 376 -272 376 -275 q 328 -322 369 -299 q 289 -333 304 -333 q 264 -328 274 -333 q 240 -281 240 -315 q 271 -222 240 -246 q 332 -199 301 -199 q 394 -237 379 -199 q 401 -271 401 -251 q 392 -318 401 -290 q 303 -401 372 -361 q 139 -454 213 -454 q 18 -392 54 -454 q 8 -351 8 -374 q 100 -169 8 -274 q 210 -58 132 -133 q 333 79 288 18 q 411 225 379 140 q 428 233 417 238 q 438 215 440 229 q 390 104 426 167 q 329 8 354 42 q 236 -109 304 -26 q 158 -204 168 -192 m 432 450 q 442 458 432 450 q 475 467 451 467 q 511 452 499 467 q 524 426 524 438 q 501 371 524 389 q 456 353 479 353 q 419 367 432 353 q 407 393 407 382 q 410 419 407 404 q 432 450 413 433 z "},"":{"ha":989,"x_min":28,"x_max":1135,"o":"m 878 563 q 908 526 908 563 q 876 451 908 488 q 738 125 778 343 q 729 38 729 79 q 747 -25 729 -3 q 786 -47 764 -47 q 942 61 853 -47 q 1063 258 1021 163 q 1085 278 1074 281 q 1086 253 1096 275 q 957 31 1029 126 q 864 -55 919 -21 q 753 -89 808 -89 q 671 -45 699 -89 q 643 58 643 -1 q 658 176 643 118 q 696 267 672 235 q 397 -3 556 99 q 213 -64 314 -54 q 180 -65 203 -65 q 125 -49 157 -65 q 29 142 29 -8 q 122 461 29 275 q 244 640 176 567 q 114 729 156 682 q 82 811 82 763 q 101 874 82 860 q 126 878 115 892 q 125 850 132 867 q 118 818 118 833 q 153 749 118 785 q 268 668 199 699 q 565 897 400 811 q 910 982 729 982 q 1074 937 1014 982 q 1135 814 1135 892 q 1036 660 1135 736 q 618 560 906 560 q 326 603 458 560 q 235 481 293 572 q 137 290 176 389 q 97 119 97 192 q 99 92 97 104 q 215 -24 115 -24 q 476 99 328 -24 q 801 488 685 274 q 878 563 843 563 m 1081 835 q 1035 919 1081 889 q 914 949 989 949 q 610 863 746 949 q 347 628 474 776 q 615 592 464 592 q 986 675 863 592 q 1081 835 1081 739 m 1042 1019 q 1029 1007 1042 1007 q 939 1049 1019 1007 q 850 1096 858 1092 q 801 1153 801 1118 q 809 1172 801 1164 q 830 1181 817 1181 q 942 1103 843 1181 q 1042 1019 1042 1026 z "},"":{"ha":989,"x_min":28,"x_max":1193,"o":"m 1106 1161 q 1150 1181 1133 1181 q 1180 1174 1167 1181 q 1193 1159 1193 1168 q 1188 1139 1193 1150 q 1077 1080 1182 1128 q 965 1032 972 1032 q 957 1032 957 1032 q 953 1049 947 1038 q 1028 1106 958 1057 q 1106 1161 1099 1154 m 878 563 q 908 526 908 563 q 876 451 908 488 q 738 125 778 343 q 729 38 729 79 q 747 -25 729 -3 q 786 -47 764 -47 q 942 61 853 -47 q 1063 258 1021 163 q 1085 278 1074 281 q 1086 253 1096 275 q 957 31 1029 126 q 864 -55 919 -21 q 753 -89 808 -89 q 671 -45 699 -89 q 643 58 643 -1 q 658 176 643 118 q 696 267 672 235 q 397 -3 556 99 q 213 -64 314 -54 q 180 -65 203 -65 q 125 -49 157 -65 q 29 142 29 -8 q 122 461 29 275 q 244 640 176 567 q 114 729 156 682 q 82 811 82 763 q 101 874 82 860 q 126 878 115 892 q 125 850 132 867 q 118 818 118 833 q 153 749 118 785 q 268 668 199 699 q 565 897 400 811 q 910 982 729 982 q 1074 937 1014 982 q 1135 814 1135 892 q 1036 660 1135 736 q 618 560 906 560 q 326 603 458 560 q 235 481 293 572 q 137 290 176 389 q 97 119 97 192 q 99 92 97 104 q 215 -24 115 -24 q 476 99 328 -24 q 801 488 685 274 q 878 563 843 563 m 1081 835 q 1035 919 1081 889 q 914 949 989 949 q 610 863 746 949 q 347 628 474 776 q 615 592 464 592 q 986 675 863 592 q 1081 835 1081 739 z "},"":{"ha":989,"x_min":28,"x_max":1135,"o":"m 988 1176 q 1026 1181 1014 1181 q 1040 1176 1039 1181 l 1090 1029 q 1082 1021 1094 1021 q 1063 1029 1068 1021 l 999 1128 q 815 1029 833 1039 q 782 1022 801 1017 q 781 1029 775 1025 l 988 1176 m 878 563 q 908 526 908 563 q 876 451 908 488 q 738 125 778 343 q 729 38 729 79 q 747 -25 729 -3 q 786 -47 764 -47 q 942 61 853 -47 q 1063 258 1021 163 q 1085 278 1074 281 q 1086 253 1096 275 q 957 31 1029 126 q 864 -55 919 -21 q 753 -89 808 -89 q 671 -45 699 -89 q 643 58 643 -1 q 658 176 643 118 q 696 267 672 235 q 397 -3 556 99 q 213 -64 314 -54 q 180 -65 203 -65 q 125 -49 157 -65 q 29 142 29 -8 q 122 461 29 275 q 244 640 176 567 q 114 729 156 682 q 82 811 82 763 q 101 874 82 860 q 126 878 115 892 q 125 850 132 867 q 118 818 118 833 q 153 749 118 785 q 268 668 199 699 q 565 897 400 811 q 910 982 729 982 q 1074 937 1014 982 q 1135 814 1135 892 q 1036 660 1135 736 q 618 560 906 560 q 326 603 458 560 q 235 481 293 572 q 137 290 176 389 q 97 119 97 192 q 99 92 97 104 q 215 -24 115 -24 q 476 99 328 -24 q 801 488 685 274 q 878 563 843 563 m 1081 835 q 1035 919 1081 889 q 914 949 989 949 q 610 863 746 949 q 347 628 474 776 q 615 592 464 592 q 986 675 863 592 q 1081 835 1081 739 z "},"":{"ha":989,"x_min":28,"x_max":1206,"o":"m 1076 1063 q 988 1088 1046 1063 q 888 1117 922 1117 q 828 1071 853 1117 q 803 1068 825 1061 q 796 1074 796 1071 q 924 1178 854 1178 q 1014 1153 956 1178 q 1088 1128 1072 1129 q 1110 1128 1104 1128 q 1176 1176 1153 1128 q 1185 1181 1178 1181 q 1206 1174 1203 1181 q 1076 1063 1151 1063 m 878 563 q 908 526 908 563 q 876 451 908 488 q 738 125 778 343 q 729 38 729 79 q 747 -25 729 -3 q 786 -47 764 -47 q 942 61 853 -47 q 1063 258 1021 163 q 1085 278 1074 281 q 1086 253 1096 275 q 957 31 1029 126 q 864 -55 919 -21 q 753 -89 808 -89 q 671 -45 699 -89 q 643 58 643 -1 q 658 176 643 118 q 696 267 672 235 q 397 -3 556 99 q 213 -64 314 -54 q 180 -65 203 -65 q 125 -49 157 -65 q 29 142 29 -8 q 122 461 29 275 q 244 640 176 567 q 114 729 156 682 q 82 811 82 763 q 101 874 82 860 q 126 878 115 892 q 125 850 132 867 q 118 818 118 833 q 153 749 118 785 q 268 668 199 699 q 565 897 400 811 q 910 982 729 982 q 1074 937 1014 982 q 1135 814 1135 892 q 1036 660 1135 736 q 618 560 906 560 q 326 603 458 560 q 235 481 293 572 q 137 290 176 389 q 97 119 97 192 q 99 92 97 104 q 215 -24 115 -24 q 476 99 328 -24 q 801 488 685 274 q 878 563 843 563 m 1081 835 q 1035 919 1081 889 q 914 949 989 949 q 610 863 746 949 q 347 628 474 776 q 615 592 464 592 q 986 675 863 592 q 1081 835 1081 739 z "},"":{"ha":989,"x_min":28,"x_max":1163,"o":"m 1116 1181 q 1126 1181 1116 1181 q 1149 1168 1136 1181 q 1163 1135 1163 1156 q 1150 1102 1163 1115 q 1117 1089 1138 1089 q 1084 1101 1097 1089 q 1071 1134 1071 1114 q 1083 1167 1071 1154 q 1116 1181 1096 1181 m 937 1181 q 947 1181 937 1181 q 970 1168 957 1181 q 983 1135 983 1156 q 971 1102 983 1115 q 938 1089 958 1089 q 905 1101 918 1089 q 892 1134 892 1114 q 904 1167 892 1154 q 937 1181 917 1181 m 878 563 q 908 526 908 563 q 876 451 908 488 q 738 125 778 343 q 729 38 729 79 q 747 -25 729 -3 q 786 -47 764 -47 q 942 61 853 -47 q 1063 258 1021 163 q 1085 278 1074 281 q 1086 253 1096 275 q 957 31 1029 126 q 864 -55 919 -21 q 753 -89 808 -89 q 671 -45 699 -89 q 643 58 643 -1 q 658 176 643 118 q 696 267 672 235 q 397 -3 556 99 q 213 -64 314 -54 q 180 -65 203 -65 q 125 -49 157 -65 q 29 142 29 -8 q 122 461 29 275 q 244 640 176 567 q 114 729 156 682 q 82 811 82 763 q 101 874 82 860 q 126 878 115 892 q 125 850 132 867 q 118 818 118 833 q 153 749 118 785 q 268 668 199 699 q 565 897 400 811 q 910 982 729 982 q 1074 937 1014 982 q 1135 814 1135 892 q 1036 660 1135 736 q 618 560 906 560 q 326 603 458 560 q 235 481 293 572 q 137 290 176 389 q 97 119 97 192 q 99 92 97 104 q 215 -24 115 -24 q 476 99 328 -24 q 801 488 685 274 q 878 563 843 563 m 1081 835 q 1035 919 1081 889 q 914 949 989 949 q 610 863 746 949 q 347 628 474 776 q 615 592 464 592 q 986 675 863 592 q 1081 835 1081 739 z "},"":{"ha":989,"x_min":28,"x_max":1186,"o":"m 1058 1067 q 1064 1060 1058 1067 q 1088 1053 1069 1053 q 1119 1069 1106 1053 q 1135 1107 1132 1085 q 1125 1144 1136 1129 q 1096 1157 1114 1158 q 1064 1141 1078 1156 q 1049 1104 1050 1126 q 1058 1067 1047 1082 m 1103 1179 q 1122 1179 1103 1179 q 1163 1160 1140 1179 q 1185 1109 1185 1140 q 1154 1054 1185 1078 q 1082 1029 1121 1029 q 1022 1049 1043 1029 q 1000 1093 1000 1068 q 1031 1153 1000 1129 q 1103 1179 1067 1179 m 878 563 q 908 526 908 563 q 876 451 908 488 q 738 125 778 343 q 729 38 729 79 q 747 -25 729 -3 q 786 -47 764 -47 q 942 61 853 -47 q 1063 258 1021 163 q 1085 278 1074 281 q 1086 253 1096 275 q 957 31 1029 126 q 864 -55 919 -21 q 753 -89 808 -89 q 671 -45 699 -89 q 643 58 643 -1 q 658 176 643 118 q 696 267 672 235 q 397 -3 556 99 q 213 -64 314 -54 q 180 -65 203 -65 q 125 -49 157 -65 q 29 142 29 -8 q 122 461 29 275 q 244 640 176 567 q 114 729 156 682 q 82 811 82 763 q 101 874 82 860 q 126 878 115 892 q 125 850 132 867 q 118 818 118 833 q 153 749 118 785 q 268 668 199 699 q 565 897 400 811 q 910 982 729 982 q 1074 937 1014 982 q 1135 814 1135 892 q 1036 660 1135 736 q 618 560 906 560 q 326 603 458 560 q 235 481 293 572 q 137 290 176 389 q 97 119 97 192 q 99 92 97 104 q 215 -24 115 -24 q 476 99 328 -24 q 801 488 685 274 q 878 563 843 563 m 1081 835 q 1035 919 1081 889 q 914 949 989 949 q 610 863 746 949 q 347 628 474 776 q 615 592 464 592 q 986 675 863 592 q 1081 835 1081 739 z "},"":{"ha":1907,"x_min":25,"x_max":1878,"o":"m 1342 481 l 1183 482 q 886 386 988 482 q 778 156 778 288 q 942 -87 778 -15 q 1167 -125 1026 -125 q 1467 -65 1308 -125 q 1724 76 1625 -6 q 1831 238 1831 168 q 1790 285 1831 275 q 1747 306 1750 294 q 1763 315 1746 315 q 1801 304 1781 315 q 1878 204 1878 267 q 1774 36 1878 125 q 1499 -105 1669 -51 q 1146 -158 1328 -158 q 746 -24 881 -158 q 669 174 669 53 q 688 258 669 217 q 578 142 639 200 q 478 53 518 83 q 392 -6 439 24 q 211 -65 310 -57 q 180 -67 203 -67 q 125 -49 157 -67 q 25 155 25 -7 q 131 506 25 317 q 253 682 186 606 q 114 778 160 726 q 81 868 81 815 q 101 935 81 921 q 126 942 115 953 q 127 911 135 929 q 119 876 119 893 q 160 793 119 839 q 278 711 200 747 q 956 1074 604 1074 q 1153 1004 1088 1074 q 1369 1091 1257 1065 q 1536 1117 1482 1117 q 1806 1050 1722 1117 q 1861 950 1861 1003 q 1793 827 1861 886 q 1618 744 1725 768 q 1575 739 1592 739 q 1558 749 1558 739 q 1610 771 1558 765 q 1707 822 1663 776 q 1768 919 1751 867 q 1774 963 1774 936 q 1747 1021 1774 989 q 1561 1081 1701 1081 q 1372 1051 1476 1081 q 1183 954 1268 1021 q 1194 897 1194 925 q 1071 713 1194 792 q 1122 638 1082 667 q 1208 596 1161 608 q 1301 574 1256 583 q 1376 548 1347 564 q 1401 506 1404 532 q 1342 481 1396 481 m 1151 547 q 978 667 1029 588 q 648 614 832 614 q 343 653 464 614 q 150 323 203 454 q 97 119 97 192 q 99 92 97 104 q 215 -24 115 -24 q 476 99 328 -24 q 683 310 582 188 q 834 525 785 432 q 922 618 883 618 q 954 578 954 618 q 919 497 954 535 l 913 486 q 1013 524 951 506 q 1151 547 1074 543 m 1115 981 q 969 1038 1071 1038 q 781 1010 867 1038 q 622 928 696 982 q 490 817 547 874 q 365 681 432 760 q 621 647 469 647 q 779 655 688 647 q 963 699 871 663 q 957 733 957 721 q 1115 981 958 874 m 1138 913 q 1068 769 1072 840 l 1067 764 q 1138 913 1138 828 z "},"":{"ha":986,"x_min":83,"x_max":1183,"o":"m 532 -185 q 553 -185 532 -185 q 628 -211 575 -185 q 681 -292 681 -237 q 608 -396 681 -347 q 515 -419 572 -419 q 392 -403 457 -419 q 328 -356 328 -387 q 335 -346 328 -346 q 357 -361 342 -346 q 484 -396 390 -396 q 610 -346 578 -396 q 629 -284 629 -317 q 597 -231 629 -251 q 530 -210 565 -210 q 461 -226 494 -210 q 422 -243 428 -243 q 407 -237 415 -243 q 399 -223 399 -231 q 406 -207 399 -215 q 493 -139 414 -199 q 310 -94 401 -132 q 160 26 219 -56 q 89 206 101 108 q 83 297 83 247 q 96 429 83 347 q 151 607 108 511 q 251 776 193 703 q 228 948 228 869 q 246 1094 228 1026 q 255 1110 249 1106 q 264 1115 261 1115 q 272 1081 278 1115 q 267 984 267 1047 q 285 824 267 921 q 546 1032 396 967 q 788 1082 661 1082 q 863 1078 824 1082 q 1151 914 1076 1054 q 1182 793 1182 856 q 1153 664 1182 731 q 943 467 1092 531 q 733 425 847 425 q 635 432 685 425 q 290 668 386 468 q 222 510 257 621 q 181 339 186 399 q 175 239 175 279 q 181 156 175 199 q 239 17 190 79 q 369 -69 288 -44 q 510 -93 450 -93 q 839 -12 703 -93 q 967 98 921 36 q 1067 268 1014 160 q 1084 281 1075 286 q 1083 254 1093 275 q 985 85 1031 147 q 860 -35 940 22 q 533 -140 704 -140 q 521 -140 528 -140 q 501 -154 518 -143 q 461 -189 461 -181 q 532 -185 489 -185 m 574 961 q 318 713 424 874 q 729 461 417 461 q 1012 560 906 461 q 1118 783 1118 658 q 1010 978 1118 908 q 811 1029 929 1029 q 574 961 693 1029 z "},"":{"ha":1253,"x_min":26,"x_max":1199,"o":"m 1118 1032 q 1106 1022 1118 1022 q 1026 1061 1100 1022 q 946 1103 951 1100 q 901 1151 901 1122 q 924 1181 901 1181 q 1029 1110 940 1181 q 1118 1032 1118 1039 m 682 435 l 533 436 q 247 347 350 436 q 126 108 126 244 q 156 -9 126 44 q 263 -97 186 -62 q 472 -132 340 -132 q 749 -76 603 -132 q 994 57 894 -21 q 1108 213 1108 146 q 1075 252 1108 244 q 1040 269 1042 260 q 1061 281 1038 282 q 1100 271 1085 279 q 1163 185 1163 238 q 1055 22 1163 107 q 783 -112 947 -62 q 476 -162 619 -162 q 244 -135 333 -162 q 39 44 88 -86 q 28 108 28 78 q 39 184 28 139 q 89 288 50 229 q 201 396 128 346 q 359 470 275 446 q 510 497 443 494 q 392 562 439 522 q 344 649 344 601 q 344 657 344 653 q 469 849 354 764 q 710 967 585 935 q 926 1000 836 1000 q 1153 939 1081 1000 q 1199 857 1199 900 q 1128 744 1199 799 q 957 668 1057 690 q 917 663 932 663 q 901 671 901 663 q 946 691 901 686 q 1028 722 990 696 q 1089 786 1067 749 q 1115 867 1115 832 q 1083 931 1115 901 q 942 968 1039 968 q 742 938 846 968 q 551 840 639 908 q 446 661 446 758 q 470 591 446 622 q 541 546 494 560 q 636 522 588 532 q 742 467 742 503 q 682 435 742 435 z "},"":{"ha":1253,"x_min":26,"x_max":1242,"o":"m 1047 1081 q 1063 1093 1047 1081 q 1115 1130 1079 1104 q 1168 1167 1151 1156 q 1201 1179 1185 1179 q 1228 1174 1217 1179 q 1240 1159 1240 1168 q 1235 1140 1240 1150 q 1131 1084 1231 1129 q 1024 1039 1032 1039 q 1017 1039 1017 1039 q 1011 1051 1007 1044 q 1047 1081 1015 1058 m 682 431 l 533 432 q 247 343 350 432 q 126 104 126 240 q 156 -13 126 40 q 263 -101 186 -67 q 472 -136 340 -136 q 749 -81 603 -136 q 994 53 894 -25 q 1108 208 1108 142 q 1075 248 1108 240 q 1040 265 1042 256 q 1061 276 1038 278 q 1100 267 1085 275 q 1163 181 1163 233 q 1055 18 1163 103 q 783 -117 947 -67 q 476 -167 619 -167 q 244 -139 333 -167 q 39 40 88 -90 q 28 104 28 74 q 39 180 28 135 q 89 283 50 225 q 201 392 128 342 q 359 466 275 442 q 510 493 443 490 q 392 563 442 518 q 343 658 343 607 q 343 667 343 663 q 467 865 353 779 q 706 982 582 951 q 919 1013 829 1013 q 1151 949 1078 1013 q 1197 864 1197 908 q 1126 744 1197 801 q 953 664 1054 686 q 912 658 928 658 q 897 667 896 658 q 944 688 903 683 q 1025 722 986 693 q 1114 867 1103 778 q 1114 876 1114 872 q 1081 940 1114 911 q 908 979 1038 979 q 639 911 778 979 q 449 701 472 829 q 446 658 446 686 q 470 597 446 631 q 541 548 494 564 q 636 522 588 532 q 742 463 742 499 q 682 431 742 431 z "},"":{"ha":1253,"x_min":26,"x_max":1199,"o":"m 682 435 l 533 436 q 247 347 350 436 q 126 108 126 244 q 156 -9 126 44 q 263 -97 186 -62 q 472 -132 340 -132 q 749 -76 603 -132 q 994 57 894 -21 q 1108 213 1108 146 q 1075 252 1108 244 q 1040 269 1042 260 q 1061 281 1038 282 q 1100 271 1085 279 q 1163 185 1163 238 q 1055 22 1163 107 q 783 -112 947 -62 q 476 -162 619 -162 q 244 -135 333 -162 q 39 44 88 -86 q 28 108 28 78 q 39 184 28 139 q 89 288 50 229 q 201 396 128 346 q 359 470 275 446 q 510 497 443 494 q 392 562 439 522 q 344 649 344 601 q 344 657 344 653 q 469 849 354 764 q 710 967 585 935 q 926 1000 836 1000 q 1153 939 1081 1000 q 1199 857 1199 900 q 1128 744 1199 799 q 957 668 1057 690 q 917 663 932 663 q 901 671 901 663 q 946 691 901 686 q 1028 722 990 696 q 1089 786 1067 749 q 1115 867 1115 832 q 1083 931 1115 901 q 942 968 1039 968 q 742 938 846 968 q 551 840 639 908 q 446 661 446 758 q 470 591 446 622 q 541 546 494 560 q 636 522 588 532 q 742 467 742 503 q 682 435 742 435 m 1022 1131 q 845 1037 858 1046 q 818 1028 832 1028 q 804 1031 804 1028 q 807 1036 804 1035 l 1011 1176 q 1050 1181 1036 1181 q 1064 1176 1064 1181 l 1113 1036 q 1114 1032 1114 1035 q 1102 1029 1114 1029 q 1085 1036 1090 1029 l 1022 1131 z "},"":{"ha":1253,"x_min":26,"x_max":1199,"o":"m 1103 1181 q 1114 1181 1103 1181 q 1137 1168 1124 1181 q 1150 1135 1150 1156 q 1138 1102 1150 1115 q 1105 1089 1125 1089 q 1072 1101 1085 1089 q 1058 1134 1058 1114 q 1071 1167 1058 1154 q 1103 1181 1083 1181 m 924 1181 q 934 1181 924 1181 q 958 1168 944 1181 q 971 1135 971 1156 q 958 1102 971 1115 q 926 1089 946 1089 q 892 1101 906 1089 q 879 1134 879 1114 q 892 1167 879 1154 q 924 1181 904 1181 m 682 438 l 533 439 q 247 350 350 439 q 126 111 126 247 q 156 -6 126 47 q 263 -94 186 -60 q 472 -129 340 -129 q 749 -74 603 -129 q 994 60 894 -18 q 1108 215 1108 149 q 1075 255 1108 247 q 1040 272 1042 263 q 1061 283 1038 285 q 1100 274 1085 282 q 1163 188 1163 240 q 1055 25 1163 110 q 783 -110 947 -60 q 476 -160 619 -160 q 244 -132 333 -160 q 39 47 88 -83 q 28 111 28 81 q 39 187 28 142 q 89 290 50 232 q 201 399 128 349 q 359 473 275 449 q 510 500 443 497 q 392 565 439 525 q 344 651 344 604 q 344 660 344 656 q 469 852 354 767 q 710 970 585 938 q 926 1003 836 1003 q 1153 942 1081 1003 q 1199 860 1199 903 q 1128 747 1199 801 q 957 671 1057 693 q 917 665 932 665 q 901 674 901 665 q 946 694 901 689 q 1028 725 990 699 q 1089 789 1067 751 q 1115 869 1115 835 q 1083 933 1115 904 q 942 971 1039 971 q 742 941 846 971 q 551 843 639 911 q 446 664 446 761 q 470 594 446 625 q 541 549 494 563 q 636 525 588 535 q 742 469 742 506 q 682 438 742 438 z "},"":{"ha":1258,"x_min":-19,"x_max":1710,"o":"m 1621 978 q 1668 935 1668 978 q 1608 858 1668 881 q 1503 829 1560 839 q 1332 382 1408 654 q 1251 172 1306 288 q 1122 -42 1197 56 q 415 -396 846 -396 q 97 -308 215 -396 q -10 -153 17 -250 q -19 -65 -19 -119 q 9 63 -19 -11 q 101 195 38 138 q 203 256 165 253 q 219 253 217 256 q 204 236 224 246 q 108 156 161 218 q 26 -65 26 57 q 86 -225 26 -158 q 300 -339 161 -308 q 392 -353 360 -353 q 458 -352 424 -353 q 547 -337 492 -351 q 768 -243 663 -308 q 949 -102 874 -178 q 1088 67 1024 -26 q 1251 374 1196 222 q 1460 822 1349 631 q 1108 719 1239 776 q 903 589 975 663 q 783 381 810 497 q 775 319 775 347 q 807 225 775 261 q 876 189 839 189 q 955 206 913 189 q 1028 261 997 222 q 1074 396 1074 318 q 1063 444 1074 435 q 1065 457 1060 449 q 1092 457 1079 478 q 1110 381 1110 422 q 1083 292 1110 340 q 947 169 1036 203 q 852 153 903 153 q 743 199 801 153 q 685 326 685 244 q 690 381 685 351 q 1482 858 769 738 q 1527 924 1494 885 q 1583 970 1560 963 q 1621 978 1606 978 m 1526 864 q 1617 917 1621 883 q 1598 933 1614 933 q 1526 864 1582 933 m 1710 1035 q 1697 1024 1710 1024 q 1617 1063 1692 1024 q 1538 1104 1543 1101 q 1494 1154 1494 1128 q 1517 1181 1494 1181 q 1621 1111 1532 1181 q 1710 1035 1710 1042 z "},"":{"ha":1258,"x_min":-26,"x_max":1661,"o":"m 1554 885 l 1496 872 q 1325 425 1401 697 q 1244 215 1299 331 q 1115 1 1190 99 q 408 -353 839 -353 q 90 -267 208 -353 q -17 -111 10 -207 q -26 -22 -26 -76 q 2 106 -26 32 q 94 238 31 181 q 196 299 158 296 q 213 294 210 299 q 197 279 217 289 q 101 197 154 261 q 19 -22 19 100 q 79 -182 19 -115 q 292 -296 154 -265 q 385 -310 353 -310 q 451 -309 417 -310 q 540 -294 485 -308 q 761 -200 656 -265 q 942 -59 867 -135 q 1081 108 1017 17 q 1244 417 1189 265 q 1453 865 1342 674 q 1101 764 1232 819 q 894 633 968 706 q 776 424 803 540 q 768 363 768 390 q 800 268 768 304 q 869 232 832 232 q 948 249 906 232 q 1022 304 990 265 q 1067 439 1067 361 q 1056 488 1067 478 q 1058 500 1053 492 q 1085 500 1072 521 q 1103 424 1103 465 q 1076 335 1103 383 q 940 213 1029 246 q 845 196 896 196 q 736 242 794 196 q 678 369 678 288 q 683 424 678 394 q 1475 901 763 781 q 1520 967 1488 928 q 1576 1013 1553 1006 q 1614 1021 1599 1021 q 1661 982 1660 1021 q 1628 918 1661 940 q 1554 885 1597 899 m 1519 907 q 1610 960 1614 926 q 1591 976 1607 976 q 1519 907 1575 976 m 1357 1013 q 1352 1015 1356 1013 q 1349 1022 1349 1017 q 1351 1031 1349 1026 q 1391 1063 1354 1035 q 1471 1120 1428 1090 q 1533 1165 1514 1150 q 1572 1179 1553 1179 q 1605 1172 1590 1179 q 1619 1155 1619 1165 q 1615 1136 1619 1144 q 1490 1066 1608 1119 q 1357 1013 1372 1013 z "},"":{"ha":1258,"x_min":-26,"x_max":1721,"o":"m 1554 885 l 1496 872 q 1325 425 1401 697 q 1244 215 1299 331 q 1115 1 1190 99 q 408 -353 839 -353 q 90 -267 208 -353 q -17 -111 10 -207 q -26 -22 -26 -76 q 2 106 -26 32 q 94 238 31 181 q 196 299 158 296 q 213 294 210 299 q 197 279 217 289 q 101 197 154 261 q 19 -22 19 100 q 79 -182 19 -115 q 292 -296 154 -265 q 385 -310 353 -310 q 451 -309 417 -310 q 540 -294 485 -308 q 761 -200 656 -265 q 942 -59 867 -135 q 1081 108 1017 17 q 1244 417 1189 265 q 1453 865 1342 674 q 1101 764 1232 819 q 894 633 968 706 q 776 424 803 540 q 768 363 768 390 q 800 268 768 304 q 869 232 832 232 q 948 249 906 232 q 1022 304 990 265 q 1067 439 1067 361 q 1056 488 1067 478 q 1058 500 1053 492 q 1085 500 1072 521 q 1103 424 1103 465 q 1076 335 1103 383 q 940 213 1029 246 q 845 196 896 196 q 736 242 794 196 q 678 369 678 288 q 683 424 678 394 q 1475 901 763 781 q 1520 967 1488 928 q 1576 1013 1553 1006 q 1614 1021 1599 1021 q 1661 982 1660 1021 q 1628 918 1661 940 q 1554 885 1597 899 m 1519 907 q 1610 960 1614 926 q 1591 976 1607 976 q 1519 907 1575 976 m 1444 1029 q 1421 1021 1435 1021 q 1407 1024 1407 1021 q 1410 1029 1407 1028 l 1617 1176 q 1656 1181 1642 1181 q 1669 1176 1669 1181 l 1719 1029 q 1721 1024 1721 1028 q 1708 1021 1721 1021 q 1692 1029 1696 1021 l 1628 1128 q 1444 1029 1463 1039 z "},"":{"ha":1258,"x_min":-26,"x_max":1760,"o":"m 1554 885 l 1496 872 q 1325 425 1401 697 q 1244 215 1299 331 q 1115 1 1190 99 q 408 -353 839 -353 q 90 -267 208 -353 q -17 -111 10 -207 q -26 -22 -26 -76 q 2 106 -26 32 q 94 238 31 181 q 196 299 158 296 q 213 294 210 299 q 197 279 217 289 q 101 197 154 261 q 19 -22 19 100 q 79 -182 19 -115 q 292 -296 154 -265 q 385 -310 353 -310 q 451 -309 417 -310 q 540 -294 485 -308 q 761 -200 656 -265 q 942 -59 867 -135 q 1081 108 1017 17 q 1244 417 1189 265 q 1453 865 1342 674 q 1101 764 1232 819 q 894 633 968 706 q 776 424 803 540 q 768 363 768 390 q 800 268 768 304 q 869 232 832 232 q 948 249 906 232 q 1022 304 990 265 q 1067 439 1067 361 q 1056 488 1067 478 q 1058 500 1053 492 q 1085 500 1072 521 q 1103 424 1103 465 q 1076 335 1103 383 q 940 213 1029 246 q 845 196 896 196 q 736 242 794 196 q 678 369 678 288 q 683 424 678 394 q 1475 901 763 781 q 1520 967 1488 928 q 1576 1013 1553 1006 q 1614 1021 1599 1021 q 1661 982 1660 1021 q 1628 918 1661 940 q 1554 885 1597 899 m 1519 907 q 1610 960 1614 926 q 1591 976 1607 976 q 1519 907 1575 976 m 1713 1172 q 1723 1172 1713 1172 q 1747 1160 1733 1172 q 1760 1127 1760 1147 q 1747 1094 1760 1107 q 1715 1081 1735 1081 q 1681 1093 1694 1081 q 1668 1126 1668 1106 q 1681 1159 1668 1146 q 1713 1172 1693 1172 m 1534 1172 q 1544 1172 1534 1172 q 1567 1160 1554 1172 q 1581 1127 1581 1147 q 1568 1094 1581 1107 q 1535 1081 1556 1081 q 1502 1093 1515 1081 q 1489 1126 1489 1106 q 1501 1159 1489 1146 q 1534 1172 1514 1172 z "},"":{"ha":1426,"x_min":3,"x_max":1425,"o":"m 964 -53 q 897 -49 931 -53 q 521 50 683 -22 q 235 -54 392 -54 q 14 46 56 -54 q 4 101 4 69 q 36 168 4 132 q 175 225 86 225 q 295 203 235 225 q 510 100 356 182 q 713 389 603 190 l 599 376 q 581 392 589 375 q 576 426 572 408 q 599 443 581 443 q 742 442 678 443 q 847 638 786 529 q 928 775 907 746 q 1038 921 983 858 q 707 1014 882 1014 q 560 999 635 1014 q 232 811 344 953 q 163 647 163 725 q 264 510 163 542 q 326 500 300 500 q 385 508 353 500 q 450 547 418 517 q 515 661 511 608 q 531 670 517 674 q 543 649 546 667 q 436 494 529 547 q 322 464 379 464 l 250 476 q 111 611 144 513 q 97 686 97 649 q 154 838 97 763 q 588 1047 276 1001 q 708 1056 649 1056 q 1076 964 901 1056 l 1111 1004 q 1171 1049 1131 1021 q 1257 1090 1231 1090 q 1263 1081 1268 1090 q 1238 1057 1258 1071 q 1201 1024 1217 1043 l 1136 929 q 1363 676 1285 831 q 1425 407 1425 553 q 1331 114 1425 226 q 1138 -22 1253 19 q 964 -53 1053 -53 m 835 439 l 904 438 q 933 419 928 436 q 910 400 931 403 q 807 397 871 400 q 554 75 658 164 q 896 -11 706 7 q 943 -14 919 -14 q 1193 75 1086 -14 q 1333 329 1317 179 q 1338 397 1338 364 q 1288 638 1338 525 q 1103 876 1225 781 q 960 645 1053 800 q 835 439 867 490 m 474 72 q 268 165 311 150 q 184 181 225 181 q 119 150 143 181 q 94 95 94 119 q 106 49 94 71 q 225 -11 135 -11 q 474 72 358 -11 z "},"":{"ha":1443,"x_min":0,"x_max":1657,"o":"m 593 465 q 500 554 593 554 q 476 553 489 554 q 459 556 463 551 q 461 567 456 561 q 544 583 474 583 q 636 522 614 583 q 646 472 646 499 q 601 336 646 413 q 394 158 526 211 q 244 131 326 131 q 94 187 161 131 q 6 346 26 243 q 1 403 1 372 q 46 597 1 486 q 194 808 90 707 q 611 1049 392 1003 q 718 1061 672 1061 q 796 1057 764 1061 q 931 975 882 1044 q 969 838 969 921 q 953 712 969 763 q 931 645 936 661 q 910 596 925 629 q 892 553 896 563 q 869 503 888 543 q 814 375 811 376 l 857 444 q 1040 694 942 576 q 1369 983 1224 917 q 1513 1022 1451 1022 q 1615 992 1574 1022 q 1656 890 1656 963 q 1610 715 1656 818 q 1476 450 1564 611 q 1326 157 1388 289 q 1265 -78 1265 25 q 1275 -143 1265 -114 q 1350 -207 1294 -207 q 1413 -192 1381 -207 q 1463 -176 1446 -176 q 1479 -194 1479 -176 q 1453 -227 1479 -212 q 1410 -242 1426 -242 q 1188 -49 1188 -242 q 1212 94 1188 22 q 1385 479 1236 167 q 1546 874 1533 792 q 1549 897 1549 886 q 1481 956 1549 956 q 1376 925 1435 956 q 961 526 1158 821 q 696 33 844 353 q 639 -89 642 -83 q 561 -129 619 -129 q 524 -107 526 -129 q 524 -97 522 -103 q 710 267 590 1 q 875 731 831 533 q 889 847 889 796 q 875 933 889 897 q 776 1018 846 1007 q 718 1021 756 1021 q 606 999 681 1021 q 439 919 532 978 q 135 579 229 789 q 83 369 83 465 q 96 278 83 321 q 257 157 142 163 q 507 276 400 157 q 593 465 593 372 m 1600 1176 q 1613 1181 1603 1181 q 1624 1175 1624 1181 q 1517 1082 1624 1082 q 1442 1103 1490 1082 q 1360 1126 1390 1126 q 1311 1089 1331 1126 q 1289 1088 1308 1081 q 1285 1092 1286 1090 q 1392 1178 1333 1178 q 1464 1158 1415 1178 q 1549 1136 1518 1136 q 1600 1176 1581 1136 z "},"":{"ha":1089,"x_min":50,"x_max":1246,"o":"m 1017 1025 q 1004 1013 1017 1013 q 919 1053 996 1013 q 833 1099 842 1094 q 788 1151 788 1122 q 811 1181 788 1181 q 922 1106 828 1181 q 1017 1025 1017 1032 m 728 7 q 417 -111 575 -111 q 175 13 250 -111 q 119 213 119 103 q 160 433 119 324 q 53 608 63 499 q 50 650 50 629 q 193 929 50 817 q 554 1049 346 1049 q 899 933 763 1049 q 1036 601 1036 817 q 1036 574 1036 588 q 1217 749 1175 665 q 1235 762 1224 764 q 1246 753 1246 760 q 1238 733 1246 746 q 1031 525 1156 604 q 995 368 1025 460 q 894 178 965 276 q 728 7 824 81 m 954 603 q 804 950 954 838 q 571 1025 704 1025 q 492 1018 532 1025 q 215 878 322 993 q 125 651 125 778 q 185 490 125 542 q 344 724 239 606 q 589 882 460 853 q 641 886 608 886 q 717 860 674 886 q 727 849 726 854 q 721 840 728 843 q 700 842 714 838 q 653 847 686 847 q 560 814 621 847 q 436 710 499 781 q 256 443 313 569 q 465 403 343 403 q 581 411 519 403 q 951 529 779 436 q 954 603 954 567 m 943 481 q 454 357 711 357 q 235 394 329 357 q 192 200 192 282 q 307 -49 192 8 q 431 -78 369 -78 q 553 -50 493 -78 q 771 122 674 4 q 918 382 868 240 q 943 481 938 438 z "},"":{"ha":1089,"x_min":50,"x_max":1246,"o":"m 728 7 q 417 -111 575 -111 q 175 13 250 -111 q 119 213 119 103 q 160 433 119 324 q 53 608 63 499 q 50 650 50 629 q 193 929 50 817 q 554 1049 346 1049 q 899 933 763 1049 q 1036 601 1036 817 q 1036 574 1036 588 q 1217 749 1175 665 q 1235 762 1224 764 q 1246 753 1246 760 q 1238 733 1246 746 q 1031 525 1156 604 q 995 368 1025 460 q 894 178 965 276 q 728 7 824 81 m 954 603 q 804 950 954 838 q 571 1025 704 1025 q 492 1018 532 1025 q 215 878 322 993 q 125 651 125 778 q 185 490 125 542 q 344 724 239 606 q 589 882 460 853 q 641 886 608 886 q 717 860 674 886 q 727 849 726 854 q 721 840 728 843 q 700 842 714 838 q 653 847 686 847 q 560 814 621 847 q 436 710 499 781 q 256 443 313 569 q 465 403 343 403 q 581 411 519 403 q 951 529 779 436 q 954 603 954 567 m 943 481 q 454 357 711 357 q 235 394 329 357 q 192 200 192 282 q 307 -49 192 8 q 431 -78 369 -78 q 553 -50 493 -78 q 771 122 674 4 q 918 382 868 240 q 943 481 938 438 m 840 1013 q 835 1015 839 1013 q 832 1022 832 1017 q 835 1031 832 1026 q 874 1063 838 1035 q 954 1120 911 1090 q 1017 1165 997 1150 q 1055 1179 1036 1179 q 1088 1172 1074 1179 q 1103 1155 1103 1165 q 1099 1136 1103 1144 q 974 1066 1092 1119 q 840 1013 856 1013 z "},"":{"ha":1089,"x_min":50,"x_max":1246,"o":"m 882 1178 q 914 1181 903 1181 q 925 1178 925 1181 l 967 1056 q 961 1050 969 1050 q 943 1056 949 1050 l 890 1138 q 739 1056 754 1064 q 713 1050 728 1046 q 711 1056 710 1053 l 882 1178 m 728 7 q 417 -111 575 -111 q 175 13 250 -111 q 119 213 119 103 q 160 433 119 324 q 53 608 63 499 q 50 650 50 629 q 193 929 50 817 q 554 1049 346 1049 q 899 933 763 1049 q 1036 601 1036 817 q 1036 574 1036 588 q 1217 749 1175 665 q 1235 762 1224 764 q 1246 753 1246 760 q 1238 733 1246 746 q 1031 525 1156 604 q 995 368 1025 460 q 894 178 965 276 q 728 7 824 81 m 954 603 q 804 950 954 838 q 571 1025 704 1025 q 492 1018 532 1025 q 215 878 322 993 q 125 651 125 778 q 185 490 125 542 q 344 724 239 606 q 589 882 460 853 q 641 886 608 886 q 717 860 674 886 q 727 849 726 854 q 721 840 728 843 q 700 842 714 838 q 653 847 686 847 q 560 814 621 847 q 436 710 499 781 q 256 443 313 569 q 465 403 343 403 q 581 411 519 403 q 951 529 779 436 q 954 603 954 567 m 943 481 q 454 357 711 357 q 235 394 329 357 q 192 200 192 282 q 307 -49 192 8 q 431 -78 369 -78 q 553 -50 493 -78 q 771 122 674 4 q 918 382 868 240 q 943 481 938 438 z "},"":{"ha":1089,"x_min":50,"x_max":1246,"o":"m 728 7 q 417 -111 575 -111 q 175 13 250 -111 q 119 213 119 103 q 160 433 119 324 q 53 608 63 499 q 50 650 50 629 q 193 929 50 817 q 554 1049 346 1049 q 899 933 763 1049 q 1036 601 1036 817 q 1036 574 1036 588 q 1217 749 1175 665 q 1235 762 1224 764 q 1246 753 1246 760 q 1238 733 1246 746 q 1031 525 1156 604 q 995 368 1025 460 q 894 178 965 276 q 728 7 824 81 m 954 603 q 804 950 954 838 q 571 1025 704 1025 q 492 1018 532 1025 q 215 878 322 993 q 125 651 125 778 q 185 490 125 542 q 344 724 239 606 q 589 882 460 853 q 641 886 608 886 q 717 860 674 886 q 727 849 726 854 q 721 840 728 843 q 700 842 714 838 q 653 847 686 847 q 560 814 621 847 q 436 710 499 781 q 256 443 313 569 q 465 403 343 403 q 581 411 519 403 q 951 529 779 436 q 954 603 954 567 m 943 481 q 454 357 711 357 q 235 394 329 357 q 192 200 192 282 q 307 -49 192 8 q 431 -78 369 -78 q 553 -50 493 -78 q 771 122 674 4 q 918 382 868 240 q 943 481 938 438 m 608 1090 q 601 1086 608 1086 q 590 1086 594 1086 q 582 1093 582 1089 q 686 1178 629 1178 q 705 1177 690 1178 q 765 1158 719 1176 q 824 1138 811 1139 q 842 1138 838 1138 q 896 1178 876 1138 q 903 1182 897 1182 q 917 1178 908 1182 l 919 1175 q 814 1083 878 1083 q 739 1104 788 1083 q 658 1128 688 1128 q 608 1090 629 1128 z "},"":{"ha":1089,"x_min":50,"x_max":1246,"o":"m 934 1181 q 944 1181 934 1181 q 967 1168 954 1181 q 981 1135 981 1156 q 968 1102 981 1115 q 935 1089 956 1089 q 902 1101 915 1089 q 889 1134 889 1114 q 901 1167 889 1154 q 934 1181 914 1181 m 755 1181 q 765 1181 755 1181 q 788 1168 775 1181 q 801 1135 801 1156 q 789 1102 801 1115 q 756 1089 776 1089 q 723 1101 736 1089 q 710 1134 710 1114 q 722 1167 710 1154 q 755 1181 735 1181 m 728 7 q 417 -111 575 -111 q 175 13 250 -111 q 119 213 119 103 q 160 433 119 324 q 53 608 63 499 q 50 650 50 629 q 193 929 50 817 q 554 1049 346 1049 q 899 933 763 1049 q 1036 601 1036 817 q 1036 574 1036 588 q 1217 749 1175 665 q 1235 762 1224 764 q 1246 753 1246 760 q 1238 733 1246 746 q 1031 525 1156 604 q 995 368 1025 460 q 894 178 965 276 q 728 7 824 81 m 954 603 q 804 950 954 838 q 571 1025 704 1025 q 492 1018 532 1025 q 215 878 322 993 q 125 651 125 778 q 185 490 125 542 q 344 724 239 606 q 589 882 460 853 q 641 886 608 886 q 717 860 674 886 q 727 849 726 854 q 721 840 728 843 q 700 842 714 838 q 653 847 686 847 q 560 814 621 847 q 436 710 499 781 q 256 443 313 569 q 465 403 343 403 q 581 411 519 403 q 951 529 779 436 q 954 603 954 567 m 943 481 q 454 357 711 357 q 235 394 329 357 q 192 200 192 282 q 307 -49 192 8 q 431 -78 369 -78 q 553 -50 493 -78 q 771 122 674 4 q 918 382 868 240 q 943 481 938 438 z "},"":{"ha":422,"x_min":115,"x_max":361,"o":"m 361 396 l 258 285 l 318 168 q 306 153 317 164 q 292 140 296 142 l 233 258 l 131 147 q 122 160 128 149 q 115 176 115 172 l 218 288 l 158 404 q 170 419 160 408 q 185 432 181 431 l 243 314 l 346 425 q 356 413 350 425 q 361 396 361 401 z "},"":{"ha":1071,"x_min":68,"x_max":1264,"o":"m 849 1008 l 915 1126 l 963 1104 l 892 979 q 1054 626 1054 858 q 1054 600 1054 614 q 1235 775 1193 692 q 1253 788 1242 790 q 1264 779 1264 786 q 1256 760 1264 772 q 1049 551 1174 631 q 1013 394 1043 486 q 913 205 983 303 q 747 33 842 107 q 542 -71 651 -40 q 435 -85 490 -85 q 321 -67 381 -85 l 304 -60 l 246 -164 l 201 -144 l 261 -36 q 144 164 171 29 q 138 250 138 206 q 178 460 138 349 q 71 635 81 525 q 68 675 68 656 q 112 842 68 760 q 242 978 156 924 q 565 1076 400 1076 q 849 1008 731 1076 m 828 971 q 579 1051 724 1051 q 292 956 432 1051 q 178 826 214 903 q 143 676 143 749 q 203 517 143 568 q 363 750 257 632 q 606 908 478 879 q 659 913 626 913 q 735 886 692 913 q 745 875 744 881 q 739 867 746 869 q 718 869 732 864 q 672 874 704 874 q 578 840 639 874 q 454 736 517 807 q 274 469 331 596 q 485 428 357 428 q 524 429 504 428 l 828 971 m 325 -22 q 449 -51 388 -51 q 569 -24 510 -51 q 789 150 692 32 q 936 408 886 268 q 961 507 956 464 q 557 388 769 406 l 325 -22 m 972 625 q 867 935 972 824 l 583 435 q 969 556 786 457 q 972 625 972 592 m 211 211 q 285 4 211 71 l 497 383 q 472 383 485 383 q 253 421 346 383 q 211 211 211 319 z "},"":{"ha":1308,"x_min":-7,"x_max":1397,"o":"m 1369 669 q 1397 629 1397 656 q 1363 536 1397 597 q 1211 115 1247 329 q 1201 10 1201 57 q 1253 -86 1201 -86 l 1268 -86 q 1293 -97 1293 -86 q 1263 -118 1293 -114 l 1246 -118 q 1175 -69 1200 -110 q 1148 13 1150 -29 q 1146 83 1146 56 q 1164 249 1146 163 q 969 8 1065 86 q 799 -64 879 -64 q 708 -26 740 -64 q 667 99 667 24 q 710 298 667 175 q 824 578 753 421 q 917 821 896 735 q 939 975 939 907 q 885 1108 939 1076 q 738 1143 819 1143 q 422 1046 590 1143 q 86 678 174 900 q 50 508 50 585 q 76 368 50 431 q 279 226 135 226 q 550 399 449 226 q 606 561 606 490 q 511 665 606 665 q 455 658 489 665 q 424 658 421 650 q 465 686 428 669 q 540 703 503 703 q 626 654 597 703 q 646 572 646 619 q 622 461 646 525 q 442 244 569 321 q 261 186 347 186 q 108 238 175 186 q -6 503 -6 325 q 131 853 -6 682 q 425 1092 240 990 q 733 1181 585 1181 q 878 1153 811 1181 q 1013 929 1013 1094 q 933 622 1013 806 q 845 424 888 514 q 775 243 803 335 q 747 89 747 151 q 825 -28 747 -28 q 1021 111 908 -28 l 1058 163 q 1202 419 1114 243 q 1292 596 1290 594 q 1369 669 1333 669 m 1394 1006 q 1381 993 1394 993 q 1285 1039 1372 993 q 1190 1089 1199 1085 q 1139 1147 1139 1114 q 1165 1181 1139 1181 q 1289 1097 1183 1181 q 1394 1006 1394 1014 z "},"":{"ha":1308,"x_min":-7,"x_max":1404,"o":"m 747 89 q 825 -28 747 -28 q 1021 111 908 -28 l 1058 163 q 1202 419 1114 243 q 1292 596 1290 594 q 1369 669 1333 669 q 1392 603 1408 650 q 1353 519 1378 564 q 1211 115 1247 329 q 1201 10 1201 57 q 1253 -86 1201 -86 l 1268 -86 q 1293 -97 1293 -86 q 1263 -118 1293 -114 l 1246 -118 q 1175 -69 1200 -110 q 1148 13 1150 -29 q 1146 83 1146 56 q 1164 249 1146 163 q 969 8 1065 86 q 799 -64 879 -64 q 708 -26 740 -64 q 667 99 667 24 q 710 298 667 175 q 824 578 753 421 q 917 821 896 735 q 939 975 939 907 q 885 1108 939 1076 q 738 1143 819 1143 q 422 1046 590 1143 q 86 678 174 900 q 50 508 50 585 q 76 368 50 431 q 279 226 135 226 q 550 399 449 226 q 606 561 606 490 q 511 665 606 665 q 455 658 489 665 q 424 658 421 650 q 465 686 428 669 q 540 703 503 703 q 626 654 597 703 q 646 572 646 619 q 622 461 646 525 q 442 244 569 321 q 261 186 347 186 q 108 238 175 186 q -6 503 -6 325 q 131 853 -6 682 q 425 1092 240 990 q 733 1181 585 1181 q 878 1153 811 1181 q 1013 929 1013 1094 q 933 622 1013 806 q 845 424 888 514 q 775 243 803 335 q 747 89 747 151 m 1142 931 q 1137 933 1140 931 q 1133 940 1133 935 q 1136 949 1133 944 q 1176 981 1139 953 q 1256 1038 1213 1008 q 1318 1083 1299 1068 q 1356 1097 1338 1097 q 1390 1090 1375 1097 q 1404 1073 1404 1083 q 1400 1054 1404 1063 q 1275 984 1393 1038 q 1142 931 1157 931 z "},"":{"ha":1308,"x_min":-7,"x_max":1433,"o":"m 747 89 q 825 -28 747 -28 q 1021 111 908 -28 l 1058 163 q 1202 419 1114 243 q 1292 596 1290 594 q 1369 669 1333 669 q 1392 603 1408 650 q 1353 519 1378 564 q 1211 115 1247 329 q 1201 10 1201 57 q 1253 -86 1201 -86 l 1268 -86 q 1293 -97 1293 -86 q 1263 -118 1293 -114 l 1246 -118 q 1175 -69 1200 -110 q 1148 13 1150 -29 q 1146 83 1146 56 q 1164 249 1146 163 q 969 8 1065 86 q 799 -64 879 -64 q 708 -26 740 -64 q 667 99 667 24 q 710 298 667 175 q 824 578 753 421 q 917 821 896 735 q 939 975 939 907 q 885 1108 939 1076 q 738 1143 819 1143 q 422 1046 590 1143 q 86 678 174 900 q 50 508 50 585 q 76 368 50 431 q 279 226 135 226 q 550 399 449 226 q 606 561 606 490 q 511 665 606 665 q 455 658 489 665 q 424 658 421 650 q 465 686 428 669 q 540 703 503 703 q 626 654 597 703 q 646 572 646 619 q 622 461 646 525 q 442 244 569 321 q 261 186 347 186 q 108 238 175 186 q -6 503 -6 325 q 131 853 -6 682 q 425 1092 240 990 q 733 1181 585 1181 q 878 1153 811 1181 q 1013 929 1013 1094 q 933 622 1013 806 q 845 424 888 514 q 775 243 803 335 q 747 89 747 151 m 1157 1029 q 1133 1021 1147 1021 q 1119 1024 1119 1021 q 1122 1029 1119 1028 l 1329 1176 q 1368 1181 1356 1181 q 1382 1176 1381 1181 l 1432 1029 q 1433 1024 1433 1028 q 1421 1021 1433 1021 q 1404 1029 1408 1021 l 1340 1128 q 1157 1029 1175 1039 z "},"":{"ha":1308,"x_min":-7,"x_max":1397,"o":"m 1369 669 q 1397 629 1397 656 q 1363 536 1397 597 q 1211 115 1247 329 q 1201 10 1201 57 q 1253 -86 1201 -86 l 1268 -86 q 1293 -97 1293 -86 q 1263 -118 1293 -114 l 1246 -118 q 1175 -69 1200 -110 q 1148 13 1150 -29 q 1146 83 1146 56 q 1164 249 1146 163 q 969 8 1065 86 q 799 -64 879 -64 q 708 -26 740 -64 q 667 99 667 24 q 710 298 667 175 q 824 578 753 421 q 917 821 896 735 q 939 975 939 907 q 885 1108 939 1076 q 738 1143 819 1143 q 422 1046 590 1143 q 86 678 174 900 q 50 508 50 585 q 76 368 50 431 q 279 226 135 226 q 550 399 449 226 q 606 561 606 490 q 511 665 606 665 q 455 658 489 665 q 424 658 421 650 q 465 686 428 669 q 540 703 503 703 q 626 654 597 703 q 646 572 646 619 q 622 461 646 525 q 442 244 569 321 q 261 186 347 186 q 108 238 175 186 q -6 503 -6 325 q 131 853 -6 682 q 425 1092 240 990 q 733 1181 585 1181 q 878 1153 811 1181 q 1013 929 1013 1094 q 933 622 1013 806 q 845 424 888 514 q 775 243 803 335 q 747 89 747 151 q 825 -28 747 -28 q 1021 111 908 -28 l 1058 163 q 1202 419 1114 243 q 1292 596 1290 594 q 1369 669 1333 669 m 1335 1044 q 1345 1044 1335 1044 q 1369 1032 1356 1044 q 1382 999 1382 1019 q 1369 966 1382 979 q 1337 953 1357 953 q 1303 965 1317 953 q 1290 998 1290 978 q 1303 1031 1290 1018 q 1335 1044 1315 1044 m 1156 1044 q 1166 1044 1156 1044 q 1190 1032 1176 1044 q 1203 999 1203 1019 q 1190 966 1203 979 q 1158 953 1178 953 q 1124 965 1138 953 q 1111 998 1111 978 q 1124 1031 1111 1018 q 1156 1044 1136 1044 z "},"":{"ha":1397,"x_min":25,"x_max":1558,"o":"m 1365 671 q 1390 629 1390 671 q 1363 469 1390 588 q 1269 150 1336 351 q 1131 -178 1201 -51 q 1205 -175 1151 -176 q 1292 -172 1258 -174 q 1374 -163 1326 -171 q 1453 -142 1422 -156 q 1539 -39 1526 -107 q 1541 -19 1536 -21 q 1549 -24 1546 -17 q 1558 -62 1558 -42 q 1536 -120 1558 -83 q 1449 -184 1514 -157 q 1110 -214 1383 -211 q 941 -390 1043 -314 q 725 -510 839 -467 q 533 -553 611 -553 q 400 -535 454 -553 q 296 -429 296 -500 q 464 -268 296 -337 q 1064 -179 679 -179 q 1254 358 1200 154 q 972 -19 1128 86 q 814 -75 890 -75 q 695 -33 738 -75 q 653 81 653 8 q 858 567 653 232 q 961 778 922 671 q 1006 981 1006 896 q 951 1101 1006 1065 q 818 1138 896 1138 q 753 1131 788 1138 q 301 871 503 1083 q 153 651 200 764 q 104 444 104 531 q 114 378 104 408 q 224 239 142 276 q 310 221 265 221 q 572 393 464 221 q 633 565 633 492 q 547 661 633 661 q 507 656 531 661 q 482 660 483 651 q 514 679 481 671 q 578 688 547 688 q 675 626 650 688 q 686 569 686 600 q 643 428 686 508 q 394 206 558 274 q 303 185 344 185 q 92 282 168 185 q 25 469 25 364 q 76 681 25 575 q 210 875 128 786 q 388 1025 293 964 q 586 1126 482 1086 q 788 1169 696 1169 q 950 1142 879 1169 q 1054 1052 1024 1108 q 1085 933 1085 996 q 969 585 1085 776 q 753 110 790 279 q 747 49 747 81 q 768 -11 747 17 q 829 -39 789 -39 q 953 10 886 -39 q 1111 192 1032 65 q 1310 624 1243 403 q 1335 658 1314 646 q 1365 671 1356 671 m 371 -443 q 376 -465 371 -454 q 510 -512 406 -512 q 710 -478 615 -512 q 896 -376 806 -443 q 1044 -214 986 -308 q 486 -326 681 -214 q 371 -443 371 -393 m 1244 924 q 1240 926 1243 924 q 1236 933 1236 928 q 1239 942 1236 938 q 1278 974 1242 946 q 1358 1031 1315 1001 q 1421 1076 1401 1061 q 1459 1090 1440 1090 q 1492 1083 1478 1090 q 1507 1066 1507 1076 q 1503 1047 1507 1056 q 1378 977 1496 1031 q 1244 924 1260 924 z "},"":{"ha":467,"x_min":15,"x_max":814,"o":"m 789 690 q 813 619 813 649 q 749 463 813 542 q 643 372 706 410 q 492 311 581 335 q 304 288 403 288 q 274 289 289 288 l 169 76 q 128 18 147 32 q 94 4 110 4 q 74 4 79 4 q 48 8 69 4 q 15 11 26 13 q 140 210 40 35 q 286 482 240 386 q 451 913 389 699 q 513 1181 514 1126 q 540 1169 518 1172 q 568 1160 563 1165 q 597 1107 597 1133 q 585 1042 597 1081 l 510 853 q 678 794 601 838 q 789 690 754 751 m 478 345 q 519 358 478 345 q 626 426 560 371 q 715 533 692 482 q 738 614 738 583 q 646 776 738 721 q 500 826 596 804 l 431 638 q 331 407 353 439 l 286 317 q 478 345 396 319 z "},"":{"ha":607,"x_min":-558,"x_max":708,"o":"m 447 26 q 472 24 465 24 q 582 89 528 24 q 686 271 611 125 q 696 278 689 278 q 708 268 708 279 q 702 252 708 265 q 690 226 696 239 q 672 188 685 213 q 651 147 660 163 q 628 110 642 132 q 600 75 614 88 l 571 44 q 515 11 547 21 q 415 8 464 -6 q 358 -6 383 -6 q 239 72 260 -6 q 235 116 235 90 q 252 165 235 142 q 290 191 269 189 q 326 183 311 193 q 342 147 342 172 l 342 138 q 358 76 342 103 q 400 36 374 49 q 461 185 461 83 q 438 303 461 219 q 408 429 408 406 q 418 479 408 453 q 447 525 428 506 q 502 576 467 544 q 567 643 538 608 q 609 723 596 678 q 622 796 622 768 q 544 922 622 896 q 499 931 521 931 q 402 886 453 931 q 321 756 351 842 q 228 481 290 669 q 126 181 165 292 q 31 -53 88 69 q -90 -250 -25 -175 q -242 -386 -154 -325 q -432 -453 -340 -453 q -557 -361 -550 -453 q -557 -354 -557 -357 q -531 -286 -557 -317 q -470 -256 -504 -256 q -419 -274 -436 -256 q -403 -307 -403 -293 q -426 -370 -403 -349 q -475 -392 -450 -392 q -519 -375 -500 -392 q -439 -415 -504 -415 q -408 -411 -424 -415 q -184 -258 -283 -379 q 8 96 -85 -137 q 86 299 56 215 q 283 792 151 472 q 403 943 339 900 q 483 967 439 967 q 582 947 526 967 q 660 889 638 928 q 682 794 682 850 q 556 586 682 674 q 515 559 533 571 q 478 528 497 547 q 449 491 458 508 q 439 449 439 474 q 454 401 439 425 q 546 185 546 256 q 517 99 546 143 q 447 26 488 54 m 296 74 q 297 56 296 65 q 349 18 308 18 q 376 24 365 18 q 321 128 325 56 q 296 74 296 103 z "},"":{"ha":486,"x_min":32,"x_max":589,"o":"m 501 376 q 431 263 476 351 q 376 131 385 175 q 367 60 367 88 q 388 33 367 33 q 453 82 414 33 q 565 267 510 153 q 578 281 571 279 q 589 272 589 285 q 585 256 589 265 q 369 -3 457 -3 q 304 36 329 -3 q 292 92 292 57 q 306 176 292 126 q 114 -3 194 -3 q 74 11 92 -3 q 32 111 32 40 q 150 388 32 247 q 314 489 217 465 q 364 496 340 496 q 472 451 428 496 q 481 422 486 436 q 457 411 475 408 q 390 461 442 461 q 243 367 331 461 q 150 236 193 311 q 96 92 96 146 q 131 38 96 38 q 349 293 214 38 q 393 363 375 344 q 439 382 411 382 q 467 378 444 382 q 501 376 490 374 m 449 564 q 435 551 449 551 q 340 597 426 551 q 244 647 253 643 q 193 706 193 672 q 219 739 193 739 q 343 656 238 739 q 449 564 449 572 z "},"":{"ha":486,"x_min":32,"x_max":589,"o":"m 501 376 q 431 263 476 351 q 376 131 385 175 q 367 60 367 88 q 388 33 367 33 q 453 82 414 33 q 565 267 510 153 q 578 281 571 279 q 589 272 589 285 q 585 256 589 265 q 369 -3 457 -3 q 304 36 329 -3 q 292 92 292 57 q 306 176 292 126 q 114 -3 194 -3 q 74 11 92 -3 q 32 111 32 40 q 150 388 32 247 q 314 489 217 465 q 364 496 340 496 q 472 451 428 496 q 481 422 486 436 q 457 411 475 408 q 390 461 442 461 q 243 367 331 461 q 150 236 193 311 q 96 92 96 146 q 131 38 96 38 q 349 293 214 38 q 393 363 375 344 q 439 382 411 382 q 467 378 444 382 q 501 376 490 374 m 313 547 q 308 549 311 547 q 304 556 304 551 q 307 565 304 561 q 347 597 310 569 q 426 655 383 625 q 489 699 469 685 q 527 714 508 714 q 560 707 546 714 q 575 690 575 700 q 571 671 575 679 q 446 601 564 654 q 313 547 328 547 z "},"":{"ha":486,"x_min":32,"x_max":589,"o":"m 501 376 q 431 263 476 351 q 376 131 385 175 q 367 60 367 88 q 388 33 367 33 q 453 82 414 33 q 565 267 510 153 q 578 281 571 279 q 589 272 589 285 q 585 256 589 265 q 369 -3 457 -3 q 304 36 329 -3 q 292 92 292 57 q 306 176 292 126 q 114 -3 194 -3 q 74 11 92 -3 q 32 111 32 40 q 150 388 32 247 q 314 489 217 465 q 364 496 340 496 q 472 451 428 496 q 481 422 486 436 q 457 411 475 408 q 390 461 442 461 q 243 367 331 461 q 150 236 193 311 q 96 92 96 146 q 131 38 96 38 q 349 293 214 38 q 393 363 375 344 q 439 382 411 382 q 467 378 444 382 q 501 376 490 374 m 294 569 q 271 561 285 561 q 257 565 257 561 q 260 569 257 568 l 467 717 q 506 719 492 719 q 519 717 519 719 l 569 569 q 571 565 571 568 q 559 561 571 561 q 542 569 547 561 l 478 668 q 294 569 313 579 z "},"":{"ha":486,"x_min":32,"x_max":621,"o":"m 501 376 q 431 263 476 351 q 376 131 385 175 q 367 60 367 88 q 388 33 367 33 q 453 82 414 33 q 565 267 510 153 q 578 281 571 279 q 588 276 586 283 q 585 256 590 269 q 369 -3 457 -3 q 304 36 329 -3 q 292 92 292 57 q 306 176 292 126 q 114 -3 194 -3 q 74 11 92 -3 q 32 111 32 40 q 150 388 32 247 q 314 489 217 465 q 364 496 340 496 q 472 451 428 496 q 481 422 486 436 q 457 411 475 408 q 390 461 442 461 q 243 367 331 461 q 150 236 193 311 q 96 92 96 146 q 131 38 96 38 q 349 293 214 38 q 393 363 375 344 q 439 382 411 382 q 467 378 444 382 q 501 376 490 374 m 492 613 q 403 638 461 613 q 303 667 338 667 q 243 621 268 667 q 218 618 240 611 q 211 624 211 621 q 339 728 269 728 q 429 703 371 728 q 503 678 488 679 q 525 678 519 678 q 592 726 568 678 q 600 731 593 731 q 621 724 618 731 q 492 613 567 613 z "},"":{"ha":486,"x_min":32,"x_max":589,"o":"m 501 376 q 431 263 476 351 q 376 131 385 175 q 367 60 367 88 q 388 33 367 33 q 453 82 414 33 q 565 267 510 153 q 578 281 571 279 q 589 272 589 285 q 585 256 589 265 q 369 -3 457 -3 q 304 36 329 -3 q 292 92 292 57 q 306 176 292 126 q 114 -3 194 -3 q 74 11 92 -3 q 32 111 32 40 q 150 388 32 247 q 314 489 217 465 q 364 496 340 496 q 472 451 428 496 q 481 422 486 436 q 457 411 475 408 q 390 461 442 461 q 243 367 331 461 q 150 236 193 311 q 96 92 96 146 q 131 38 96 38 q 349 293 214 38 q 393 363 375 344 q 439 382 411 382 q 467 378 444 382 q 501 376 490 374 m 523 683 q 533 683 523 683 q 556 671 543 683 q 569 638 569 658 q 557 605 569 618 q 524 592 544 592 q 491 604 504 592 q 478 637 478 617 q 490 670 478 657 q 523 683 503 683 m 344 683 q 354 683 344 683 q 377 671 364 683 q 390 638 390 658 q 378 605 390 618 q 345 592 365 592 q 312 604 325 592 q 299 637 299 617 q 311 670 299 657 q 344 683 324 683 z "},"":{"ha":486,"x_min":32,"x_max":589,"o":"m 501 376 q 431 263 476 351 q 376 131 385 175 q 367 60 367 88 q 388 33 367 33 q 453 82 414 33 q 565 267 510 153 q 578 281 571 279 q 589 272 589 285 q 585 256 589 265 q 369 -3 457 -3 q 304 36 329 -3 q 292 92 292 57 q 306 176 292 126 q 114 -3 194 -3 q 74 11 92 -3 q 32 111 32 40 q 150 388 32 247 q 314 489 217 465 q 364 496 340 496 q 472 451 428 496 q 481 422 486 436 q 457 411 475 408 q 390 461 442 461 q 243 367 331 461 q 150 236 193 311 q 96 92 96 146 q 131 38 96 38 q 349 293 214 38 q 393 363 375 344 q 439 382 411 382 q 467 378 444 382 q 501 376 490 374 m 399 645 q 404 638 399 645 q 428 631 410 631 q 459 647 446 631 q 475 685 472 663 q 465 722 476 707 q 436 735 454 736 q 404 719 418 733 q 389 682 390 704 q 399 645 388 660 m 444 757 q 462 757 444 757 q 503 738 481 757 q 525 687 525 718 q 494 632 525 656 q 422 607 461 607 q 362 626 383 607 q 340 671 340 646 q 371 731 340 707 q 444 757 407 757 z "},"":{"ha":606,"x_min":32,"x_max":711,"o":"m 407 214 q 383 126 383 167 q 399 55 383 86 q 453 24 414 24 q 682 261 579 24 q 706 281 692 283 q 711 274 711 279 q 680 201 711 268 q 617 92 649 133 q 442 -6 546 -6 q 360 21 397 -6 q 304 143 304 60 q 306 176 304 160 q 114 -3 194 -3 q 74 11 92 -3 q 32 111 32 40 q 150 388 32 247 q 314 489 217 465 q 364 496 340 496 q 472 451 428 496 l 476 446 q 597 496 546 496 q 653 478 628 496 q 676 433 676 458 q 576 275 676 353 q 491 233 546 251 q 407 214 436 214 m 451 425 q 392 461 435 461 q 243 367 329 461 q 150 236 193 311 q 96 92 96 146 q 131 38 96 38 q 349 293 214 38 q 451 425 389 369 m 639 436 q 617 464 639 464 q 499 368 578 464 q 447 296 476 340 l 418 238 q 486 255 443 239 q 563 299 529 271 q 639 436 639 364 z "},"":{"ha":361,"x_min":24,"x_max":475,"o":"m 335 319 q 383 418 383 378 q 350 458 383 458 q 201 339 285 458 q 150 240 175 301 q 125 130 125 179 q 145 50 125 81 q 208 19 165 19 q 286 40 250 19 q 355 103 322 60 q 404 176 388 147 q 450 264 421 206 q 467 280 460 283 q 474 270 474 276 q 456 226 474 264 q 419 155 438 188 q 369 81 401 122 q 215 -4 314 4 l 218 -10 q 200 -22 217 -11 q 157 -58 157 -51 q 227 -54 183 -54 q 324 -81 271 -54 q 376 -162 376 -107 q 304 -265 376 -217 q 211 -289 269 -289 q 88 -273 153 -289 q 24 -225 24 -257 q 31 -215 24 -215 q 53 -231 38 -215 q 180 -265 86 -265 q 306 -215 274 -265 q 325 -153 325 -186 q 293 -100 325 -121 q 225 -79 261 -79 q 156 -96 189 -79 q 117 -112 122 -112 q 103 -106 111 -112 q 94 -92 94 -100 q 106 -72 94 -85 q 194 -6 118 -58 l 193 -6 q 81 33 115 -6 q 47 121 47 71 q 77 254 47 182 q 146 379 107 326 q 332 489 226 489 q 406 465 383 489 q 429 408 429 440 q 390 328 429 361 q 358 310 371 310 q 335 319 344 310 z "},"":{"ha":342,"x_min":42,"x_max":446,"o":"m 140 214 q 121 108 121 167 q 138 47 121 69 q 188 24 156 24 q 417 261 314 24 q 440 281 426 283 q 446 274 446 279 q 415 201 446 268 q 351 92 383 133 q 176 -6 281 -6 q 82 31 121 -6 q 43 129 43 67 q 73 262 43 192 q 154 392 103 332 q 272 481 206 453 q 333 494 304 494 q 388 478 363 494 q 411 435 411 458 q 311 275 411 351 q 225 233 281 251 q 140 214 169 214 m 374 436 q 351 464 374 464 q 233 368 313 464 q 150 238 186 310 q 219 254 174 238 q 297 299 264 271 q 374 436 374 364 m 399 551 q 385 539 399 539 q 290 585 376 539 q 194 635 203 631 q 143 694 143 661 q 169 726 143 726 q 293 643 188 726 q 399 551 399 560 z "},"":{"ha":342,"x_min":42,"x_max":551,"o":"m 140 214 q 121 108 121 167 q 138 47 121 69 q 188 24 156 24 q 417 261 314 24 q 440 281 426 283 q 442 260 449 276 q 351 92 383 133 q 176 -6 281 -6 q 82 31 121 -6 q 43 129 43 67 q 73 262 43 192 q 154 392 103 332 q 272 481 206 453 q 333 494 304 494 q 388 478 363 494 q 411 435 411 458 q 311 275 411 351 q 225 233 281 251 q 140 214 169 214 m 374 436 q 351 464 374 464 q 233 368 313 464 q 150 238 186 310 q 219 254 174 238 q 297 299 264 271 q 374 436 374 364 m 289 547 q 284 549 288 547 q 281 556 281 551 q 283 565 281 561 q 323 597 286 569 q 403 655 360 625 q 465 699 446 685 q 503 714 485 714 q 537 707 522 714 q 551 690 551 700 q 547 671 551 679 q 422 601 540 654 q 289 547 304 547 z "},"":{"ha":342,"x_min":42,"x_max":510,"o":"m 140 214 q 121 108 121 167 q 138 47 121 69 q 188 24 156 24 q 417 261 314 24 q 440 281 426 283 q 442 260 449 276 q 351 92 383 133 q 176 -6 281 -6 q 82 31 121 -6 q 43 129 43 67 q 73 262 43 192 q 154 392 103 332 q 272 481 206 453 q 333 494 304 494 q 388 478 363 494 q 411 435 411 458 q 311 275 411 351 q 225 233 281 251 q 140 214 169 214 m 374 436 q 351 464 374 464 q 233 368 313 464 q 150 238 186 310 q 219 254 174 238 q 297 299 264 271 q 374 436 374 364 m 233 569 q 210 561 224 561 q 196 565 196 561 q 199 569 196 568 l 406 717 q 444 719 431 719 q 458 717 458 719 l 508 569 q 510 565 510 568 q 498 561 510 561 q 481 569 486 561 l 417 668 q 233 569 251 579 z "},"":{"ha":342,"x_min":42,"x_max":494,"o":"m 140 214 q 121 108 121 167 q 138 47 121 69 q 188 24 156 24 q 417 261 314 24 q 440 281 426 283 q 442 260 449 276 q 351 92 383 133 q 176 -6 281 -6 q 82 31 121 -6 q 43 129 43 67 q 73 262 43 192 q 154 392 103 332 q 272 481 206 453 q 333 494 304 494 q 388 478 363 494 q 411 435 411 458 q 311 275 411 351 q 225 233 281 251 q 140 214 169 214 m 374 436 q 351 464 374 464 q 233 368 313 464 q 150 238 186 310 q 219 254 174 238 q 297 299 264 271 q 374 436 374 364 m 448 657 q 458 657 448 657 q 481 644 468 657 q 494 612 494 632 q 482 578 494 592 q 449 565 469 565 q 416 578 429 565 q 403 610 403 590 q 415 644 403 631 q 448 657 428 657 m 269 657 q 279 657 269 657 q 302 644 289 657 q 315 612 315 632 q 303 578 315 592 q 270 565 290 565 q 237 578 250 565 q 224 610 224 590 q 236 644 224 631 q 269 657 249 657 z "},"":{"ha":233,"x_min":14,"x_max":333,"o":"m 220 65 q 210 53 220 65 q 169 21 200 42 q 100 0 139 0 q 38 31 61 0 q 14 102 14 61 q 35 181 14 143 l 156 411 q 190 470 182 463 q 231 478 199 478 l 301 478 q 288 467 299 475 q 250 428 263 450 q 106 158 143 254 q 81 69 81 104 q 125 31 81 31 l 179 57 q 310 267 235 111 q 329 279 321 288 q 333 270 333 276 q 321 238 333 264 q 300 196 308 213 q 266 133 292 179 q 220 65 240 88 m 331 567 q 317 554 331 554 q 222 600 308 554 q 126 650 135 646 q 75 708 75 675 q 101 742 75 742 q 225 658 119 742 q 331 567 331 575 z "},"":{"ha":233,"x_min":14,"x_max":529,"o":"m 220 65 q 210 53 220 65 q 169 21 200 42 q 100 0 139 0 q 38 31 61 0 q 14 102 14 61 q 35 181 14 143 l 156 411 q 190 470 182 463 q 231 478 199 478 l 301 478 q 288 467 299 475 q 250 428 263 450 q 106 158 143 254 q 81 69 81 104 q 125 31 81 31 l 179 57 q 310 267 235 111 q 329 280 321 288 q 323 242 338 272 q 300 196 308 213 q 266 133 292 179 q 220 65 240 88 m 267 576 q 262 578 265 576 q 258 585 258 581 q 261 594 258 590 q 301 626 264 599 q 381 684 338 654 q 443 728 424 714 q 481 743 463 743 q 515 736 500 743 q 529 719 529 729 q 525 700 529 708 q 400 630 518 683 q 267 576 282 576 z "},"":{"ha":233,"x_min":14,"x_max":440,"o":"m 220 65 q 210 53 220 65 q 169 21 200 42 q 100 0 139 0 q 38 31 61 0 q 14 102 14 61 q 35 181 14 143 l 156 411 q 190 470 182 463 q 231 478 199 478 l 301 478 q 288 467 299 475 q 250 428 263 450 q 106 158 143 254 q 81 69 81 104 q 125 31 81 31 l 179 57 q 310 267 235 111 q 329 280 321 288 q 323 242 338 272 q 300 196 308 213 q 266 133 292 179 q 220 65 240 88 m 164 564 q 140 556 154 556 q 126 559 126 556 q 129 564 126 563 l 336 711 q 375 714 361 714 q 389 711 389 714 l 439 564 q 440 559 440 563 q 428 556 440 556 q 411 564 417 556 l 347 663 q 164 564 182 574 z "},"":{"ha":233,"x_min":14,"x_max":419,"o":"m 220 65 q 210 53 220 65 q 169 21 200 42 q 100 0 139 0 q 38 31 61 0 q 14 102 14 61 q 35 181 14 143 l 156 411 q 190 470 182 463 q 231 478 199 478 l 301 478 q 288 467 299 475 q 250 428 263 450 q 106 158 143 254 q 81 69 81 104 q 125 31 81 31 l 179 57 q 310 267 235 111 q 329 280 321 288 q 323 242 338 272 q 300 196 308 213 q 266 133 292 179 q 220 65 240 88 m 373 642 q 383 642 373 642 q 406 629 393 642 q 419 597 419 617 q 407 563 419 576 q 374 550 394 550 q 341 563 354 550 q 328 595 328 575 q 340 628 328 615 q 373 642 353 642 m 194 642 q 204 642 194 642 q 227 629 214 642 q 240 597 240 617 q 228 563 240 576 q 195 550 215 550 q 162 563 175 550 q 149 595 149 575 q 161 628 149 615 q 194 642 174 642 z "},"":{"ha":539,"x_min":50,"x_max":524,"o":"m 197 831 l 147 825 q 132 835 132 825 q 223 864 132 864 q 376 799 314 864 l 485 857 q 519 854 507 869 q 522 844 522 850 q 499 823 522 838 q 404 763 475 808 q 465 522 465 672 q 367 153 465 321 q 231 15 308 56 q 140 -7 186 -7 q 72 34 93 -7 q 50 124 50 75 q 167 372 50 264 q 325 447 246 447 q 381 426 361 447 q 400 368 400 404 l 400 347 q 415 478 415 415 q 353 726 415 619 q 292 683 331 711 q 248 650 254 654 q 226 657 242 646 q 206 683 211 668 q 217 710 201 697 l 322 768 q 197 831 269 831 m 344 222 q 381 360 381 286 q 332 433 381 433 q 219 356 278 433 q 111 65 111 211 q 150 10 111 10 q 344 222 229 10 z "},"":{"ha":465,"x_min":-54,"x_max":607,"o":"m 499 456 q 328 64 328 156 q 354 28 328 28 q 544 268 425 28 q 563 282 553 288 q 564 256 574 276 q 440 51 490 107 q 338 -6 389 -6 q 261 33 288 -6 q 247 83 247 51 q 261 158 247 114 q 338 303 275 203 q 353 342 353 328 q 329 357 353 357 q 239 294 306 357 q 46 19 139 203 q 27 2 38 6 q -14 -3 17 -1 q -54 -10 -44 -4 q 33 172 -32 35 q 186 450 150 415 q 232 467 203 467 q 260 463 238 467 q 294 461 283 458 q 126 200 243 433 q 245 328 192 281 q 374 417 299 376 q 483 458 449 458 q 499 456 492 458 m 478 568 q 389 593 447 568 q 289 622 324 622 q 229 576 254 622 q 204 574 226 567 q 197 579 197 576 q 325 683 256 683 q 415 659 357 683 q 490 634 474 635 q 511 633 506 633 q 578 682 554 633 q 586 686 579 686 q 607 679 604 686 q 478 568 553 568 z "},"":{"ha":465,"x_min":39,"x_max":569,"o":"m 332 486 q 433 358 433 486 q 403 233 433 300 q 286 69 364 143 q 351 35 304 35 q 422 72 389 35 q 482 148 464 115 q 508 196 500 181 q 530 240 517 211 q 546 274 543 268 q 556 281 549 281 q 569 271 569 282 q 567 261 569 267 l 558 242 q 546 214 550 222 q 531 184 542 206 q 513 150 521 163 q 492 117 506 138 q 469 83 479 96 q 443 56 458 71 q 414 32 428 40 q 349 11 379 11 q 260 47 292 11 q 142 0 196 0 q 40 128 40 0 q 71 253 40 186 q 188 418 113 350 q 332 486 264 486 m 347 443 q 258 393 310 443 q 167 257 207 343 q 118 93 118 157 q 167 29 118 29 q 244 67 201 29 q 222 135 222 99 q 271 194 225 194 q 301 182 289 194 q 313 159 313 169 q 310 138 313 149 q 364 236 333 172 q 399 375 399 307 q 347 443 399 443 m 429 567 q 415 554 429 554 q 320 600 407 554 q 225 650 233 646 q 174 708 174 675 q 200 742 174 742 q 324 658 218 742 q 429 567 429 575 z "},"":{"ha":465,"x_min":39,"x_max":618,"o":"m 332 486 q 433 358 433 486 q 403 233 433 300 q 286 69 364 143 q 351 35 304 35 q 422 72 389 35 q 482 148 464 115 q 508 196 500 181 q 530 240 517 211 q 546 274 543 268 q 556 281 549 281 q 567 276 564 282 q 567 261 571 271 l 558 242 q 546 214 550 222 q 531 184 542 206 q 513 150 521 163 q 492 117 506 138 q 469 83 479 96 q 443 56 458 71 q 414 32 428 40 q 349 11 379 11 q 260 47 292 11 q 142 0 196 0 q 40 128 40 0 q 71 253 40 186 q 188 418 113 350 q 332 486 264 486 m 347 443 q 258 393 310 443 q 167 257 207 343 q 118 93 118 157 q 167 29 118 29 q 244 67 201 29 q 222 135 222 99 q 271 194 225 194 q 301 182 289 194 q 313 159 313 169 q 310 138 313 149 q 364 236 333 172 q 399 375 399 307 q 347 443 399 443 m 356 581 q 351 583 354 581 q 347 590 347 585 q 350 599 347 594 q 390 631 353 603 q 469 688 426 658 q 532 733 513 718 q 570 747 551 747 q 603 740 589 747 q 618 723 618 733 q 614 704 618 713 q 489 634 607 688 q 356 581 371 581 z "},"":{"ha":465,"x_min":39,"x_max":569,"o":"m 332 486 q 433 358 433 486 q 403 233 433 300 q 286 69 364 143 q 351 35 304 35 q 422 72 389 35 q 482 148 464 115 q 508 196 500 181 q 530 240 517 211 q 546 274 543 268 q 556 281 549 281 q 569 271 569 282 q 567 261 569 267 l 558 242 q 546 214 550 222 q 531 184 542 206 q 513 150 521 163 q 492 117 506 138 q 469 83 479 96 q 443 56 458 71 q 414 32 428 40 q 349 11 379 11 q 260 47 292 11 q 142 0 196 0 q 40 128 40 0 q 71 253 40 186 q 188 418 113 350 q 332 486 264 486 m 347 443 q 258 393 310 443 q 167 257 207 343 q 118 93 118 157 q 167 29 118 29 q 244 67 201 29 q 222 135 222 99 q 271 194 225 194 q 301 182 289 194 q 313 159 313 169 q 310 138 313 149 q 364 236 333 172 q 399 375 399 307 q 347 443 399 443 m 257 569 q 233 561 247 561 q 219 565 219 561 q 222 569 219 568 l 429 717 q 468 719 456 719 q 482 717 481 719 l 532 569 q 533 565 533 568 q 522 561 533 561 q 504 569 510 561 l 440 668 q 257 569 275 579 z "},"":{"ha":465,"x_min":39,"x_max":601,"o":"m 332 486 q 433 358 433 486 q 403 233 433 300 q 286 69 364 143 q 351 35 304 35 q 422 72 389 35 q 482 148 464 115 q 508 196 500 181 q 530 240 517 211 q 546 274 543 268 q 556 281 549 281 q 567 276 564 282 q 567 261 571 271 l 558 242 q 546 214 550 222 q 531 184 542 206 q 513 150 521 163 q 492 117 506 138 q 469 83 479 96 q 443 56 458 71 q 414 32 428 40 q 349 11 379 11 q 260 47 292 11 q 142 0 196 0 q 40 128 40 0 q 71 253 40 186 q 188 418 113 350 q 332 486 264 486 m 347 443 q 258 393 310 443 q 167 257 207 343 q 118 93 118 157 q 167 29 118 29 q 244 67 201 29 q 222 135 222 99 q 271 194 225 194 q 301 182 289 194 q 313 159 313 169 q 310 138 313 149 q 364 236 333 172 q 399 375 399 307 q 347 443 399 443 m 472 599 q 383 624 442 599 q 283 653 318 653 q 224 607 249 653 q 199 604 221 597 q 192 610 192 607 q 319 714 250 714 q 410 690 351 714 q 484 665 468 665 q 506 664 500 664 q 572 713 549 664 q 581 717 574 717 q 601 710 599 717 q 472 599 547 599 z "},"":{"ha":465,"x_min":39,"x_max":569,"o":"m 332 486 q 433 358 433 486 q 403 233 433 300 q 286 69 364 143 q 351 35 304 35 q 422 72 389 35 q 482 148 464 115 q 508 196 500 181 q 530 240 517 211 q 546 274 543 268 q 556 281 549 281 q 569 271 569 282 q 567 261 569 267 l 558 242 q 546 214 550 222 q 531 184 542 206 q 513 150 521 163 q 492 117 506 138 q 469 83 479 96 q 443 56 458 71 q 414 32 428 40 q 349 11 379 11 q 260 47 292 11 q 142 0 196 0 q 40 128 40 0 q 71 253 40 186 q 188 418 113 350 q 332 486 264 486 m 347 443 q 258 393 310 443 q 167 257 207 343 q 118 93 118 157 q 167 29 118 29 q 244 67 201 29 q 222 135 222 99 q 271 194 225 194 q 301 182 289 194 q 313 159 313 169 q 310 138 313 149 q 364 236 333 172 q 399 375 399 307 q 347 443 399 443 m 495 681 q 505 681 495 681 q 528 668 515 681 q 542 635 542 656 q 529 602 542 615 q 497 589 517 589 q 463 601 476 589 q 450 634 450 614 q 463 667 450 654 q 495 681 475 681 m 316 681 q 326 681 316 681 q 349 668 336 681 q 363 635 363 656 q 350 602 363 615 q 317 589 338 589 q 284 601 297 589 q 271 634 271 614 q 283 667 271 654 q 316 681 296 681 z "},"":{"ha":557,"x_min":89,"x_max":571,"o":"m 386 308 q 376 300 386 308 q 343 292 367 292 q 306 308 319 292 q 296 349 292 325 q 319 389 299 372 q 363 406 339 406 q 400 389 386 406 q 410 349 414 372 q 386 308 406 325 m 327 -3 q 317 -11 327 -3 q 283 -19 307 -19 q 246 -3 260 -19 q 236 38 232 14 q 260 78 240 61 q 303 94 279 94 q 340 78 326 94 q 351 38 354 61 q 327 -3 347 14 m 571 207 l 568 206 l 90 206 l 89 207 l 89 232 l 90 233 l 568 233 l 571 232 l 571 207 z "},"":{"ha":465,"x_min":40,"x_max":569,"o":"m 108 4 q 40 125 40 25 q 71 253 40 186 q 188 418 113 350 q 332 486 264 486 q 375 476 356 486 l 410 538 l 436 525 l 399 461 q 432 365 432 429 q 398 222 432 300 q 286 69 364 143 q 351 35 304 35 q 422 72 389 35 q 482 148 464 115 q 508 196 500 181 q 530 240 517 211 q 546 274 543 268 q 556 281 549 281 q 569 271 569 282 q 567 261 569 267 l 558 242 q 546 214 550 222 q 531 184 542 206 q 513 150 521 163 q 492 117 506 138 q 469 83 479 96 q 443 56 458 71 q 414 32 428 40 q 349 11 379 11 q 260 47 292 11 q 142 0 196 0 q 139 0 140 0 l 138 0 l 94 -75 l 69 -64 l 108 4 m 131 44 l 356 442 q 347 442 351 442 q 256 390 307 442 q 160 245 204 339 q 117 107 117 151 q 131 44 117 63 m 310 138 q 397 385 397 267 q 381 429 397 411 l 243 186 q 271 194 253 194 q 301 182 289 194 q 313 159 313 169 q 310 138 313 149 m 222 135 l 222 150 l 154 31 q 164 31 158 31 q 244 67 199 31 q 222 135 222 99 z "},"":{"ha":496,"x_min":31,"x_max":600,"o":"m 31 81 q 82 225 31 140 q 69 247 60 225 l 94 296 q 172 449 142 386 q 226 478 186 478 l 311 478 q 210 338 261 442 q 132 176 160 235 q 104 86 104 117 q 115 43 104 56 q 143 31 125 31 q 217 86 169 31 q 424 449 290 172 q 478 478 439 478 l 553 478 q 505 429 522 454 q 457 340 488 404 q 364 119 374 174 q 360 83 360 100 q 390 36 360 39 q 575 268 465 36 q 592 283 583 288 q 600 272 600 279 q 588 240 600 265 q 563 192 575 215 q 527 127 551 168 q 482 63 503 86 q 376 1 428 1 q 304 47 324 1 q 296 100 296 68 q 310 179 296 132 q 122 1 208 1 q 35 64 47 1 q 31 81 31 71 m 453 571 q 439 558 453 558 q 344 604 431 558 q 249 654 257 650 q 197 713 197 681 q 224 746 197 746 q 347 663 242 746 q 453 571 453 579 z "},"":{"ha":496,"x_min":31,"x_max":607,"o":"m 31 81 q 82 225 31 140 q 69 247 60 225 l 94 296 q 172 449 142 386 q 226 478 186 478 l 311 478 q 210 338 261 442 q 132 176 160 235 q 104 86 104 117 q 115 43 104 56 q 143 31 125 31 q 217 86 169 31 q 424 449 290 172 q 478 478 439 478 l 553 478 q 505 429 522 454 q 457 340 488 404 q 364 119 374 174 q 360 83 360 100 q 390 36 360 39 q 575 268 465 36 q 594 282 583 288 q 590 246 604 276 q 563 192 575 215 q 527 127 551 168 q 482 63 503 86 q 376 1 428 1 q 304 47 324 1 q 296 100 296 68 q 310 179 296 132 q 122 1 208 1 q 35 64 47 1 q 31 81 31 71 m 344 564 q 340 566 343 564 q 336 573 336 568 q 339 582 336 578 q 378 614 342 586 q 458 672 415 642 q 521 716 501 701 q 559 731 540 731 q 592 724 578 731 q 607 706 607 717 q 603 688 607 696 q 478 617 596 671 q 344 564 360 564 z "},"":{"ha":496,"x_min":31,"x_max":600,"o":"m 31 81 q 82 225 31 140 q 69 247 60 225 l 94 296 q 172 449 142 386 q 226 478 186 478 l 311 478 q 210 338 261 442 q 132 176 160 235 q 104 86 104 117 q 115 43 104 56 q 143 31 125 31 q 217 86 169 31 q 424 449 290 172 q 478 478 439 478 l 553 478 q 505 429 522 454 q 457 340 488 404 q 364 119 374 174 q 360 83 360 100 q 390 36 360 39 q 575 268 465 36 q 592 283 583 288 q 600 272 600 279 q 588 240 600 265 q 563 192 575 215 q 527 127 551 168 q 482 63 503 86 q 376 1 428 1 q 304 47 324 1 q 296 100 296 68 q 310 179 296 132 q 122 1 208 1 q 35 64 47 1 q 31 81 31 71 m 290 585 q 267 576 281 576 q 253 580 253 576 q 256 585 253 583 l 463 732 q 501 736 489 736 q 515 732 514 736 l 565 585 q 567 580 567 583 q 555 576 567 576 q 538 585 543 576 l 474 683 q 290 585 308 594 z "},"":{"ha":496,"x_min":31,"x_max":600,"o":"m 31 81 q 82 225 31 140 q 69 247 60 225 l 94 296 q 172 449 142 386 q 226 478 186 478 l 311 478 q 210 338 261 442 q 132 176 160 235 q 104 86 104 117 q 115 43 104 56 q 143 31 125 31 q 217 86 169 31 q 424 449 290 172 q 478 478 439 478 l 553 478 q 505 429 522 454 q 457 340 488 404 q 364 119 374 174 q 360 83 360 100 q 390 36 360 39 q 575 268 465 36 q 592 283 583 288 q 600 272 600 279 q 588 240 600 265 q 563 192 575 215 q 527 127 551 168 q 482 63 503 86 q 376 1 428 1 q 304 47 324 1 q 296 100 296 68 q 310 179 296 132 q 122 1 208 1 q 35 64 47 1 q 31 81 31 71 m 327 708 q 337 708 327 708 q 360 696 347 708 q 374 663 374 683 q 361 630 374 643 q 328 617 349 617 q 295 629 308 617 q 282 662 282 642 q 294 695 282 682 q 327 708 307 708 m 506 708 q 516 708 506 708 q 540 696 526 708 q 553 663 553 683 q 540 630 553 643 q 508 617 528 617 q 474 629 488 617 q 461 662 461 642 q 474 695 461 682 q 506 708 486 708 z "},"":{"ha":554,"x_min":-242,"x_max":657,"o":"m -114 -439 q -208 -413 -175 -439 q -242 -351 -242 -387 q -221 -269 -242 -315 q -90 -156 -185 -199 q 97 -94 -19 -122 q 247 -56 214 -65 q 367 257 297 32 q 232 58 286 115 q 122 1 178 1 q 35 64 47 1 q 32 93 29 74 q 35 121 35 113 q 44 148 36 129 q 56 175 53 167 q 82 225 71 207 q 69 247 60 225 l 94 296 q 172 449 142 386 q 226 478 186 478 l 311 478 q 297 467 308 475 q 260 428 272 450 q 135 182 210 342 q 104 86 104 117 q 115 43 104 56 q 143 31 125 31 q 217 86 169 31 q 435 449 315 201 q 489 478 450 478 l 564 478 q 507 415 528 453 q 462 311 486 376 q 401 138 438 246 q 344 -25 364 29 q 544 113 475 14 q 632 265 575 156 q 649 281 642 285 q 657 269 657 276 q 634 216 657 263 q 588 130 611 169 q 526 49 564 90 q 443 -17 489 7 q 321 -69 397 -42 q 106 -356 214 -264 q -114 -439 4 -439 m -194 -301 q -210 -358 -210 -332 q -190 -397 -210 -383 q -142 -411 -171 -411 q 31 -328 -61 -411 q 192 -151 122 -246 l 222 -100 q -67 -186 -7 -160 q -194 -301 -156 -225 m 367 574 q 362 576 365 574 q 358 583 358 578 q 361 592 358 588 q 401 624 364 596 q 481 681 438 651 q 543 726 524 711 q 581 740 563 740 q 615 733 600 740 q 629 716 629 726 q 625 697 629 706 q 500 627 618 681 q 367 574 382 574 z "},"":{"ha":535,"x_min":-204,"x_max":526,"o":"m 458 389 q 449 430 458 411 q 421 449 440 449 q 308 358 372 449 q 122 43 243 268 q 172 25 140 25 q 263 74 204 25 q 418 267 356 151 q 458 389 458 342 m 438 486 q 456 483 447 486 q 525 375 525 465 q 493 240 525 314 q 405 99 461 167 q 268 6 349 31 q 198 -3 238 -3 q 111 22 158 -3 l -50 -308 q -91 -367 -72 -353 q -125 -381 -110 -381 q -145 -381 -140 -381 q -172 -376 -150 -381 q -204 -374 -193 -372 q -79 -174 -179 -350 q 67 97 21 1 q 242 561 169 314 q 314 863 315 808 q 342 851 319 854 q 369 842 364 847 q 399 789 399 815 q 386 724 399 763 l 211 253 q 349 441 299 396 q 438 486 399 486 z "},"":{"ha":554,"x_min":-242,"x_max":657,"o":"m -114 -439 q -208 -413 -175 -439 q -242 -351 -242 -387 q -221 -269 -242 -315 q -90 -156 -185 -199 q 97 -94 -19 -122 q 247 -56 214 -65 q 367 257 297 32 q 232 58 286 115 q 122 1 178 1 q 35 64 47 1 q 32 93 29 74 q 35 121 35 113 q 44 148 36 129 q 56 175 53 167 q 82 225 71 207 q 69 247 60 225 l 94 296 q 172 449 142 386 q 226 478 186 478 l 311 478 q 297 467 308 475 q 260 428 272 450 q 135 182 210 342 q 104 86 104 117 q 115 43 104 56 q 143 31 125 31 q 217 86 169 31 q 435 449 315 201 q 489 478 450 478 l 564 478 q 507 415 528 453 q 462 311 486 376 q 401 138 438 246 q 344 -25 364 29 q 544 113 475 14 q 632 265 575 156 q 649 281 642 285 q 657 269 657 276 q 634 216 657 263 q 588 130 611 169 q 526 49 564 90 q 443 -17 489 7 q 321 -69 397 -42 q 106 -356 214 -264 q -114 -439 4 -439 m -194 -301 q -210 -358 -210 -332 q -190 -397 -210 -383 q -142 -411 -171 -411 q 31 -328 -61 -411 q 192 -151 122 -246 l 222 -100 q -67 -186 -7 -160 q -194 -301 -156 -225 m 480 690 q 490 690 480 690 q 513 678 500 690 q 526 645 526 665 q 514 612 526 625 q 481 599 501 599 q 448 611 461 599 q 435 644 435 624 q 447 677 435 664 q 480 690 460 690 m 301 690 q 311 690 301 690 q 334 678 321 690 q 347 645 347 665 q 335 612 347 625 q 302 599 322 599 q 269 611 282 599 q 256 644 256 624 q 268 677 256 664 q 301 690 281 690 z "},"":{"ha":989,"x_min":25,"x_max":1200,"o":"m 922 618 q 954 578 954 618 q 919 497 954 535 q 807 326 858 429 q 729 46 729 171 q 747 -25 729 -3 q 786 -47 764 -47 q 942 61 853 -47 q 1063 258 1021 163 q 1085 278 1074 281 q 1086 253 1096 275 q 957 31 1029 126 q 864 -55 919 -21 q 753 -89 808 -89 q 671 -45 699 -89 q 643 58 643 -1 q 658 176 643 118 q 696 267 672 235 q 397 -3 556 99 q 213 -64 314 -54 q 180 -65 203 -65 q 125 -49 157 -65 q 25 155 25 -7 q 131 506 25 317 q 253 682 186 606 q 114 778 160 726 q 81 868 81 815 q 101 935 81 921 q 126 942 115 953 q 127 911 135 929 q 119 876 119 893 q 160 793 119 839 q 278 711 200 747 q 956 1074 604 1074 q 1130 1024 1065 1074 q 1194 897 1194 975 q 1100 733 1194 813 q 965 661 1053 692 q 648 614 832 614 q 343 653 464 614 q 150 323 203 454 q 97 119 97 192 q 99 92 97 104 q 215 -24 115 -24 q 476 99 328 -24 q 683 310 582 188 q 834 525 785 432 q 922 618 883 618 m 1138 914 q 1088 1006 1138 974 q 953 1038 1039 1038 q 781 1010 867 1038 q 622 928 696 982 q 490 817 547 874 q 365 681 432 760 q 621 647 469 647 q 1036 739 906 647 q 1138 914 1138 810 m 1200 1181 l 1183 1139 l 886 1139 l 904 1181 l 1200 1181 z "},"":{"ha":486,"x_min":32,"x_max":597,"o":"m 501 376 q 431 263 476 351 q 376 131 385 175 q 367 60 367 88 q 388 33 367 33 q 453 82 414 33 q 565 267 510 153 q 578 281 571 279 q 588 276 586 283 q 585 256 590 269 q 369 -3 457 -3 q 304 36 329 -3 q 292 92 292 57 q 306 176 292 126 q 114 -3 194 -3 q 74 11 92 -3 q 32 111 32 40 q 150 388 32 247 q 314 489 217 465 q 364 496 340 496 q 472 451 428 496 q 481 422 486 436 q 457 411 475 408 q 390 461 442 461 q 243 367 331 461 q 150 236 193 311 q 96 92 96 146 q 131 38 96 38 q 349 293 214 38 q 393 363 375 344 q 439 382 411 382 q 467 378 444 382 q 501 376 490 374 m 597 642 l 581 600 l 283 600 l 301 642 l 597 642 z "},"":{"ha":989,"x_min":28,"x_max":1207,"o":"m 1206 1167 q 1131 1076 1206 1125 q 1025 1044 1079 1044 q 933 1064 971 1044 q 886 1146 886 1088 q 910 1181 886 1181 q 919 1172 915 1181 q 930 1149 924 1163 q 944 1126 936 1135 q 1029 1092 981 1092 q 1103 1103 1078 1092 q 1142 1126 1129 1114 q 1175 1165 1154 1138 q 1203 1174 1189 1183 q 1206 1167 1206 1171 m 878 563 q 908 526 908 563 q 876 451 908 488 q 738 125 778 343 q 729 38 729 79 q 747 -25 729 -3 q 786 -47 764 -47 q 942 61 853 -47 q 1063 258 1021 163 q 1085 278 1074 281 q 1086 253 1096 275 q 957 31 1029 126 q 864 -55 919 -21 q 753 -89 808 -89 q 671 -45 699 -89 q 643 58 643 -1 q 658 176 643 118 q 696 267 672 235 q 397 -3 556 99 q 213 -64 314 -54 q 180 -65 203 -65 q 125 -49 157 -65 q 29 142 29 -8 q 122 461 29 275 q 244 640 176 567 q 114 729 156 682 q 82 811 82 763 q 101 874 82 860 q 126 878 115 892 q 125 850 132 867 q 118 818 118 833 q 153 749 118 785 q 268 668 199 699 q 565 897 400 811 q 910 982 729 982 q 1074 937 1014 982 q 1135 814 1135 892 q 1036 660 1135 736 q 618 560 906 560 q 326 603 458 560 q 235 481 293 572 q 137 290 176 389 q 97 119 97 192 q 99 92 97 104 q 215 -24 115 -24 q 476 99 328 -24 q 801 488 685 274 q 878 563 843 563 m 1081 835 q 1035 919 1081 889 q 914 949 989 949 q 610 863 746 949 q 347 628 474 776 q 615 592 464 592 q 986 675 863 592 q 1081 835 1081 739 z "},"":{"ha":486,"x_min":32,"x_max":642,"o":"m 501 376 q 431 263 476 351 q 376 131 385 175 q 367 60 367 88 q 388 33 367 33 q 453 82 414 33 q 565 267 510 153 q 578 281 571 279 q 588 276 586 283 q 585 256 590 269 q 369 -3 457 -3 q 304 36 329 -3 q 292 92 292 57 q 306 176 292 126 q 114 -3 194 -3 q 74 11 92 -3 q 32 111 32 40 q 150 388 32 247 q 314 489 217 465 q 364 496 340 496 q 472 451 428 496 q 481 422 486 436 q 457 411 475 408 q 390 461 442 461 q 243 367 331 461 q 150 236 193 311 q 96 92 96 146 q 131 38 96 38 q 349 293 214 38 q 393 363 375 344 q 439 382 411 382 q 467 378 444 382 q 501 376 490 374 m 640 733 q 564 643 640 692 q 460 611 514 611 q 367 631 406 611 q 321 713 321 654 q 344 747 321 747 q 354 738 350 747 q 365 715 358 729 q 379 693 371 701 q 464 658 415 658 q 538 669 513 658 q 576 692 564 681 q 610 732 589 704 q 638 740 624 750 q 640 733 640 738 z "},"":{"ha":989,"x_min":25,"x_max":1194,"o":"m 922 618 q 954 578 954 618 q 919 497 954 535 q 807 326 858 429 q 729 46 729 171 q 747 -25 729 -3 q 786 -47 764 -47 q 942 61 853 -47 q 1063 258 1021 163 q 1085 278 1074 281 q 1086 253 1096 275 q 957 31 1029 126 q 903 -26 938 3 l 903 -36 q 790 -151 842 -85 q 738 -263 739 -218 q 778 -308 738 -308 q 849 -267 807 -308 q 861 -265 858 -262 q 863 -272 864 -267 q 818 -324 857 -297 q 742 -350 779 -350 q 668 -292 668 -350 q 712 -187 668 -247 q 813 -78 756 -128 q 753 -89 782 -89 q 671 -45 699 -89 q 643 58 643 -1 q 658 176 643 118 q 696 267 672 235 q 397 -3 556 99 q 213 -64 314 -54 q 180 -65 203 -65 q 125 -49 157 -65 q 25 155 25 -7 q 131 506 25 317 q 253 682 186 606 q 114 778 160 726 q 81 868 81 815 q 101 935 81 921 q 126 942 115 953 q 127 911 135 929 q 119 876 119 893 q 160 793 119 839 q 278 711 200 747 q 956 1074 604 1074 q 1130 1024 1065 1074 q 1194 897 1194 975 q 1100 733 1194 813 q 965 661 1053 692 q 648 614 832 614 q 343 653 464 614 q 150 323 203 454 q 97 119 97 192 q 99 92 97 104 q 215 -24 115 -24 q 476 99 328 -24 q 683 310 582 188 q 834 525 785 432 q 922 618 883 618 m 1138 914 q 1088 1006 1138 974 q 953 1038 1039 1038 q 781 1010 867 1038 q 622 928 696 982 q 490 817 547 874 q 365 681 432 760 q 621 647 469 647 q 1036 739 906 647 q 1138 914 1138 810 z "},"":{"ha":486,"x_min":32,"x_max":589,"o":"m 501 376 q 431 263 476 351 q 376 131 385 175 q 367 60 367 88 q 388 33 367 33 q 453 82 414 33 q 565 267 510 153 q 578 281 571 279 q 589 272 589 285 q 585 256 589 265 q 425 19 494 71 q 321 -92 367 -29 q 274 -198 275 -154 q 314 -242 274 -242 q 385 -200 343 -242 q 397 -198 394 -196 q 399 -206 400 -200 q 354 -257 393 -231 q 278 -283 315 -283 q 204 -225 204 -283 q 252 -115 204 -179 q 360 -1 300 -51 q 294 74 307 4 q 292 108 292 85 q 306 176 292 131 q 114 -3 194 -3 q 74 11 92 -3 q 32 111 32 40 q 150 388 32 247 q 314 489 217 465 q 364 496 340 496 q 472 451 428 496 q 481 422 486 436 q 457 411 475 408 q 390 461 442 461 q 243 367 331 461 q 150 236 193 311 q 96 92 96 146 q 131 38 96 38 q 349 293 214 38 q 393 363 375 344 q 439 382 411 382 q 467 378 444 382 q 501 376 490 374 z "},"":{"ha":986,"x_min":89,"x_max":1172,"o":"m 732 515 q 300 704 415 515 q 253 615 283 686 q 201 442 224 544 q 176 228 176 328 q 224 45 176 129 q 374 -71 272 -39 q 510 -93 450 -93 q 839 -12 703 -93 q 967 98 921 36 q 1067 268 1014 160 q 1084 281 1075 286 q 1083 254 1093 275 q 985 85 1031 147 q 863 -32 940 22 q 526 -140 707 -140 q 319 -98 418 -140 q 162 33 219 -56 q 94 225 104 121 q 90 317 90 264 q 104 458 90 369 q 162 639 118 546 q 263 789 206 732 q 239 923 239 861 q 257 1038 239 985 q 267 1051 260 1046 q 281 1051 275 1056 q 281 1023 286 1046 q 276 951 276 1000 q 294 826 276 903 q 550 989 403 938 q 783 1028 663 1028 q 858 1024 821 1028 q 1146 888 1078 1004 q 1171 796 1171 844 q 1135 692 1171 747 q 892 535 1061 578 q 732 515 817 515 m 326 739 q 729 543 424 543 q 1022 633 911 543 q 1107 790 1107 704 q 986 954 1107 900 q 802 986 911 986 q 562 926 693 986 q 326 739 431 865 m 1113 1144 q 1010 1087 1107 1131 q 907 1043 914 1043 q 893 1051 893 1043 q 895 1058 893 1054 q 928 1085 897 1063 q 1042 1166 1022 1151 q 1076 1181 1061 1181 q 1115 1157 1115 1181 q 1113 1144 1115 1151 z "},"":{"ha":361,"x_min":47,"x_max":600,"o":"m 335 319 q 383 418 383 378 q 350 458 383 458 q 201 339 285 458 q 150 240 175 301 q 125 130 125 179 q 145 50 125 81 q 208 19 165 19 q 286 40 250 19 q 355 103 322 60 q 404 176 388 147 q 450 264 421 206 q 469 279 460 283 q 469 254 479 275 q 417 150 436 185 q 364 72 399 115 q 193 -6 301 -6 q 81 33 115 -6 q 47 121 47 71 q 77 254 47 182 q 146 379 107 326 q 332 489 226 489 q 406 465 383 489 q 429 408 429 440 q 390 328 429 361 q 358 310 371 310 q 335 319 344 310 m 338 582 q 333 584 336 582 q 329 591 329 586 q 332 600 329 596 q 372 632 335 604 q 451 690 408 660 q 514 734 494 719 q 552 749 533 749 q 585 742 571 749 q 600 724 600 735 q 596 706 600 714 q 471 635 589 689 q 338 582 353 582 z "},"":{"ha":986,"x_min":89,"x_max":1172,"o":"m 999 1178 q 1033 1181 1022 1181 q 1046 1178 1044 1181 l 1092 1044 q 1085 1036 1094 1036 q 1067 1044 1072 1036 l 1008 1133 q 854 1060 871 1068 q 824 1053 842 1047 q 822 1060 821 1057 l 999 1178 m 732 515 q 300 704 415 515 q 253 615 283 686 q 201 442 224 544 q 176 228 176 328 q 224 45 176 129 q 374 -71 272 -39 q 510 -93 450 -93 q 839 -12 703 -93 q 967 98 921 36 q 1067 268 1014 160 q 1084 281 1075 286 q 1083 254 1093 275 q 985 85 1031 147 q 863 -32 940 22 q 526 -140 707 -140 q 319 -98 418 -140 q 162 33 219 -56 q 94 225 104 121 q 90 317 90 264 q 104 458 90 369 q 162 639 118 546 q 263 789 206 732 q 239 923 239 861 q 257 1038 239 985 q 275 1053 263 1053 q 282 1026 288 1053 q 276 951 276 1000 q 294 826 276 903 q 550 989 403 938 q 783 1028 663 1028 q 858 1024 821 1028 q 1146 888 1078 1004 q 1171 796 1171 844 q 1135 692 1171 747 q 892 535 1061 578 q 732 515 817 515 m 326 739 q 729 543 424 543 q 1022 633 911 543 q 1107 790 1107 704 q 986 954 1107 900 q 802 986 911 986 q 562 926 693 986 q 326 739 431 865 z "},"":{"ha":361,"x_min":47,"x_max":489,"o":"m 335 319 q 383 418 383 378 q 350 458 383 458 q 201 339 285 458 q 150 240 175 301 q 125 130 125 179 q 145 50 125 81 q 208 19 165 19 q 286 40 250 19 q 355 103 322 60 q 404 176 388 147 q 450 264 421 206 q 469 279 460 283 q 469 254 479 275 q 417 150 436 185 q 364 72 399 115 q 193 -6 301 -6 q 81 33 115 -6 q 47 121 47 71 q 77 254 47 182 q 146 379 107 326 q 332 489 226 489 q 406 465 383 489 q 429 408 429 440 q 390 328 429 361 q 358 310 371 310 q 335 319 344 310 m 213 561 q 189 553 203 553 q 175 556 175 553 q 178 561 175 560 l 385 708 q 424 711 411 711 q 438 708 436 711 l 488 561 q 489 556 489 560 q 477 553 489 553 q 460 561 465 553 l 396 660 q 213 561 231 571 z "},"":{"ha":986,"x_min":89,"x_max":1172,"o":"m 1014 1181 q 1047 1139 1047 1181 q 1026 1097 1047 1118 q 977 1075 1006 1075 q 949 1103 949 1075 q 970 1153 949 1126 q 1014 1181 992 1181 m 732 515 q 300 704 415 515 q 253 615 283 686 q 201 442 224 544 q 176 228 176 328 q 224 45 176 129 q 374 -71 272 -39 q 510 -93 450 -93 q 839 -12 703 -93 q 967 98 921 36 q 1067 268 1014 160 q 1084 281 1075 286 q 1083 254 1093 275 q 985 85 1031 147 q 863 -32 940 22 q 526 -140 707 -140 q 319 -98 418 -140 q 162 33 219 -56 q 94 225 104 121 q 90 317 90 264 q 104 458 90 369 q 162 639 118 546 q 263 789 206 732 q 239 923 239 861 q 257 1038 239 985 q 275 1053 263 1053 q 282 1026 288 1053 q 276 951 276 1000 q 294 826 276 903 q 550 989 403 938 q 783 1028 663 1028 q 858 1024 821 1028 q 1146 888 1078 1004 q 1171 796 1171 844 q 1135 692 1171 747 q 892 535 1061 578 q 732 515 817 515 m 326 739 q 729 543 424 543 q 1022 633 911 543 q 1107 790 1107 704 q 986 954 1107 900 q 802 986 911 986 q 562 926 693 986 q 326 739 431 865 z "},"":{"ha":361,"x_min":47,"x_max":475,"o":"m 335 319 q 383 418 383 378 q 350 458 383 458 q 201 339 285 458 q 150 240 175 301 q 125 130 125 179 q 145 50 125 81 q 208 19 165 19 q 286 40 250 19 q 355 103 322 60 q 404 176 388 147 q 450 264 421 206 q 467 280 460 283 q 474 270 474 276 q 455 224 474 264 q 417 150 436 185 q 364 72 399 115 q 193 -6 301 -6 q 81 33 115 -6 q 47 121 47 71 q 77 254 47 182 q 146 379 107 326 q 332 489 226 489 q 406 465 383 489 q 429 408 429 440 q 390 328 429 361 q 358 310 371 310 q 335 319 344 310 m 413 679 q 446 636 446 679 q 425 595 446 617 q 376 574 404 574 q 347 601 347 574 q 369 652 347 625 q 413 679 390 679 z "},"":{"ha":986,"x_min":82,"x_max":1158,"o":"m 1115 1171 q 1139 1179 1125 1179 q 1153 1176 1153 1179 q 1150 1171 1153 1172 l 943 1024 q 904 1019 917 1019 q 890 1024 892 1019 l 840 1171 q 849 1179 836 1179 q 856 1179 849 1179 q 868 1171 864 1179 l 932 1072 q 1115 1171 1097 1161 m 718 475 q 286 664 401 475 q 241 579 269 646 q 192 415 213 513 q 172 222 172 318 q 222 43 172 125 q 361 -66 272 -39 q 510 -93 450 -93 q 839 -12 703 -93 q 967 98 921 36 q 1067 268 1014 160 q 1084 281 1075 286 q 1083 254 1093 275 q 985 85 1031 147 q 863 -32 940 22 q 526 -140 707 -140 q 319 -98 418 -140 q 160 28 219 -56 q 89 211 101 113 q 83 304 83 254 q 95 434 83 354 q 149 603 107 514 q 249 749 192 692 q 225 883 225 821 q 243 997 225 944 q 261 1013 249 1013 q 268 986 274 1013 q 263 911 263 960 q 281 786 263 863 q 536 947 389 897 q 769 988 649 988 q 844 983 807 988 q 1132 847 1064 964 q 1157 756 1157 804 q 1121 651 1157 707 q 878 494 1047 538 q 718 475 803 475 m 313 699 q 715 503 410 503 q 1008 593 897 503 q 1093 750 1093 664 q 972 914 1093 860 q 788 946 897 946 q 548 885 679 946 q 313 699 417 825 z "},"":{"ha":361,"x_min":47,"x_max":633,"o":"m 335 319 q 383 418 383 378 q 350 458 383 458 q 201 339 285 458 q 150 240 175 301 q 125 130 125 179 q 145 50 125 81 q 208 19 165 19 q 286 40 250 19 q 355 103 322 60 q 404 176 388 147 q 450 264 421 206 q 469 279 460 283 q 469 254 479 275 q 417 150 436 185 q 364 72 399 115 q 193 -6 301 -6 q 81 33 115 -6 q 47 121 47 71 q 77 254 47 182 q 146 379 107 326 q 332 489 226 489 q 406 465 383 489 q 429 408 429 440 q 390 328 429 361 q 358 310 371 310 q 335 319 344 310 m 596 775 q 619 783 606 783 q 633 780 633 783 q 631 775 633 776 l 424 628 q 385 625 397 625 q 371 628 372 625 l 321 775 q 319 780 319 776 q 332 783 319 783 q 349 775 344 783 l 413 676 q 596 775 578 765 z "},"":{"ha":1426,"x_min":3,"x_max":1431,"o":"m 924 -47 q 521 42 689 -47 q 235 -56 393 -56 q 14 38 56 -56 q 4 88 4 58 q 38 151 4 118 q 175 203 89 203 q 301 181 233 203 q 510 88 369 158 q 649 251 579 149 q 769 450 718 354 q 892 658 819 546 q 1038 846 965 771 q 706 932 881 932 q 560 918 635 932 q 228 740 340 875 q 163 593 163 663 q 264 465 163 494 q 325 457 299 457 q 385 465 351 457 q 450 501 418 472 q 515 606 513 558 q 531 614 517 617 q 543 594 546 611 q 436 453 529 501 q 333 424 381 424 q 250 435 286 424 q 110 563 143 469 q 97 629 97 596 q 157 772 97 701 q 588 963 279 921 q 711 971 650 971 q 1076 886 901 971 q 1176 974 1131 944 q 1249 1004 1222 1004 q 1268 999 1265 1004 q 1267 990 1271 993 q 1258 986 1264 986 q 1197 940 1235 986 q 1136 854 1160 894 q 1363 619 1285 763 q 1425 371 1425 506 q 1303 69 1425 174 q 1058 -37 1199 -18 q 924 -47 992 -47 m 554 64 q 881 -12 692 -12 q 1233 103 1101 -12 q 1338 363 1338 196 q 1288 583 1338 481 q 1103 804 1225 715 q 949 572 1064 747 q 756 288 833 396 q 554 64 640 131 m 474 61 q 274 145 325 129 q 183 161 224 161 q 118 133 142 161 q 94 82 94 104 q 106 39 94 60 q 226 -15 136 -15 q 474 61 360 -15 m 1393 1172 q 1417 1181 1404 1181 q 1431 1177 1431 1181 q 1428 1172 1431 1174 l 1221 1036 q 1182 1033 1194 1033 q 1168 1036 1169 1033 l 1118 1172 q 1117 1176 1117 1174 q 1128 1179 1117 1179 q 1146 1172 1140 1179 l 1210 1081 q 1393 1172 1375 1164 z "},"":{"ha":910,"x_min":36,"x_max":921,"o":"m 372 81 q 408 36 372 36 q 582 254 474 36 q 590 271 586 263 q 601 282 593 279 q 611 278 608 285 q 608 258 614 272 q 383 0 497 0 q 324 33 346 0 q 301 99 301 67 q 308 160 301 132 q 169 8 228 26 q 137 1 153 1 q 106 6 121 1 q 38 114 38 24 q 69 249 38 175 q 157 392 100 324 q 294 483 214 460 q 363 493 324 493 q 451 468 403 493 q 613 797 546 646 q 651 856 632 843 q 685 869 669 869 q 705 869 701 869 q 731 866 708 869 q 767 864 754 863 q 597 581 735 835 q 386 147 422 256 q 372 81 372 107 m 440 446 q 390 464 422 464 q 299 415 357 464 q 144 224 206 338 q 104 100 104 149 q 113 60 104 78 q 142 42 122 42 q 258 139 189 42 q 440 446 328 236 m 921 796 q 878 694 921 735 q 781 635 836 653 q 771 632 775 632 q 767 639 767 632 q 778 650 767 646 q 849 695 819 664 q 883 771 878 726 q 843 757 865 757 q 807 774 821 757 q 797 814 793 790 q 820 854 800 838 q 866 871 840 871 q 906 849 892 871 q 921 796 921 826 z "},"":{"ha":1426,"x_min":3,"x_max":1425,"o":"m 521 50 q 235 -54 392 -54 q 14 46 56 -54 q 4 101 4 69 q 36 168 4 132 q 175 225 86 225 q 295 203 235 225 q 510 100 356 182 q 713 389 603 190 l 599 376 q 581 392 589 375 q 576 426 572 408 q 599 443 581 443 q 742 442 678 443 q 847 638 786 529 q 928 775 907 746 q 1038 921 983 858 q 707 1014 882 1014 q 560 999 635 1014 q 232 811 344 953 q 163 647 163 725 q 264 510 163 542 q 326 500 300 500 q 385 508 353 500 q 450 547 418 517 q 515 661 511 608 q 531 670 517 674 q 543 649 546 667 q 436 494 529 547 q 322 464 379 464 l 250 476 q 111 611 144 513 q 97 686 97 649 q 154 838 97 763 q 588 1047 276 1001 q 708 1056 649 1056 q 1076 964 901 1056 q 1176 1059 1131 1026 q 1250 1092 1222 1092 q 1268 1085 1265 1092 q 1267 1076 1271 1079 q 1258 1072 1264 1072 q 1197 1022 1235 1072 q 1136 929 1160 972 q 1363 676 1285 831 q 1425 407 1425 553 q 1339 119 1425 226 q 1167 -4 1268 32 q 928 -47 1046 -47 q 521 50 689 -47 m 554 75 q 883 -8 694 -8 q 1233 117 1103 -8 q 1338 397 1338 218 q 1288 638 1338 525 q 1103 876 1225 781 q 960 645 1053 800 q 835 439 867 490 l 904 438 q 933 419 928 436 q 910 400 931 403 q 807 397 871 400 q 554 75 658 164 m 474 72 q 268 165 311 150 q 184 181 225 181 q 119 150 143 181 q 94 95 94 119 q 106 49 94 71 q 225 -11 135 -11 q 474 72 358 -11 z "},"":{"ha":510,"x_min":36,"x_max":790,"o":"m 372 81 q 408 36 372 36 q 582 254 474 36 q 590 271 586 263 q 601 282 593 279 q 611 278 608 285 q 608 258 614 272 q 383 0 497 0 q 324 33 346 0 q 301 99 301 67 q 308 160 301 132 q 169 8 228 26 q 137 1 153 1 q 106 6 121 1 q 38 114 38 24 q 69 249 38 175 q 157 392 100 324 q 294 483 214 460 q 363 493 324 493 q 451 468 403 493 q 542 646 483 529 l 456 636 q 438 651 446 635 q 433 685 429 668 q 456 703 438 703 q 568 701 521 703 l 613 797 q 651 856 632 843 q 685 869 669 869 q 705 869 701 869 q 731 866 708 869 q 767 864 754 863 q 663 700 743 842 q 761 697 721 697 q 790 679 785 696 q 767 660 788 663 q 638 656 697 660 q 372 81 372 179 m 440 446 q 390 464 422 464 q 299 415 357 464 q 144 224 206 338 q 104 100 104 149 q 113 60 104 78 q 142 42 122 42 q 258 139 189 42 q 440 446 328 236 z "},"":{"ha":1217,"x_min":31,"x_max":1200,"o":"m 1190 1181 l 1174 1139 l 876 1139 l 894 1181 l 1190 1181 m 686 451 l 538 453 q 251 364 354 453 q 131 125 131 261 q 160 8 131 61 q 267 -81 190 -46 q 476 -115 344 -115 q 753 -60 607 -115 q 999 74 899 -4 q 1113 229 1113 163 q 1079 269 1113 261 q 1044 286 1046 276 q 1065 297 1042 299 q 1104 288 1089 296 q 1167 201 1167 254 q 1059 39 1167 124 q 788 -96 951 -46 q 481 -146 624 -146 q 249 -118 338 -146 q 44 61 92 -69 q 32 125 32 94 q 43 201 32 156 q 93 304 54 246 q 206 413 132 363 q 363 487 279 463 q 514 514 447 511 q 397 583 446 539 q 347 679 347 628 q 419 839 347 765 q 794 1013 549 971 q 910 1024 863 1024 q 1154 960 1081 1024 q 1200 875 1200 919 q 1128 755 1200 813 q 956 675 1057 697 q 915 669 931 669 q 900 678 899 669 q 947 699 906 694 q 1028 733 989 704 q 1117 878 1106 789 q 1117 888 1117 883 q 1083 951 1117 922 q 940 990 1040 990 q 740 965 839 990 q 554 872 640 939 q 450 692 450 793 q 474 618 450 651 q 545 569 499 585 q 639 542 592 553 q 746 483 746 519 q 686 451 746 451 z "},"":{"ha":342,"x_min":42,"x_max":513,"o":"m 140 214 q 121 108 121 167 q 138 47 121 69 q 188 24 156 24 q 417 261 314 24 q 440 281 426 283 q 442 260 449 276 q 351 92 383 133 q 176 -6 281 -6 q 82 31 121 -6 q 43 129 43 67 q 73 262 43 192 q 154 392 103 332 q 272 481 206 453 q 333 494 304 494 q 388 478 363 494 q 411 435 411 458 q 311 275 411 351 q 225 233 281 251 q 140 214 169 214 m 374 436 q 351 464 374 464 q 233 368 313 464 q 150 238 186 310 q 219 254 174 238 q 297 299 264 271 q 374 436 374 364 m 513 664 l 496 622 l 199 622 l 217 664 l 513 664 z "},"":{"ha":1217,"x_min":31,"x_max":1200,"o":"m 686 453 l 538 454 q 251 365 354 454 q 131 126 131 263 q 160 9 131 63 q 267 -79 190 -44 q 476 -114 344 -114 q 753 -58 607 -114 q 999 75 899 -3 q 1113 231 1113 164 q 1079 270 1113 263 q 1044 288 1046 278 q 1065 299 1042 300 q 1104 289 1089 297 q 1167 203 1167 256 q 1059 40 1167 125 q 788 -94 951 -44 q 481 -144 624 -144 q 249 -117 338 -144 q 44 63 92 -68 q 32 126 32 96 q 43 202 32 157 q 93 306 54 247 q 206 414 132 364 q 363 488 279 464 q 514 515 447 513 q 397 585 446 540 q 347 681 347 629 q 419 840 347 767 q 794 1014 549 972 q 910 1025 863 1025 q 1154 961 1081 1025 q 1200 876 1200 921 q 1128 756 1200 814 q 956 676 1057 699 q 915 671 931 671 q 900 679 899 671 q 947 701 906 696 q 1028 733 989 706 q 1117 881 1106 790 q 1117 889 1117 885 q 1083 953 1117 924 q 940 992 1040 992 q 740 966 839 992 q 554 875 640 940 q 450 693 450 794 q 474 619 450 653 q 545 570 499 586 q 639 544 592 554 q 746 485 746 521 q 686 453 746 453 m 1061 1181 q 1094 1139 1094 1181 q 1074 1097 1094 1118 q 1024 1075 1053 1075 q 996 1103 996 1075 q 1017 1153 996 1126 q 1061 1181 1039 1181 z "},"":{"ha":342,"x_min":42,"x_max":446,"o":"m 140 214 q 121 108 121 167 q 138 47 121 69 q 188 24 156 24 q 417 261 314 24 q 440 281 426 283 q 446 274 446 279 q 415 201 446 268 q 351 92 383 133 q 176 -6 281 -6 q 82 31 121 -6 q 43 129 43 67 q 73 262 43 192 q 154 392 103 332 q 272 481 206 453 q 333 494 304 494 q 388 478 363 494 q 411 435 411 458 q 311 275 411 351 q 225 233 281 251 q 140 214 169 214 m 374 436 q 351 464 374 464 q 233 368 313 464 q 150 238 186 310 q 219 254 174 238 q 297 299 264 271 q 374 436 374 364 m 408 711 q 442 669 442 711 q 421 627 442 649 q 372 606 400 606 q 343 633 343 606 q 365 684 343 657 q 408 711 386 711 z "},"":{"ha":1217,"x_min":28,"x_max":1208,"o":"m 683 521 l 535 522 q 249 433 351 522 q 128 194 128 331 q 158 77 128 131 q 265 -11 188 24 q 473 -46 342 -46 q 750 10 604 -46 q 996 143 896 65 q 1110 299 1110 232 q 1076 338 1110 331 q 1042 356 1043 346 q 1063 367 1039 368 q 1101 357 1086 365 q 1164 271 1164 324 q 1061 112 1164 193 q 811 -18 958 31 q 506 -75 664 -67 q 394 -190 444 -124 q 342 -301 343 -256 q 382 -346 342 -346 q 453 -304 411 -346 q 465 -302 463 -300 q 467 -310 468 -304 q 422 -361 461 -335 q 344 -387 383 -387 q 272 -329 272 -387 q 338 -197 272 -275 q 468 -76 403 -119 l 450 -76 q 246 -49 335 -76 q 42 131 89 0 q 29 194 29 164 q 40 270 29 225 q 90 374 51 315 q 203 482 129 432 q 360 556 276 532 q 511 583 444 581 q 393 653 442 608 q 344 749 344 697 q 344 757 344 753 q 471 959 354 869 q 715 1083 588 1049 q 936 1117 843 1117 q 993 1114 965 1117 q 1158 1056 1108 1100 q 1208 968 1208 1013 q 1137 848 1208 906 q 964 768 1065 790 q 923 763 939 763 q 908 771 907 763 q 956 792 914 788 q 1036 825 997 797 q 1125 972 1114 882 q 1125 981 1125 976 q 1092 1044 1125 1015 q 951 1083 1050 1083 q 747 1052 853 1083 q 553 949 642 1021 q 447 761 447 863 q 472 688 447 721 q 542 638 496 654 q 636 611 589 622 q 743 553 743 589 q 683 521 743 521 z "},"":{"ha":342,"x_min":42,"x_max":446,"o":"m 140 214 q 121 108 121 167 q 138 47 121 69 q 188 24 156 24 q 417 261 314 24 q 440 281 426 283 q 446 274 446 279 q 442 261 446 268 q 427 228 439 254 q 411 193 415 203 q 394 160 407 183 q 375 126 382 138 q 355 95 368 114 q 331 65 342 76 q 275 19 296 31 q 174 -89 218 -28 q 128 -194 129 -150 q 168 -237 128 -237 q 239 -196 197 -237 q 251 -194 249 -192 q 253 -201 254 -196 q 208 -253 247 -226 q 131 -279 169 -279 q 58 -221 58 -279 q 104 -114 58 -175 q 208 -3 150 -53 q 176 -6 189 -6 q 82 31 121 -6 q 43 129 43 67 q 73 262 43 192 q 154 392 103 332 q 272 481 206 453 q 333 494 304 494 q 388 478 363 494 q 411 435 411 458 q 311 275 411 351 q 225 233 281 251 q 140 214 169 214 m 374 436 q 351 464 374 464 q 233 368 313 464 q 150 238 186 310 q 219 254 174 238 q 297 299 264 271 q 374 436 374 364 z "},"":{"ha":1217,"x_min":26,"x_max":1203,"o":"m 682 431 l 533 432 q 247 343 350 432 q 126 104 126 240 q 156 -13 126 40 q 263 -101 186 -67 q 472 -136 340 -136 q 749 -81 603 -136 q 994 53 894 -25 q 1108 208 1108 142 q 1075 248 1108 240 q 1040 265 1042 256 q 1061 276 1038 278 q 1100 267 1085 275 q 1163 181 1163 233 q 1055 18 1163 103 q 783 -117 947 -67 q 476 -167 619 -167 q 244 -139 333 -167 q 39 40 88 -90 q 28 104 28 74 q 39 180 28 135 q 89 283 50 225 q 201 392 128 342 q 359 466 275 442 q 510 493 443 490 q 392 563 442 518 q 343 658 343 607 q 343 667 343 663 q 467 865 353 779 q 706 982 582 951 q 919 1013 829 1013 q 1151 949 1078 1013 q 1197 864 1197 908 q 1126 744 1197 801 q 953 664 1054 686 q 912 658 928 658 q 897 667 896 658 q 944 688 903 683 q 1025 722 986 693 q 1114 867 1103 778 q 1114 876 1114 872 q 1081 940 1114 911 q 908 979 1038 979 q 639 911 778 979 q 449 701 472 829 q 446 658 446 686 q 470 597 446 631 q 541 548 494 564 q 636 522 588 532 q 742 463 742 499 q 682 431 742 431 m 1001 1090 q 1168 1167 1151 1158 q 1189 1174 1176 1174 q 1201 1171 1201 1174 q 1200 1167 1201 1168 l 1011 1053 q 976 1050 989 1050 q 964 1053 964 1050 l 918 1167 q 921 1173 915 1172 q 933 1174 926 1174 q 943 1167 939 1174 l 1001 1090 z "},"":{"ha":342,"x_min":42,"x_max":607,"o":"m 140 214 q 121 108 121 167 q 138 47 121 69 q 188 24 156 24 q 417 261 314 24 q 440 281 426 283 q 442 260 449 276 q 351 92 383 133 q 176 -6 281 -6 q 82 31 121 -6 q 43 129 43 67 q 73 262 43 192 q 154 392 103 332 q 272 481 206 453 q 333 494 304 494 q 388 478 363 494 q 411 435 411 458 q 311 275 411 351 q 225 233 281 251 q 140 214 169 214 m 374 436 q 351 464 374 464 q 233 368 313 464 q 150 238 186 310 q 219 254 174 238 q 297 299 264 271 q 374 436 374 364 m 569 746 q 593 754 579 754 q 607 751 607 754 q 604 746 607 747 l 397 599 q 358 594 372 594 q 344 599 344 594 l 294 746 q 293 751 293 747 q 306 754 293 754 q 322 746 318 754 l 386 647 q 569 746 551 736 z "},"":{"ha":1008,"x_min":-57,"x_max":1111,"o":"m 958 1178 q 990 1181 979 1181 q 1000 1178 1000 1181 l 1040 1060 q 1035 1053 1043 1054 q 1018 1060 1022 1051 l 967 1139 q 821 1060 835 1067 q 794 1054 810 1050 q 793 1060 792 1057 l 958 1178 m 181 632 q 100 819 100 722 q 176 1007 100 917 q 199 1018 192 1025 q 192 997 203 1013 q 138 842 138 921 q 201 671 138 750 q 228 721 208 688 q 499 965 322 883 q 757 1028 633 1028 q 832 1022 796 1028 q 1044 886 994 996 q 1063 796 1063 847 q 1018 681 1063 744 q 733 511 932 553 q 573 494 656 494 q 404 518 490 494 q 258 585 318 542 q 188 299 188 429 q 325 60 188 104 q 422 47 372 47 q 521 60 471 47 q 700 139 621 86 q 800 240 779 192 q 919 369 856 369 q 963 333 951 369 q 965 303 968 319 q 906 88 951 194 q 776 -156 860 -18 q 1081 -192 943 -157 q 1110 -211 1110 -199 q 1069 -217 1110 -226 q 793 -192 974 -192 q 757 -192 776 -192 q 531 -408 672 -314 q 257 -536 390 -501 q 132 -556 183 -556 q 46 -543 81 -556 q -56 -444 -56 -506 q -46 -406 -56 -426 q 151 -251 -8 -322 q 406 -178 272 -197 q 707 -156 540 -158 q 847 186 810 18 l 853 210 q 702 97 786 146 q 556 28 618 47 q 278 14 385 -28 q 149 127 192 43 q 107 319 107 211 q 181 632 107 469 m 788 988 q 553 919 679 988 q 274 618 368 819 q 409 551 333 571 q 531 532 485 532 q 604 535 576 532 q 938 679 822 558 q 1008 825 1008 753 q 838 983 1008 956 q 788 988 814 988 m 15 -454 q 82 -507 15 -493 q 131 -512 104 -512 q 381 -442 229 -512 q 685 -193 572 -354 q 429 -215 539 -197 q 128 -331 271 -239 q 15 -454 15 -403 z "},"":{"ha":544,"x_min":-147,"x_max":647,"o":"m -17 -439 q -147 -332 -147 -439 q -26 -172 -147 -243 q 236 -60 76 -112 q 343 -22 310 -36 q 379 208 379 83 q 376 246 379 233 q 269 83 338 167 q 110 6 189 -17 q 38 125 38 36 q 157 388 38 244 q 310 486 222 465 q 357 493 333 493 q 479 451 419 493 q 501 421 501 433 q 493 397 501 408 q 476 394 485 385 q 464 411 467 403 q 406 463 446 463 q 240 360 332 463 q 151 235 189 301 q 106 106 106 151 q 133 46 106 61 q 153 42 143 42 q 233 85 185 42 q 322 197 281 129 q 374 301 363 264 q 401 349 385 339 q 436 360 417 358 q 463 367 456 361 q 474 220 474 304 q 444 29 474 136 q 535 111 508 75 q 578 176 563 147 q 607 234 594 206 q 624 271 619 263 q 638 281 628 279 q 647 272 647 283 q 643 256 647 265 q 541 73 582 129 q 429 -17 500 17 q 333 -204 396 -111 q 174 -368 269 -297 q -17 -439 78 -439 m -118 -358 q -50 -411 -118 -411 q 41 -387 -10 -411 q 125 -339 92 -364 q 250 -203 182 -293 q 329 -62 301 -131 l 281 -79 q -25 -212 64 -154 q -111 -322 -90 -256 q -118 -358 -118 -343 m 249 540 q 225 532 239 532 q 211 535 211 532 q 214 540 211 539 l 421 688 q 460 692 447 692 q 474 688 472 692 l 524 540 q 525 535 525 539 q 513 532 525 532 q 496 540 501 532 l 432 639 q 249 540 267 550 z "},"":{"ha":1008,"x_min":-57,"x_max":1111,"o":"m 922 1071 q 858 1086 889 1071 q 822 1153 822 1104 q 840 1181 822 1181 q 850 1169 847 1181 q 868 1138 858 1147 q 942 1110 897 1110 q 1008 1123 988 1110 q 1053 1168 1029 1136 q 1072 1177 1064 1182 q 1078 1167 1079 1172 q 922 1071 1032 1071 m 181 632 q 100 819 100 722 q 176 1007 100 917 q 199 1018 192 1025 q 192 997 203 1013 q 138 842 138 921 q 201 671 138 750 q 228 721 208 688 q 492 976 325 888 q 742 1046 621 1046 q 810 1040 776 1046 q 1026 901 971 1014 q 1047 804 1047 857 q 1011 690 1047 751 q 746 514 935 560 q 577 494 664 494 q 404 518 490 494 q 258 585 318 542 q 188 299 188 429 q 325 60 188 104 q 422 47 372 47 q 521 60 471 47 q 700 139 621 86 q 800 240 779 192 q 919 369 856 369 q 963 333 951 369 q 965 303 968 319 q 906 88 951 194 q 776 -156 860 -18 q 1081 -192 943 -157 q 1110 -211 1110 -199 q 1069 -217 1110 -226 q 793 -192 974 -192 q 757 -192 776 -192 q 531 -408 672 -314 q 257 -536 390 -501 q 132 -556 183 -556 q 46 -543 81 -556 q -56 -444 -56 -506 q -46 -406 -56 -426 q 151 -251 -8 -322 q 406 -178 272 -197 q 707 -156 540 -158 q 847 186 810 18 l 853 210 q 702 97 786 146 q 556 28 618 47 q 278 14 385 -28 q 149 127 192 43 q 107 319 107 211 q 181 632 107 469 m 774 1004 q 544 929 667 1004 q 274 618 368 819 q 409 551 333 571 q 531 532 485 532 q 928 682 796 532 q 993 829 993 756 q 988 871 993 850 q 815 1001 961 978 q 774 1004 794 1004 m 15 -454 q 82 -507 15 -493 q 131 -512 104 -512 q 381 -442 229 -512 q 685 -193 572 -354 q 429 -215 539 -197 q 128 -331 271 -239 q 15 -454 15 -403 z "},"":{"ha":544,"x_min":-147,"x_max":647,"o":"m -17 -439 q -147 -332 -147 -439 q -26 -172 -147 -243 q 236 -60 76 -112 q 343 -22 310 -36 q 379 208 379 83 q 376 246 379 233 q 269 83 338 167 q 110 6 189 -17 q 38 125 38 36 q 157 388 38 244 q 310 486 222 465 q 357 493 333 493 q 479 451 419 493 q 501 421 501 433 q 493 397 501 408 q 476 394 485 385 q 464 411 467 403 q 406 463 446 463 q 240 360 332 463 q 151 235 189 301 q 106 106 106 151 q 133 46 106 61 q 153 42 143 42 q 233 85 185 42 q 322 197 281 129 q 374 301 363 264 q 401 349 385 339 q 436 360 417 358 q 463 367 456 361 q 474 220 474 304 q 444 29 474 136 q 535 111 508 75 q 578 176 563 147 q 607 234 594 206 q 624 271 619 263 q 638 281 628 279 q 647 272 647 283 q 643 256 647 265 q 541 73 582 129 q 429 -17 500 17 q 333 -204 396 -111 q 174 -368 269 -297 q -17 -439 78 -439 m -118 -358 q -50 -411 -118 -411 q 41 -387 -10 -411 q 125 -339 92 -364 q 250 -203 182 -293 q 329 -62 301 -131 l 281 -79 q -25 -212 64 -154 q -111 -322 -90 -256 q -118 -358 -118 -343 m 603 747 q 528 657 603 706 q 422 625 476 625 q 331 644 368 625 q 283 726 283 668 q 307 761 283 761 q 317 752 313 761 q 327 729 321 743 q 342 707 333 715 q 426 672 378 672 q 501 683 475 672 q 539 706 526 694 q 572 746 551 718 q 600 754 586 764 q 603 747 603 751 z "},"":{"ha":1008,"x_min":-57,"x_max":1111,"o":"m 181 632 q 100 819 100 722 q 176 1007 100 917 q 199 1018 192 1025 q 192 997 203 1013 q 138 842 138 921 q 201 671 138 750 q 228 721 208 688 q 492 976 325 888 q 742 1046 621 1046 q 810 1040 776 1046 q 1026 901 971 1014 q 1047 804 1047 857 q 1011 690 1047 751 q 746 514 935 560 q 577 494 664 494 q 404 518 490 494 q 258 585 318 542 q 188 299 188 429 q 325 60 188 104 q 422 47 372 47 q 521 60 471 47 q 700 139 621 86 q 800 240 779 192 q 919 369 856 369 q 963 333 951 369 q 965 303 968 319 q 906 88 951 194 q 776 -156 860 -18 q 1081 -192 943 -157 q 1110 -211 1110 -199 q 1069 -217 1110 -226 q 793 -192 974 -192 q 757 -192 776 -192 q 531 -408 672 -314 q 257 -536 390 -501 q 132 -556 183 -556 q 46 -543 81 -556 q -56 -444 -56 -506 q -46 -406 -56 -426 q 151 -251 -8 -322 q 406 -178 272 -197 q 707 -156 540 -158 q 847 186 810 18 l 853 210 q 702 97 786 146 q 556 28 618 47 q 278 14 385 -28 q 149 127 192 43 q 107 319 107 211 q 181 632 107 469 m 774 1004 q 544 929 667 1004 q 274 618 368 819 q 409 551 333 571 q 531 532 485 532 q 928 682 796 532 q 993 829 993 756 q 988 871 993 850 q 815 1001 961 978 q 774 1004 794 1004 m 15 -454 q 82 -507 15 -493 q 131 -512 104 -512 q 381 -442 229 -512 q 685 -193 572 -354 q 429 -215 539 -197 q 128 -331 271 -239 q 15 -454 15 -403 m 899 1181 q 925 1146 925 1181 q 908 1113 925 1129 q 869 1096 892 1096 q 846 1118 846 1096 q 863 1158 846 1136 q 899 1181 881 1181 z "},"":{"ha":544,"x_min":-147,"x_max":647,"o":"m -17 -439 q -147 -332 -147 -439 q -26 -172 -147 -243 q 236 -60 76 -112 q 343 -22 310 -36 q 379 208 379 83 q 376 246 379 233 q 269 83 338 167 q 110 6 189 -17 q 38 125 38 36 q 157 388 38 244 q 310 486 222 465 q 357 493 333 493 q 479 451 419 493 q 501 421 501 433 q 493 397 501 408 q 476 394 485 385 q 464 411 467 403 q 406 463 446 463 q 240 360 332 463 q 151 235 189 301 q 106 106 106 151 q 133 46 106 61 q 153 42 143 42 q 233 85 185 42 q 322 197 281 129 q 374 301 363 264 q 401 349 385 339 q 436 360 417 358 q 463 367 456 361 q 474 220 474 304 q 444 29 474 136 q 535 111 508 75 q 578 176 563 147 q 607 234 594 206 q 624 271 619 263 q 638 281 628 279 q 647 272 647 283 q 643 256 647 265 q 541 73 582 129 q 429 -17 500 17 q 333 -204 396 -111 q 174 -368 269 -297 q -17 -439 78 -439 m -118 -358 q -50 -411 -118 -411 q 41 -387 -10 -411 q 125 -339 92 -364 q 250 -203 182 -293 q 329 -62 301 -131 l 281 -79 q -25 -212 64 -154 q -111 -322 -90 -256 q -118 -358 -118 -343 m 460 728 q 493 686 493 728 q 472 644 493 665 q 423 622 451 622 q 394 650 394 622 q 416 701 394 674 q 460 728 438 728 z "},"":{"ha":776,"x_min":-57,"x_max":1111,"o":"m 492 -378 q 536 -424 536 -378 q 503 -502 536 -469 q 432 -547 471 -535 q 426 -549 429 -549 q 422 -546 424 -549 q 431 -536 421 -539 q 507 -450 499 -515 q 476 -460 492 -460 q 451 -448 461 -460 q 444 -419 442 -436 q 460 -390 446 -401 q 492 -378 475 -378 m 181 736 q 100 924 100 826 q 176 1111 100 1021 q 199 1122 192 1129 q 192 1101 203 1117 q 138 946 138 1025 q 201 775 138 854 q 228 825 208 792 q 492 1081 325 992 q 742 1150 621 1150 q 810 1144 776 1150 q 1026 1006 971 1118 q 1047 908 1047 961 q 1011 794 1047 856 q 746 618 935 664 q 577 599 664 599 q 404 622 490 599 q 258 689 318 646 q 188 403 188 533 q 325 164 188 208 q 422 150 372 150 q 521 164 471 150 q 700 243 621 190 q 800 344 779 296 q 919 474 856 474 q 963 438 951 474 q 965 407 968 424 q 906 192 951 299 q 776 -51 860 86 q 1081 -87 943 -53 q 1110 -107 1110 -94 q 1069 -112 1110 -122 q 793 -87 974 -87 q 757 -87 776 -87 q 531 -303 672 -210 q 257 -433 390 -397 q 132 -451 183 -451 q 46 -439 81 -451 q -56 -340 -56 -401 q -46 -301 -56 -322 q 151 -147 -8 -218 q 406 -74 272 -93 q 707 -51 540 -54 q 847 290 810 122 l 853 314 q 702 201 786 250 q 556 131 618 151 q 391 100 456 100 q 278 118 326 100 q 149 231 192 147 q 107 424 107 315 q 181 736 107 574 m 774 1108 q 544 1033 667 1108 q 274 722 368 924 q 409 656 333 675 q 531 636 485 636 q 928 786 796 636 q 993 933 993 860 q 988 975 993 954 q 815 1106 961 1082 q 774 1108 794 1108 m 15 -350 q 82 -403 15 -389 q 131 -408 104 -408 q 381 -339 229 -408 q 685 -89 572 -250 q 429 -111 539 -93 q 128 -226 271 -135 q 15 -350 15 -299 z "},"":{"ha":544,"x_min":-147,"x_max":647,"o":"m -17 -439 q -147 -332 -147 -439 q -26 -172 -147 -243 q 236 -60 76 -112 q 343 -22 310 -36 q 379 208 379 83 q 376 246 379 233 q 269 83 338 167 q 110 6 189 -17 q 38 125 38 36 q 157 388 38 244 q 310 486 222 465 q 357 493 333 493 q 479 451 419 493 q 501 421 501 433 q 493 397 501 408 q 476 394 485 385 q 464 411 467 403 q 406 463 446 463 q 240 360 332 463 q 151 235 189 301 q 106 106 106 151 q 133 46 106 61 q 153 42 143 42 q 233 85 185 42 q 322 197 281 129 q 374 301 363 264 q 401 349 385 339 q 436 360 417 358 q 463 367 456 361 q 474 220 474 304 q 444 29 474 136 q 535 111 508 75 q 578 176 563 147 q 607 234 594 206 q 624 271 619 263 q 638 281 628 279 q 647 272 647 283 q 643 256 647 265 q 541 73 582 129 q 429 -17 500 17 q 333 -204 396 -111 q 174 -368 269 -297 q -17 -439 78 -439 m -118 -358 q -50 -411 -118 -411 q 41 -387 -10 -411 q 125 -339 92 -364 q 250 -203 182 -293 q 329 -62 301 -131 l 281 -79 q -25 -212 64 -154 q -111 -322 -90 -256 q -118 -358 -118 -343 m 365 658 q 406 754 365 714 q 496 811 447 794 q 504 813 500 813 q 508 807 508 813 q 497 797 508 800 q 403 689 411 768 q 440 701 421 701 q 472 686 460 701 q 481 649 483 671 q 460 613 478 628 q 418 599 442 599 q 380 616 394 599 q 365 658 365 633 z "},"":{"ha":1918,"x_min":6,"x_max":2135,"o":"m 1842 724 q 1876 799 1842 724 q 1961 951 1910 874 q 2058 1044 2013 1028 q 2119 1060 2103 1060 q 2135 1056 2135 1060 q 2117 1042 2135 1051 q 2055 969 2099 1033 q 1944 774 2011 906 q 1828 494 1878 642 q 1935 503 1913 494 q 1963 506 1958 511 q 1950 488 1968 500 q 1815 450 1904 456 q 1793 383 1814 447 q 1724 82 1724 168 q 1741 14 1724 33 q 1778 -6 1758 -6 q 1821 11 1797 -6 q 1994 263 1900 69 q 2016 282 2006 286 q 2015 253 2026 278 q 1930 92 1964 143 q 1853 -3 1896 40 q 1739 -57 1796 -57 q 1650 -4 1675 -57 q 1638 42 1638 21 q 1638 85 1638 63 q 1643 145 1639 108 q 1663 237 1647 182 q 1688 320 1679 292 q 1715 397 1697 349 q 1735 450 1733 446 q 1264 468 1675 450 q 997 15 1179 215 q 790 -150 908 -83 q 457 -237 632 -237 q 293 -216 383 -237 q 122 -134 203 -194 q 8 29 42 -74 q 6 257 -26 132 q 80 376 22 321 q 175 433 138 432 q 192 430 189 433 q 190 422 194 426 q 178 414 185 417 q 92 335 136 396 q 33 147 33 254 q 194 -101 33 -19 q 422 -150 292 -150 q 529 -139 479 -150 q 1192 471 1000 -33 q 1122 455 1156 471 q 1077 439 1088 439 q 1065 447 1067 439 q 1099 492 1065 471 q 1157 517 1132 514 l 1211 517 q 1414 967 1300 739 q 1311 957 1378 963 q 1203 947 1244 951 q 1100 933 1161 943 q 999 910 1039 924 q 909 874 958 897 q 826 819 860 850 q 714 636 747 744 q 700 542 700 592 q 736 444 700 492 q 832 397 772 397 q 1000 533 950 397 q 1024 623 1024 597 q 1015 662 1024 649 q 1019 678 1006 675 q 1036 667 1029 679 q 1053 589 1053 631 q 1025 499 1053 547 q 897 383 978 413 q 819 369 858 369 q 742 386 781 369 q 633 494 668 418 q 611 582 611 540 q 624 677 611 624 q 676 786 638 731 q 774 876 715 842 q 890 932 832 910 q 1028 965 949 954 q 1167 982 1108 976 q 1310 992 1226 988 q 1433 1000 1393 996 q 1480 1065 1449 1026 q 1533 1109 1511 1103 q 1568 1115 1556 1115 q 1619 1072 1619 1115 q 1563 999 1619 1028 q 1456 969 1506 969 q 1349 712 1418 897 q 1276 517 1281 526 q 1545 505 1381 517 q 1747 493 1710 493 q 1842 724 1775 574 m 1869 1178 q 1900 1181 1889 1181 q 1911 1178 1911 1181 l 1949 1064 q 1942 1057 1951 1057 q 1928 1064 1932 1058 l 1878 1140 q 1738 1064 1751 1072 q 1715 1057 1725 1053 q 1710 1064 1706 1061 l 1869 1178 m 1550 1072 q 1481 1004 1533 1072 q 1569 1053 1571 1018 q 1554 1071 1568 1068 q 1550 1072 1553 1072 z "},"":{"ha":461,"x_min":-56,"x_max":613,"o":"m 326 63 q 354 24 326 24 q 539 268 419 24 q 558 281 549 288 q 558 254 568 275 q 403 19 465 63 q 328 -6 369 -6 q 258 33 286 -6 q 246 83 246 51 q 260 158 246 114 q 336 303 274 203 q 351 342 351 328 q 328 357 351 357 q 238 294 304 357 q 43 19 138 203 q -8 -1 33 -1 q -56 -10 -46 -4 q 326 756 208 539 q 373 824 353 804 q 421 843 393 843 q 450 840 428 843 q 483 838 472 836 q 334 599 442 794 q 128 203 226 404 q 245 331 193 285 q 372 417 297 376 q 482 458 447 458 q 497 456 490 458 q 326 63 326 156 m 336 929 q 313 921 326 921 q 299 924 299 921 q 301 929 299 928 l 508 1076 q 547 1081 533 1081 q 561 1076 561 1081 l 611 929 q 613 924 613 928 q 600 921 613 921 q 583 929 588 921 l 519 1028 q 336 929 354 939 z "}}}
